<svg xmlns="http://www.w3.org/2000/svg" width="212" height="212" viewBox="0 0 212 212" fill="none"><path d="M211.76 0H0V211.76H211.76V0Z" fill="#36363C"></path><path d="M100.586 95.292H102.704V121.762H100.586V95.292Z" fill="white"></path><path d="M109.046 95.292C109.633 95.292 110.136 95.4959 110.545 95.9037C110.964 96.3116 111.174 96.801 111.174 97.3719C111.174 97.9429 110.964 98.4221 110.545 98.8197C110.125 99.2276 109.622 99.4315 109.046 99.4315C108.469 99.4315 107.976 99.2276 107.557 98.8197C107.138 98.4119 106.938 97.9327 106.938 97.3719C106.938 96.8112 107.148 96.3116 107.557 95.9037C107.976 95.4959 108.469 95.292 109.046 95.292ZM107.767 103.326H110.346V122.821H107.767V103.326Z" fill="white"></path><path d="M130.811 115.988L132.81 117.078C132.153 118.419 131.39 119.489 130.53 120.309C129.671 121.13 128.705 121.75 127.623 122.18C126.541 122.61 125.324 122.82 123.972 122.82C120.958 122.82 118.601 121.8 116.901 119.749C115.201 117.708 114.351 115.388 114.351 112.817C114.351 110.386 115.065 108.225 116.505 106.324C118.33 103.914 120.774 102.703 123.827 102.703C126.879 102.703 129.487 103.944 131.371 106.414C132.704 108.165 133.39 110.346 133.409 112.957H116.785C116.833 115.178 117.519 116.998 118.842 118.419C120.166 119.839 121.808 120.55 123.759 120.55C124.696 120.55 125.614 120.379 126.502 120.039C127.391 119.699 128.145 119.249 128.772 118.689C129.4 118.129 130.067 117.228 130.791 115.978L130.811 115.988ZM130.811 110.836C130.492 109.526 130.028 108.475 129.429 107.685C128.821 106.905 128.019 106.264 127.024 105.784C126.029 105.304 124.976 105.064 123.875 105.064C122.059 105.064 120.504 105.664 119.2 106.875C118.243 107.755 117.529 109.075 117.046 110.836H130.811Z" fill="white"></path><path d="M138.703 103.206H141.202V106.722C142.197 105.379 143.304 104.374 144.523 103.708C145.741 103.041 147.062 102.703 148.484 102.703C149.906 102.703 151.226 103.072 152.353 103.821C153.481 104.569 154.303 105.574 154.842 106.835C155.38 108.096 155.644 110.065 155.644 112.731V122.82H153.145V113.469C153.145 111.213 153.054 109.706 152.871 108.947C152.577 107.645 152.028 106.671 151.206 106.015C150.383 105.359 149.317 105.031 147.996 105.031C146.483 105.031 145.132 105.533 143.934 106.548C142.735 107.553 141.953 108.804 141.567 110.301C141.334 111.275 141.212 113.049 141.212 115.633V122.82H138.713V103.216L138.703 103.206Z" fill="white"></path><path d="M169.387 105.294L167.779 106.925C166.435 105.644 165.132 105.004 163.849 105.004C163.034 105.004 162.342 105.264 161.762 105.794C161.181 106.324 160.896 106.935 160.896 107.645C160.896 108.265 161.131 108.855 161.609 109.426C162.088 109.996 163.095 110.676 164.623 111.446C166.486 112.397 167.758 113.307 168.42 114.187C169.082 115.078 169.408 116.078 169.408 117.198C169.408 118.769 168.848 120.099 167.728 121.19C166.608 122.28 165.203 122.82 163.513 122.82C162.393 122.82 161.314 122.58 160.296 122.1C159.278 121.62 158.433 120.96 157.761 120.109L159.339 118.349C160.622 119.769 161.976 120.479 163.411 120.479C164.419 120.479 165.274 120.159 165.977 119.529C166.679 118.899 167.035 118.149 167.035 117.298C167.035 116.598 166.801 115.968 166.333 115.418C165.865 114.877 164.816 114.197 163.177 113.377C161.416 112.487 160.224 111.606 159.593 110.736C158.962 109.866 158.646 108.875 158.646 107.765C158.646 106.314 159.155 105.104 160.163 104.144C161.171 103.183 162.454 102.703 163.991 102.703C165.783 102.703 167.585 103.563 169.408 105.284L169.387 105.294Z" fill="white"></path><path d="M97.7236 108.144V107.997H97.4092C97.4092 107.997 97.4779 108.095 97.5074 108.144H97.7236Z" fill="white"></path><path opacity="0.39" d="M78.2376 111.564C78.0411 111.535 77.884 111.515 77.7366 111.485C77.5892 111.456 77.5303 111.515 77.491 111.731C77.0096 114.531 76.5183 117.331 76.0368 120.141C76.0172 120.279 76.0368 120.466 76.0859 120.593C76.3217 121.212 76.7541 121.478 77.206 121.704C78.0608 122.136 78.9647 122.254 79.8686 122.323C80.1143 122.342 80.3697 122.352 80.6154 122.352C81.6863 122.362 82.7572 122.214 83.7987 121.802C84.2506 121.625 84.6829 121.379 85.0071 120.888C85.1742 120.633 85.2528 120.367 85.184 119.994C84.8106 117.921 84.4569 115.838 84.0934 113.755C83.9657 112.999 83.8282 112.242 83.6906 111.466C83.445 111.495 83.2288 111.525 82.9832 111.554H78.2279L78.2376 111.564Z" fill="#36363C"></path><path d="M97.8184 103.085C96.0007 102.417 94.1437 101.827 92.2573 101.424C91.1373 101.189 90.6166 100.923 90.3611 99.6265C89.4081 94.7434 85.3503 91.5208 80.6245 91.5699C75.8986 91.5208 71.831 94.7434 70.8878 99.6265C70.6323 100.923 70.1116 101.179 68.9915 101.424C67.1051 101.827 65.2482 102.417 63.4306 103.085C62.2221 103.527 61.3574 104.362 61.4852 105.895C61.5539 106.809 61.9371 107.418 62.6544 107.88C64.3639 108.97 66.2995 109.461 68.2547 109.864C72.3517 110.719 76.4782 111.014 80.6342 111.004C84.7804 111.024 88.9168 110.719 93.0139 109.864C94.9691 109.461 96.9046 108.97 98.6142 107.88C99.3314 107.418 99.7146 106.809 99.7834 105.895C99.9111 104.362 99.0465 103.537 97.838 103.085H97.8184ZM71.3987 105.649C70.878 105.915 70.2884 106.042 69.6989 106.239C69.0603 106.052 68.4315 105.954 67.8911 105.679C67.2918 105.374 67.3115 104.893 67.8519 104.5C68.6182 103.93 70.7011 103.94 71.4675 104.519C71.9489 104.883 71.9686 105.364 71.4085 105.649H71.3987ZM82.2849 107.113C81.774 107.349 81.2041 107.437 80.6245 107.595C80.0448 107.437 79.4651 107.349 78.964 107.113C78.2861 106.799 78.2763 106.268 78.8854 105.856C79.2784 105.59 79.9465 105.453 80.6245 105.453C81.2926 105.453 81.9705 105.59 82.3635 105.856C82.9726 106.268 82.9727 106.799 82.2849 107.113ZM88.1308 101.739C86.9321 102.004 85.7335 102.377 84.5152 102.505C83.2183 102.643 81.9115 102.731 80.6146 102.761C79.3177 102.731 78.0208 102.643 76.714 102.505C75.4957 102.377 74.3069 102.004 73.0984 101.739C72.5973 101.631 72.4794 101.316 72.5482 100.845C72.951 97.7499 74.523 95.4311 77.3821 94.1735C78.4727 93.6921 79.5535 93.4465 80.6146 93.4366C81.6757 93.4465 82.7565 93.6921 83.8471 94.1735C86.7062 95.4311 88.2683 97.74 88.681 100.845C88.7399 101.316 88.622 101.631 88.1308 101.739ZM93.3577 105.679C92.8174 105.954 92.1886 106.052 91.55 106.239C90.9605 106.042 90.3611 105.915 89.8502 105.649C89.3 105.364 89.3098 104.883 89.7912 104.519C90.5576 103.94 92.6405 103.93 93.4069 104.5C93.9472 104.903 93.9669 105.384 93.3676 105.679H93.3577Z" fill="white"></path><path d="M84.6032 101.1C85.5366 101.011 86.3816 100.923 87.2462 100.835C87.3444 98.113 84.9275 95.4308 82.0684 95.0869C84.0629 96.6393 84.5738 98.7418 84.6032 101.1Z" fill="white"></path><path d="M69.3753 120.81C68.9725 120.682 68.8251 120.427 68.943 119.955C69.6406 117.184 70.289 114.414 70.9571 111.633C71.0652 111.162 71.1733 110.69 71.2912 110.189C70.9768 110.15 70.7213 110.13 70.4659 110.091C70.2202 110.051 70.122 110.13 70.0631 110.376C69.277 113.687 68.4713 116.988 67.6853 120.299C67.646 120.466 67.6854 120.682 67.764 120.829" fill="white"></path><path d="M69.2767 121.114C68.8739 120.986 68.4416 120.672 68.6381 119.876C69.1687 117.754 69.6796 115.632 70.1905 113.51L70.6523 111.564C70.7309 111.24 70.7996 110.916 70.8782 110.582L70.9077 110.474C70.7407 110.454 70.5737 110.434 70.4165 110.415C70.3968 110.375 70.387 110.395 70.3674 110.464C69.9842 112.075 69.601 113.686 69.208 115.298C68.7953 116.997 68.3925 118.697 67.9897 120.387C67.97 120.466 67.9896 120.603 68.0486 120.702L67.4886 120.996C67.3903 120.81 67.3117 120.515 67.3805 120.25C67.7833 118.55 68.196 116.85 68.5988 115.15C68.982 113.539 69.375 111.928 69.7582 110.316C69.8565 109.904 70.1021 109.727 70.5147 109.796C70.6817 109.825 70.8586 109.835 71.0453 109.855L71.6839 109.923L71.4972 110.729C71.4186 111.063 71.3499 111.387 71.2713 111.712L70.8094 113.657C70.2985 115.789 69.7975 117.911 69.2571 120.033C69.1687 120.377 69.2571 120.446 69.4732 120.515L69.2866 121.114H69.2767Z" fill="white"></path><path d="M70.2683 121.899C70.2683 120.917 69.2662 120.111 68.0282 120.111C66.7903 120.111 65.7881 120.907 65.7881 121.899H70.2683Z" fill="white"></path><path d="M95.5487 121.733C95.5487 120.75 94.5465 119.944 93.3085 119.944C92.0705 119.944 91.0684 120.74 91.0684 121.733H95.5487Z" fill="white"></path><path d="M93.4751 121.144C93.7502 120.84 93.878 120.525 93.7601 120.093C93.1509 117.647 92.5712 115.181 91.9817 112.724C91.7656 111.83 91.5494 110.946 91.3234 110.022C90.9206 110.062 90.5571 110.091 90.1641 110.131C90.282 110.632 90.3901 111.093 90.4981 111.555C91.1662 114.345 91.8344 117.136 92.5319 119.916C92.64 120.368 92.4926 120.604 92.1192 120.751" fill="white"></path><path d="M93.7015 121.36L93.2397 120.927C93.4755 120.672 93.5345 120.466 93.4559 120.161C93.0138 118.393 92.5913 116.614 92.1688 114.836L91.088 110.356L90.5673 110.405L91.2845 113.411C91.7954 115.553 92.3162 117.695 92.8467 119.827C92.9941 120.407 92.7877 120.81 92.2474 121.036L92.0017 120.456C92.2375 120.358 92.2965 120.279 92.2278 119.984C91.6874 117.842 91.1764 115.701 90.6557 113.559L89.7715 109.845L91.5596 109.678L92.7681 114.689C93.1906 116.467 93.6131 118.235 94.0552 120.014C94.1829 120.525 94.065 120.947 93.6917 121.36H93.7015Z" fill="white"></path><path d="M81.0955 117.617C80.8891 117.784 80.7319 117.892 80.5944 118.019C80.4961 118.108 80.5158 118.629 80.614 118.756C80.673 118.845 80.7516 118.933 80.7811 119.031C80.8007 119.11 80.7811 119.218 80.7319 119.277C80.6926 119.316 80.5649 119.316 80.5059 119.287C80.1817 119.12 79.8673 118.933 79.9263 118.481C79.9263 118.422 79.9263 118.363 79.9066 118.285C79.7298 118.304 79.6021 118.363 79.5628 118.55C79.5529 118.619 79.5234 118.697 79.4841 118.746C79.4252 118.805 79.3368 118.884 79.268 118.874C79.1992 118.874 79.101 118.776 79.0813 118.707C78.9536 118.245 79.0813 117.99 79.5136 117.754C79.828 117.587 80.1228 117.381 80.4175 117.204C80.3979 117.135 80.4077 117.115 80.3979 117.115C80.0147 116.86 79.8968 116.546 80.054 116.113C80.0737 116.054 80.1522 115.986 80.221 115.976C80.2701 115.966 80.3487 116.015 80.3979 116.054C80.4273 116.084 80.4568 116.133 80.4568 116.182C80.4765 116.506 80.6926 116.634 80.9972 116.693C80.9972 116.634 80.9972 116.575 80.9972 116.516C80.9972 116.212 81.2035 115.956 81.5081 115.907C81.8029 115.858 82.078 116.025 82.186 116.32C82.2843 116.595 82.1664 116.909 81.8913 117.037C81.7341 117.106 81.6948 117.204 81.7046 117.361C81.7243 117.656 81.6457 117.951 81.8127 118.236C81.8422 118.294 81.8028 118.452 81.7439 118.491C81.6849 118.53 81.5474 118.52 81.4787 118.481C81.2036 118.294 81.0365 118.049 81.1151 117.626L81.0955 117.617Z" fill="white"></path></svg>