<svg xmlns="http://www.w3.org/2000/svg" width="212" height="212" viewBox="0 0 212 212" fill="none"><path d="M211.76 0H0V211.76H211.76V0Z" fill="#36363C"></path><path d="M56.6254 99.2942C57.8184 99.2942 58.8701 99.4424 59.7807 99.7459C60.6912 100.049 61.4606 100.508 62.0747 101.129C62.6959 101.751 63.1618 102.534 63.4794 103.473C63.7971 104.419 63.9523 105.527 63.9523 106.812C63.9523 108.096 63.7971 109.219 63.4794 110.165C63.1618 111.11 62.6959 111.887 62.0747 112.508C61.4536 113.129 60.6912 113.588 59.7807 113.891C58.8701 114.195 57.8184 114.343 56.6254 114.343H50.5762V99.2871H56.6254V99.2942ZM55.0584 102.908V110.743H56.5478C57.0349 110.743 57.4584 110.673 57.8184 110.525C58.1784 110.376 58.4678 110.165 58.6936 109.882C58.9195 109.6 59.0889 109.261 59.2019 108.859C59.3077 108.456 59.3642 107.998 59.3642 107.489V106.176C59.3642 105.661 59.3077 105.202 59.2019 104.8C59.0889 104.398 58.9266 104.059 58.6936 103.776C58.4678 103.494 58.1713 103.282 57.8184 103.134C57.4584 102.986 57.0349 102.915 56.5478 102.915H55.0584V102.908Z" fill="white"></path><path d="M71.0745 114.343H66.5781V99.2871H71.0745V114.343Z" fill="white"></path><path d="M82.5313 99.2945C83.2724 99.478 83.9289 99.7603 84.4865 100.141C85.0441 100.523 85.4888 101.003 85.8206 101.589C86.1524 102.174 86.3218 102.866 86.3359 103.671V103.925H82.1289V103.84C82.1289 103.643 82.0936 103.452 82.0301 103.268C81.9666 103.085 81.8607 102.923 81.7125 102.781C81.5642 102.64 81.3807 102.527 81.1548 102.443C80.9289 102.358 80.6537 102.316 80.329 102.316C79.7078 102.316 79.2419 102.414 78.9384 102.612C78.6278 102.81 78.4796 103.036 78.4796 103.304C78.4796 103.586 78.5996 103.819 78.8325 103.988C79.0655 104.158 79.376 104.306 79.7572 104.419C80.1384 104.539 80.576 104.645 81.0701 104.737C81.5572 104.836 82.0583 104.948 82.5736 105.083C83.0889 105.217 83.5901 105.386 84.0842 105.584C84.5783 105.781 85.0159 106.05 85.4112 106.374C85.7994 106.699 86.1171 107.108 86.3571 107.588C86.597 108.068 86.7241 108.661 86.7382 109.36C86.7382 110.292 86.5829 111.089 86.2724 111.76C85.9618 112.424 85.5312 112.974 84.9806 113.398C84.43 113.821 83.7736 114.132 83.0254 114.329C82.2771 114.527 81.4583 114.626 80.5831 114.626C79.6019 114.626 78.6913 114.548 77.8514 114.393C77.0114 114.238 76.2773 113.955 75.6561 113.553C75.035 113.151 74.555 112.6 74.202 111.908C73.8491 111.217 73.6797 110.334 73.6797 109.261H77.929C77.929 109.671 77.9855 109.995 78.0843 110.242C78.1902 110.49 78.3384 110.68 78.5361 110.821C78.7337 110.962 78.9666 111.054 79.2419 111.097C79.5172 111.146 79.8278 111.167 80.1737 111.167C80.3784 111.167 80.5972 111.16 80.8301 111.139C81.0631 111.118 81.2748 111.082 81.4725 111.019C81.6701 110.955 81.8324 110.857 81.9595 110.722C82.0866 110.588 82.1501 110.405 82.1501 110.165C82.1501 109.897 82.0301 109.678 81.7972 109.515C81.5642 109.353 81.2536 109.212 80.8654 109.092C80.4772 108.972 80.0395 108.866 79.5384 108.767C79.0443 108.668 78.5361 108.548 78.0278 108.407C77.5125 108.266 77.0114 108.083 76.5173 107.871C76.0232 107.652 75.5785 107.37 75.1902 107.024C74.802 106.678 74.4914 106.247 74.2585 105.739C74.0256 105.231 73.9056 104.61 73.9056 103.876C73.9056 103 74.075 102.252 74.4208 101.645C74.7667 101.031 75.2255 100.537 75.7973 100.156C76.3761 99.7745 77.0396 99.4992 77.7949 99.3227C78.5502 99.1462 79.3478 99.0615 80.1737 99.0615C80.9995 99.0615 81.8042 99.1533 82.5524 99.3368L82.5313 99.2945Z" fill="white"></path><path d="M98.3913 99.4425C99.2172 99.7178 99.9231 100.134 100.509 100.678C101.095 101.221 101.547 101.899 101.871 102.704C102.196 103.508 102.351 104.44 102.351 105.492H98.0666C98.0666 105.054 98.0172 104.666 97.9114 104.313C97.8055 103.967 97.6502 103.664 97.4384 103.417C97.2337 103.169 96.9725 102.972 96.669 102.838C96.3655 102.704 96.0126 102.633 95.6102 102.633C95.1373 102.633 94.7279 102.718 94.3961 102.887C94.0644 103.057 93.7891 103.297 93.5773 103.6C93.3656 103.904 93.2103 104.271 93.1185 104.701C93.0267 105.132 92.9773 105.598 92.9773 106.113V107.511C92.9773 108.026 93.0267 108.492 93.1256 108.922C93.2244 109.353 93.3797 109.72 93.5914 110.023C93.8032 110.327 94.0714 110.567 94.4032 110.736C94.7349 110.906 95.1232 110.991 95.582 110.991C96.4714 110.991 97.1278 110.743 97.5655 110.256C98.0031 109.769 98.2219 109.092 98.2219 108.231H102.372C102.372 109.261 102.224 110.179 101.921 110.969C101.617 111.767 101.18 112.43 100.608 112.967C100.036 113.503 99.3301 113.913 98.4972 114.188C97.6643 114.463 96.7114 114.597 95.6526 114.597C93.2667 114.597 91.4597 113.941 90.2386 112.628C89.0174 111.315 88.4033 109.374 88.4033 106.798C88.4033 104.221 89.0174 102.287 90.2386 100.974C91.4597 99.6613 93.2667 99.0049 95.6526 99.0049C96.669 99.0049 97.5937 99.1461 98.4196 99.4214L98.3913 99.4425Z" fill="white"></path><path d="M114.909 99.5205C115.848 99.8522 116.639 100.346 117.288 100.996C117.93 101.645 118.425 102.457 118.763 103.431C119.102 104.405 119.272 105.527 119.272 106.812C119.272 108.097 119.102 109.233 118.763 110.207C118.425 111.181 117.93 111.993 117.288 112.643C116.646 113.292 115.848 113.786 114.909 114.118C113.97 114.45 112.905 114.612 111.712 114.612C110.519 114.612 109.46 114.45 108.521 114.118C107.582 113.786 106.792 113.292 106.149 112.643C105.507 111.993 105.013 111.181 104.674 110.207C104.335 109.233 104.166 108.104 104.166 106.812C104.166 105.52 104.335 104.405 104.674 103.431C105.013 102.457 105.5 101.645 106.149 100.996C106.792 100.346 107.582 99.8522 108.521 99.5205C109.46 99.1887 110.519 99.0264 111.712 99.0264C112.905 99.0264 113.97 99.1887 114.909 99.5205ZM110.42 102.895C110.053 103.064 109.749 103.304 109.502 103.607C109.255 103.911 109.072 104.278 108.952 104.709C108.832 105.139 108.768 105.605 108.768 106.12V107.518C108.768 108.033 108.832 108.499 108.952 108.93C109.072 109.36 109.255 109.727 109.502 110.031C109.749 110.334 110.053 110.574 110.42 110.744C110.787 110.913 111.218 110.998 111.712 110.998C112.206 110.998 112.643 110.913 113.011 110.744C113.378 110.574 113.688 110.334 113.935 110.031C114.182 109.727 114.366 109.36 114.493 108.93C114.613 108.499 114.676 108.033 114.676 107.518V106.12C114.676 105.605 114.613 105.139 114.493 104.709C114.373 104.278 114.182 103.918 113.935 103.607C113.688 103.304 113.378 103.064 113.011 102.895C112.636 102.725 112.206 102.64 111.712 102.64C111.218 102.64 110.787 102.725 110.42 102.895Z" fill="white"></path><path d="M129.825 114.343H124.622L119.66 99.2871H124.453L127.262 109.353H127.34L130.171 99.2871H134.752L129.818 114.343H129.825Z" fill="white"></path><path d="M163.889 105.244C163.776 105.66 163.606 106.048 163.38 106.416C163.154 106.776 162.872 107.107 162.533 107.397C162.194 107.686 161.799 107.919 161.347 108.096L164.467 114.399H159.406L156.915 108.907H155.242V114.399H150.738V99.3428H159.336C160.112 99.3428 160.797 99.4698 161.39 99.7239C161.983 99.978 162.477 100.317 162.879 100.74C163.274 101.164 163.578 101.651 163.776 102.209C163.973 102.766 164.072 103.345 164.072 103.959C164.072 104.404 164.016 104.827 163.903 105.244H163.889ZM159.364 103.606C159.3 103.437 159.209 103.289 159.089 103.169C158.969 103.049 158.835 102.95 158.686 102.886C158.531 102.816 158.369 102.787 158.199 102.787H155.235V105.569H158.199C158.369 105.569 158.531 105.533 158.686 105.463C158.842 105.392 158.976 105.293 159.089 105.166C159.209 105.039 159.293 104.891 159.364 104.721C159.428 104.552 159.463 104.369 159.463 104.164C159.463 103.959 159.428 103.783 159.364 103.606Z" fill="white"></path><path d="M148.959 112.006C148.938 111.766 148.854 111.696 148.578 111.689C148.557 111.689 148.529 111.689 148.508 111.689H143.856C143.673 111.689 143.482 111.661 143.306 111.618C142.614 111.442 141.971 111.138 141.371 110.771L141.4 110.792C141.4 110.792 141.329 110.75 141.273 110.715C141.251 110.701 141.23 110.694 141.216 110.679C141.174 110.651 141.131 110.616 141.089 110.574C140.863 110.397 140.567 110.164 140.383 110.016C140.355 110.009 140.327 110.002 140.313 109.988C140.313 109.988 140.313 109.981 140.299 109.974C140.362 109.945 140.475 109.903 140.496 109.896C141.809 109.43 143.122 108.957 144.442 108.491C144.548 108.456 144.668 108.449 144.774 108.449C146.115 108.449 147.456 108.449 148.797 108.449C149.087 108.449 149.199 108.343 149.207 108.061C149.207 107.595 149.207 107.129 149.207 106.663C149.207 106.409 149.087 106.282 148.818 106.282C146.298 106.282 143.771 106.282 141.251 106.282C140.99 106.282 140.87 106.395 140.87 106.663C140.877 107.122 140.87 107.574 140.87 108.032C140.87 108.371 140.948 108.449 141.294 108.449C141.682 108.449 142.077 108.449 142.529 108.449C142.451 108.512 142.43 108.534 142.409 108.541C141.562 108.844 140.715 109.148 139.861 109.444C139.833 109.451 139.797 109.444 139.762 109.444C138.654 108.244 138.117 106.832 138.59 105.089C139.134 103.077 140.419 101.757 142.43 101.171C142.614 101.115 142.706 101.15 142.769 101.334C142.875 101.644 143.009 101.955 143.129 102.266C143.411 102.993 143.8 103.698 143.68 104.531C143.644 104.757 143.835 104.842 144.033 104.842C144.414 104.849 144.795 104.842 145.169 104.856C145.402 104.856 145.501 104.743 145.508 104.531C145.522 104.2 145.522 103.868 145.543 103.536C145.543 103.458 145.607 103.381 145.642 103.303C145.72 103.338 145.811 103.36 145.875 103.416C146.094 103.628 146.298 103.854 146.517 104.065C146.743 104.298 146.884 104.291 147.124 104.065C147.357 103.84 147.59 103.614 147.823 103.388C148.084 103.127 148.077 103.021 147.837 102.738C147.611 102.477 147.35 102.216 147.223 101.906C146.334 99.7173 145.48 97.515 144.611 95.3127C144.442 94.8845 144.136 94.7175 143.694 94.8116C143.602 94.5857 143.517 94.3598 143.418 94.1339C143.298 93.8375 143.171 93.781 142.889 93.8939C142.338 94.1057 141.795 94.3245 141.244 94.5433C140.962 94.6563 140.906 94.7833 141.018 95.0798C141.103 95.3057 141.195 95.5386 141.28 95.7574C140.701 96.1033 140.701 96.1033 140.948 96.7456C141.146 97.2539 141.343 97.7621 141.548 98.2774C138.59 99.0679 136.543 100.833 135.562 103.705C134.602 106.529 135.11 109.162 136.882 111.597C136.967 111.618 137.044 111.668 137.087 111.745C136.974 111.809 136.889 111.936 136.889 112.077V114.004C136.889 114.166 136.988 114.301 137.129 114.357V114.385H137.256H137.27H137.489C137.489 114.385 137.553 114.399 137.588 114.399H148.501C148.536 114.399 148.571 114.399 148.607 114.385C148.614 114.385 148.628 114.385 148.635 114.385C148.847 114.371 148.938 114.279 148.959 114.075C148.959 114.053 148.959 114.032 148.959 114.011V113.948V112.155V112.084C148.959 112.084 148.959 112.042 148.959 112.021V112.006ZM143.68 99.3432C143.68 99.7032 143.397 99.9644 143.037 99.9573C142.706 99.9503 142.423 99.6609 142.423 99.3362C142.423 99.0044 142.727 98.7009 143.066 98.7079C143.418 98.7079 143.694 98.9974 143.687 99.3503L143.68 99.3432Z" fill="white"></path><path d="M141.081 110.56C141.152 110.616 141.215 110.666 141.272 110.701C141.307 110.722 141.335 110.736 141.371 110.758L141.06 110.518C141.06 110.518 141.053 110.518 141.046 110.525C141.06 110.539 141.074 110.546 141.088 110.56H141.081Z" fill="#313131"></path><path d="M140.214 109.868C140.214 109.868 140.277 109.925 140.376 110.002C140.383 110.002 140.39 110.002 140.397 110.009L140.214 109.868Z" fill="#313131"></path><path d="M141.4 110.779L141.371 110.758C141.371 110.758 141.308 110.722 141.272 110.701C141.329 110.744 141.378 110.772 141.4 110.779Z" fill="#313131"></path><path d="M141.039 110.524C141.039 110.524 141.047 110.524 141.054 110.517L140.397 110.009C140.397 110.009 140.383 110.009 140.376 110.002C140.56 110.15 140.849 110.383 141.082 110.56C141.068 110.545 141.054 110.538 141.039 110.524Z" fill="#313131"></path></svg>