<svg xmlns="http://www.w3.org/2000/svg" width="212" height="212" viewBox="0 0 212 212" fill="none"><path d="M211.76 0H0V211.76H211.76V0Z" fill="#36363C"></path><g clip-path="url(#clip0_3006_124)"><path d="M35 97.5302C36.4 97.3202 38.07 97.1602 39.89 97.1602C43.2 97.1602 45.55 97.9302 47.11 99.3802C48.7 100.83 49.62 102.9 49.62 105.78C49.62 108.66 48.72 111.07 47.06 112.71C45.39 114.38 42.64 115.27 39.18 115.27C37.54 115.27 36.17 115.19 35 115.06V97.5302ZM37.3 113.29C37.88 113.4 38.73 113.42 39.63 113.42C44.55 113.42 47.22 110.67 47.22 105.86C47.25 101.65 44.87 98.9802 40 98.9802C38.81 98.9802 37.91 99.0902 37.3 99.2202V113.29Z" fill="white"></path><path d="M67.84 106.02C67.84 112.16 64.11 115.41 59.56 115.41C55.01 115.41 51.55 111.76 51.55 106.37C51.55 100.71 55.07 97.0098 59.83 97.0098C64.59 97.0098 67.84 100.74 67.84 106.03V106.02ZM54.01 106.31C54.01 110.12 56.0701 113.53 59.7001 113.53C63.3301 113.53 65.41 110.17 65.41 106.13C65.41 102.59 63.56 98.8798 59.72 98.8798C55.88 98.8798 54.01 102.4 54.01 106.31Z" fill="white"></path><path d="M85.8501 107.29C85.7201 104.8 85.5601 101.82 85.5901 99.59H85.5101C84.9001 101.68 84.1601 103.9 83.2601 106.36L80.1101 115.01H78.3601L75.4801 106.52C74.6301 104.01 73.9201 101.71 73.4201 99.59H73.3701C73.3201 101.81 73.1901 104.8 73.0301 107.47L72.5501 115.11H70.3601L71.6001 97.29H74.5401L77.5801 105.91C78.3201 108.11 78.9301 110.06 79.3801 111.91H79.4601C79.9101 110.11 80.5401 108.15 81.3401 105.91L84.5001 97.29H87.4401L88.5501 115.11H86.3001L85.8501 107.28V107.29Z" fill="white"></path><path d="M95.2299 97.29V115.11H92.9299V97.29H95.2299Z" fill="white"></path><path d="M102.83 97.8695L98.25 115.1L96.03 114.51L100.6 97.2695L102.82 97.8595L102.83 97.8695Z" fill="white"></path><path d="M109.56 99.6302L100.7 115.1L98.7 113.96L107.56 98.4902L109.56 99.6302Z" fill="white"></path><path d="M117.39 102.43L104.85 115.1L103.21 113.48L115.75 100.81L117.39 102.43Z" fill="white"></path><path d="M124.35 106.09L108.98 115.11L107.82 113.13L123.19 104.11L124.35 106.09Z" fill="white"></path><path d="M131.22 110.34L114.04 115.1L113.43 112.88L130.61 108.12L131.22 110.34Z" fill="white"></path><path d="M142.61 114.92L124.79 115.11L124.77 112.81L142.59 112.62L142.61 114.92Z" fill="white"></path><path d="M144.7 115.12V97.29H147.21L152.92 106.31C154.24 108.4 155.27 110.28 156.12 112.1L156.17 112.07C155.96 109.69 155.91 107.52 155.91 104.74V97.29H158.08V115.11H155.75L150.09 106.07C148.85 104.09 147.66 102.05 146.76 100.12L146.68 100.15C146.81 102.4 146.86 104.54 146.86 107.5V115.12H144.69H144.7Z" fill="white"></path><path d="M177.33 106.02C177.33 112.16 173.6 115.41 169.05 115.41C164.5 115.41 161.04 111.76 161.04 106.37C161.04 100.71 164.56 97.0098 169.32 97.0098C174.08 97.0098 177.33 100.74 177.33 106.03V106.02ZM163.5 106.31C163.5 110.12 165.56 113.53 169.19 113.53C172.82 113.53 174.9 110.17 174.9 106.13C174.9 102.59 173.05 98.8798 169.21 98.8798C165.37 98.8798 163.5 102.4 163.5 106.31Z" fill="white"></path></g><defs><clipPath id="clip0_3006_124"><rect width="142.33" height="18.41" fill="white" transform="translate(35 97)"></rect></clipPath></defs></svg>