<svg xmlns="http://www.w3.org/2000/svg" width="109" height="50" viewBox="0 0 109 50" fill="none"><g opacity="0.75"><path d="M0.0336255 3.4873C0.0336255 3.4873 0.0512389 3.4873 0.0512389 3.50467C0.0336255 3.52203 0.0176134 3.53782 0 3.55519C0.0176134 3.53782 0.0176134 3.50467 0.0336255 3.4873C0.0218833 3.4873 0.0218833 3.4873 0.0336255 3.4873Z" fill="#2D2D2D"></path><path d="M23.7941 19.5571C24.3615 15.1875 25.0136 10.8193 25.5116 6.44966C25.7012 4.76451 25.2711 3.04383 24.0007 1.85603C22.146 0.13535 19.7934 -0.0700812 17.2865 0.0164162C17.7676 1.0652 18.1114 2.02903 18.2131 3.06082C18.6417 7.37797 18.5215 11.7137 18.3503 16.0308C18.2994 17.407 18.264 17.407 16.8564 17.2866C14.0813 17.0487 11.5267 17.8225 9.54866 19.3563C6.91386 21.3998 6.07825 24.3485 5.91946 24.9586C5.58953 26.2205 5.53094 27.5381 5.51707 27.9767C5.49548 28.6903 5.46773 29.6279 5.69591 30.7385C5.8547 31.5108 6.23705 33.3921 7.78648 34.9428C8.81943 35.9762 10.1777 36.6882 11.7903 36.9987C13.7298 37.3771 15.6708 37.2227 17.5764 36.7578C18.0235 36.6543 18.2285 36.7068 18.4351 37.1192C18.8468 37.9455 19.448 38.6499 20.1356 39.2693C21.0283 40.0771 22.0751 40.4741 23.2777 40.3876C24.1025 40.3366 24.2736 39.9582 23.7926 39.3032C23.5012 38.9078 23.3455 38.4429 23.2083 37.978C22.59 36.0349 22.4868 34.0223 22.5731 32.0266C22.7442 27.847 23.2592 23.7013 23.7926 19.5556L23.7941 19.5571ZM17.8708 24.2017C17.7167 27.1087 17.5101 30.0156 17.3035 32.9225C17.2526 33.6099 16.7886 34.0068 16.1873 34.1953C15.105 34.5227 13.9888 34.5907 12.8911 34.3157C11.3108 33.9033 10.5554 32.8715 10.3673 30.9439C10.3334 30.5145 10.3673 30.0835 10.3673 29.6542C10.3334 28.1574 10.5215 26.6947 11.226 25.337C12.2729 23.3584 14.4189 22.3096 16.6174 22.722C17.4423 22.8765 17.9217 23.3924 17.8708 24.2017Z" fill="#2D2D2D"></path><path d="M52.0636 20.4423C52.6294 16.0742 53.2831 11.7014 53.781 7.33332C53.9691 5.64662 53.539 3.92593 52.2686 2.74277C50.4139 1.02209 48.0628 0.81357 45.5544 0.901612L45.5575 0.904701C45.7286 1.28622 45.8874 1.65692 46.0216 2.02453C46.2544 2.66245 46.4162 3.29265 46.4825 3.94756C46.8356 7.52021 46.8155 11.1129 46.6984 14.6918C46.6922 14.8941 46.6845 15.1026 46.6783 15.3158C46.5935 18.0343 46.4255 21.2594 46.1403 25.0885C46.1033 25.7727 46.0632 26.4585 46.0231 27.1428C46.02 27.1938 46.0169 27.2447 46.0169 27.2911C45.6701 35.0697 46.6537 37.8561 46.7045 37.9982C46.7076 38.0013 46.7076 38.0044 46.7076 38.0044C47.1177 38.8308 47.7205 39.5366 48.4081 40.156C49.3008 40.9623 50.3476 41.3608 51.5502 41.2728C52.375 41.2218 52.5461 40.8449 52.0651 40.19C51.7722 39.7946 51.618 39.3297 51.4792 38.8647C50.8626 36.9216 50.7593 34.9075 50.8456 32.9134C51.0167 28.7337 51.5332 24.588 52.0651 20.4423H52.0636Z" fill="#2D2D2D"></path><path d="M69.8369 39.3233C68.5496 40.9575 67.2268 42.4202 65.184 42.9361C62.7466 43.5555 60.5311 42.6442 59.1914 40.5281C57.423 37.7417 56.7185 34.5938 55.963 31.4459C55.499 29.5367 55.3448 27.5411 54.503 25.717C54.2116 25.0976 53.9017 24.4952 53.5579 23.8078C55.24 23.4464 56.9235 23.102 58.6394 23.258C59.8929 23.3784 60.6313 24.5647 60.7855 26.3719C61.0939 29.9677 61.4546 33.562 62.3303 37.0713C62.4675 37.6042 62.6217 38.1201 62.8113 38.619C63.3093 39.9087 63.7903 40.0987 65.0437 39.4793C67.5167 38.2745 68.8209 35.729 68.2891 33.0291C67.7217 30.1561 66.8121 27.3867 65.2503 24.8752C64.9589 24.4102 65.147 24.3067 65.5247 24.1878C66.8475 23.7924 68.1688 23.4819 69.5425 23.397C70.7789 23.3275 71.2245 23.6039 71.741 24.7392C72.5473 26.5279 72.8047 28.4725 73.1316 30.3816C73.5602 32.9101 73.7159 35.5082 74.3341 38.0027C74.4883 38.6561 74.5577 39.5859 75.2792 39.7064C75.9653 39.8269 76.4124 39.019 76.7731 38.4676C78.0435 36.455 78.9192 34.2354 79.7085 32.0004C81.2364 27.7512 82.627 23.451 83.623 19.0474C84.1379 16.7938 83.8465 14.5928 82.6779 12.5802C82.4035 12.0982 82.4204 11.9268 82.9693 11.7893C84.2921 11.4619 85.5794 10.929 86.987 11.1529C89.5447 11.5823 90.4559 12.7531 90.2493 15.3682C90.0781 17.6387 89.5802 19.8413 88.9265 22.0084C87.2953 27.4438 85.2171 32.6908 82.2478 37.5594C81.1655 39.331 79.8781 40.9312 78.4012 42.3754C76.1009 44.629 73.3012 44.422 71.465 41.807C70.8807 41.0502 70.4012 40.2068 69.8339 39.3295L69.8369 39.3233Z" fill="#2D2D2D"></path><path d="M37.2617 37.6889C36.386 38.3253 35.6475 38.9107 34.8242 39.3401C34.0857 39.7185 33.3303 40.046 32.4885 40.1665C29.2262 40.6144 27.0971 39.1347 26.2908 35.9173C25.5014 32.7184 25.8267 29.484 25.8622 26.2496C25.8961 23.6871 26.2738 21.1061 25.6386 18.5436C25.5693 18.2687 25.6047 18.1142 25.947 18.0957C27.2004 18.0447 28.4538 17.9412 29.6903 18.3197C31.6483 18.9391 32.4207 20.3323 32.0429 22.3449C31.3214 26.2326 30.4812 30.0864 30.3948 34.0591C30.3948 34.3171 30.3779 34.575 30.3948 34.833C30.4288 36.6741 31.1333 37.241 32.9356 36.7946C34.1381 36.5027 35.0308 35.7968 35.6305 34.7125C37.331 31.6681 37.5361 28.3472 37.3819 24.9584C37.3125 23.5821 37.1244 22.2229 36.7976 20.8822C36.7467 20.6752 36.5401 20.3493 37.0381 20.3663C38.2576 20.4002 39.4941 20.2118 40.712 20.5377C42.4125 20.9856 43.3221 22.1209 43.3561 23.8756C43.4254 26.0952 42.8072 28.2453 42.5312 30.4293C42.1874 33.2158 41.7064 35.9852 41.7588 38.8072C41.7758 39.3061 41.8097 39.788 42.0857 40.2174C42.394 40.6824 42.172 40.8028 41.7419 40.8368C40.9171 40.9063 40.0768 40.9233 39.252 40.8368C38.3424 40.7163 37.7411 40.2344 37.5006 39.3231C37.3634 38.8242 37.2432 38.3253 37.2601 37.6889H37.2617Z" fill="#2D2D2D"></path><path d="M108.446 35.7616C108.173 35.6009 107.934 35.7307 107.739 35.9052C107.529 36.0998 107.383 36.3532 107.176 36.5648C105.963 37.8823 105.112 37.7016 104.564 35.9995C103.693 33.2547 103.274 30.4111 102.927 27.5721C102.554 24.6853 100.839 23.0866 98.1831 22.373C95.9461 21.7583 93.6813 21.9699 91.4843 22.5553C89.2519 23.1453 88.3331 24.5509 88.4549 26.7998C88.5273 28.2888 88.9605 28.5622 90.4267 28.1776C91.4597 27.9058 92.3677 27.325 93.3483 26.9574C94.853 26.3921 96.6383 27.0176 97.1794 28.3012C97.5387 29.1461 97.3783 29.4195 96.4471 29.4797C92.7748 29.716 89.5294 32.3573 88.6615 35.8141C87.8613 38.962 89.6589 41.5245 92.8241 41.7639C93.9573 41.8581 95.0442 41.5955 96.074 41.1136C98.0567 40.2008 99.4057 38.667 100.439 36.6312C100.863 37.4467 101.234 38.1665 101.792 38.7488C102.901 39.8795 104.216 40.2208 105.71 39.6926C107.301 39.1288 108.096 37.8159 108.673 36.3501C108.764 36.1771 108.679 35.8944 108.446 35.7616ZM99.0418 35.9377C98.3681 36.7563 97.5448 37.3232 96.6398 37.5363C95.3217 37.7711 94.4891 37.0112 94.4722 35.7384C94.4444 34.2062 96.0139 31.9511 97.4554 31.4321C98.3573 31.1139 98.5146 31.2081 98.7165 32.1503C98.8861 32.9056 99.0079 33.6887 99.3224 34.3838C99.5922 35.0171 99.4273 35.4666 99.0403 35.9361L99.0418 35.9377Z" fill="#2D2D2D"></path><path d="M55.6793 26.1389C55.6793 26.1389 55.6969 26.1389 55.6969 26.1562C55.6793 26.1735 55.6618 26.1907 55.6443 26.208C55.6618 26.1907 55.6618 26.1562 55.6793 26.1373C55.6676 26.1373 55.6676 26.1373 55.6793 26.1373V26.1389Z" fill="#2D2D2D"></path><path d="M19.8935 48.7471C20.5781 48.4181 21.2857 48.1385 22.0011 47.879C22.3587 47.7477 22.721 47.6319 23.0803 47.5083C23.4426 47.3925 23.8064 47.2797 24.1733 47.1762C24.5403 47.0758 24.9057 46.9662 25.2757 46.875C25.6457 46.7824 26.0157 46.6881 26.3872 46.6094C26.7603 46.5306 27.1319 46.4456 27.5065 46.3715C27.8812 46.3004 28.2573 46.2325 28.6335 46.1676L29.7682 46.0008C30.146 45.9421 30.5268 45.9097 30.9076 45.8618L31.478 45.8031L32.6235 45.7228C32.8147 45.7073 33.0058 45.6965 33.197 45.6919L34.3456 45.6517C34.7295 45.6455 35.1118 45.6579 35.4957 45.661L36.0708 45.6687C36.2619 45.6733 36.4516 45.6842 36.6427 45.6919L37.7852 45.7428C38.5452 45.783 39.3022 45.8417 40.0607 45.8896L42.3286 46.0765L44.5919 46.2865L46.8505 46.526C49.8584 46.8565 52.8632 47.1824 55.8618 47.5299C58.862 47.8682 61.8622 48.1818 64.8624 48.4382L67.1133 48.605C67.8641 48.6544 68.6134 48.6869 69.3626 48.7286C70.1119 48.761 70.8612 48.7703 71.6105 48.7934C71.9836 48.7965 72.3566 48.7873 72.7297 48.7857C73.1028 48.7795 73.4759 48.7857 73.849 48.7687C75.3399 48.6946 76.8323 48.588 78.3154 48.3872C78.6869 48.3362 79.0585 48.293 79.4285 48.2374L80.537 48.0505L81.092 47.9593L81.644 47.8497L82.7478 47.6288C85.6802 46.9832 88.5863 46.1568 91.3969 45.0308C90.7324 45.3938 90.0509 45.7289 89.3572 46.0348C88.6665 46.3483 87.9619 46.6325 87.2543 46.9075C86.9012 47.0511 86.542 47.1716 86.1843 47.3013C85.8282 47.4326 85.4659 47.55 85.1051 47.6674C84.3851 47.9146 83.6528 48.1184 82.9205 48.33C81.4482 48.7162 79.965 49.0792 78.4572 49.317C77.7064 49.4607 76.9479 49.5503 76.1909 49.6507C75.8132 49.7047 75.4308 49.7325 75.05 49.765L73.9061 49.8607C73.5237 49.887 73.1414 49.8932 72.759 49.9102C72.3767 49.9225 71.9928 49.9442 71.612 49.9488C70.8504 49.9411 70.0872 49.9442 69.3256 49.9256C68.5656 49.8978 67.8055 49.8777 67.0454 49.8422L64.7714 49.7156C61.7419 49.5256 58.7263 49.2259 55.7153 48.917C52.7028 48.6158 49.7026 48.2436 46.7009 47.9084C43.6992 47.584 40.7036 47.2118 37.7096 47.0032L36.5888 46.9337C36.4022 46.9229 36.2141 46.9075 36.0276 46.9013L35.4695 46.8843C35.0979 46.875 34.7249 46.8581 34.3518 46.855H33.234C33.0475 46.855 32.8609 46.8596 32.6744 46.8689L31.5551 46.909L30.997 46.9461C30.6239 46.9708 30.2508 46.9832 29.8792 47.0202L28.7615 47.1222C25.7844 47.4342 22.8197 47.9609 19.892 48.7471H19.8935Z" fill="#2D2D2D"></path></g></svg>