<svg xmlns="http://www.w3.org/2000/svg" width="212" height="212" viewBox="0 0 212 212" fill="none"><path d="M211.76 0H0V211.76H211.76V0Z" fill="#36363C"></path><g clip-path="url(#clip0_3006_187)"><path d="M97.7647 106.275C97.7047 105.565 97.6447 104.855 97.5547 104.155C97.4147 103.015 97.1247 101.805 96.6547 100.445C96.3047 99.4151 95.8647 98.3951 95.3047 97.3251C94.3747 95.5451 93.3047 94.0051 92.0147 92.6351C90.7847 91.3251 89.4747 90.3551 88.0347 89.6751C86.9547 89.1851 85.9047 88.9051 84.8247 88.8251C83.8847 88.7651 83.0047 88.9151 82.3447 89.0551C80.4647 89.4551 78.7547 90.3351 77.1047 91.7451C75.5647 93.0651 74.2247 94.7351 72.8947 96.9951C71.9647 98.5751 71.2047 100.295 70.6447 102.115C70.2247 103.465 69.9547 104.805 69.8447 106.115C69.8047 106.575 69.7847 107.035 69.7847 107.505V107.775C69.8147 109.805 70.1947 111.835 70.9147 113.795C71.5447 115.515 72.3947 117.055 73.4447 118.375C75.0747 120.425 77.1147 121.915 79.5047 122.795C80.9247 123.325 82.3847 123.585 83.8747 123.585C84.2247 123.585 84.5747 123.575 84.9247 123.545C86.0047 123.455 87.0947 123.205 88.1747 122.805C90.0347 122.115 91.7047 121.005 93.1347 119.515C94.8447 117.735 96.1047 115.585 96.8947 113.125C97.0347 112.685 97.1547 112.245 97.2647 111.805L97.4547 111.035L95.3447 111.475L95.0447 111.565L94.9647 111.855C94.9247 111.985 94.8947 112.115 94.8547 112.245C94.2047 114.345 93.1247 116.195 91.6347 117.735C90.3747 119.035 88.9547 119.995 87.3947 120.585C85.8247 121.175 84.1947 121.365 82.5447 121.145C80.8647 120.915 79.2947 120.295 77.8547 119.315C77.0247 118.745 76.2647 118.055 75.5247 117.195C73.7947 115.195 72.6647 112.765 72.1847 109.985C72.1247 109.615 72.0647 109.235 72.0347 108.845C74.7047 109.615 78.8547 110.435 84.3847 110.435C88.1447 110.435 92.0947 110.045 96.1147 109.285C96.5347 109.205 96.9647 109.115 97.3947 109.025L97.7547 108.945L97.7847 108.575C97.8247 108.125 97.8547 107.665 97.8647 107.145L97.7847 106.265L97.7647 106.275ZM83.7147 90.6451L83.8547 90.6651C85.1947 90.8651 86.4647 91.3251 87.7447 92.0651C88.5547 92.5351 89.3247 93.1351 90.0447 93.8451C91.2047 94.9951 92.1947 96.2951 92.9647 97.6951C93.9947 99.5551 94.7247 101.515 95.1347 103.515C95.3647 104.645 95.4947 105.735 95.5147 106.835C83.5847 109.065 75.3247 107.235 71.9747 106.205C72.0047 105.885 72.0347 105.565 72.0747 105.245C72.2947 103.685 72.7447 102.105 73.4547 100.415C74.1247 98.8251 75.0247 97.2451 76.2047 95.5951C77.4147 93.8951 78.9347 92.5551 80.7347 91.5951C81.2747 91.3051 81.8247 91.0551 82.3847 90.8051L82.6547 90.6851C82.9547 90.5451 83.3047 90.6051 83.7047 90.6651L83.7147 90.6451Z" fill="white"></path><path d="M118.525 90.415C118.975 90.415 119.195 92.345 119.195 96.215V105.115C119.195 112.895 118.355 117.695 116.665 119.535C114.855 122.245 112.135 123.595 108.505 123.595H107.625C104.625 123.595 102.095 122.115 100.045 119.145V118.475C101.355 116.545 102.105 115.575 102.275 115.575C104.605 118.545 107.105 120.025 109.765 120.025C112.855 119.945 114.985 119.005 116.145 117.195C116.255 115.305 116.305 113.135 116.305 110.675V110.235H116.095C114.485 113.045 112.185 114.455 109.185 114.455H108.075C103.885 114.455 101.145 112.225 99.8447 107.775C99.6947 106.505 99.6147 105.475 99.6147 104.665V103.555C99.6147 99.795 102.065 95.785 106.965 91.525C108.105 91.075 109.145 90.855 110.075 90.855H110.535C112.085 90.855 114.005 91.895 116.305 93.985C116.305 93.165 117.045 91.975 118.535 90.415H118.525ZM102.275 101.545C102.275 107.795 105.175 110.915 110.975 110.915C114.205 110.965 115.935 109.635 116.165 106.925C116.225 106.225 116.275 105.625 116.305 105.115V100.435C116.105 100.435 114.925 99.095 112.755 96.425C110.795 95.095 109.235 94.435 108.075 94.435C104.795 94.435 102.865 96.665 102.275 101.115V101.555V101.545Z" fill="white"></path><path d="M141.875 90.415C142.325 90.415 142.545 92.345 142.545 96.215V105.115C142.545 112.895 141.705 117.695 140.015 119.535C138.205 122.245 135.485 123.595 131.855 123.595H130.975C127.975 123.595 125.445 122.115 123.395 119.145V118.475C124.705 116.545 125.455 115.575 125.625 115.575C127.955 118.545 130.455 120.025 133.115 120.025C136.205 119.945 138.335 119.005 139.495 117.195C139.605 115.305 139.655 113.135 139.655 110.675V110.235H139.445C137.835 113.045 135.535 114.455 132.535 114.455H131.425C127.235 114.455 124.495 112.225 123.195 107.775C123.045 106.505 122.965 105.475 122.965 104.665V103.555C122.965 99.795 125.415 95.785 130.315 91.525C131.455 91.075 132.495 90.855 133.425 90.855H133.885C135.435 90.855 137.355 91.895 139.655 93.985C139.655 93.165 140.395 91.975 141.885 90.415H141.875ZM125.625 101.545C125.625 107.795 128.525 110.915 134.325 110.915C137.555 110.965 139.285 109.635 139.515 106.925C139.575 106.225 139.625 105.625 139.655 105.115V100.435C139.455 100.435 138.275 99.095 136.105 96.425C134.145 95.095 132.585 94.435 131.425 94.435C128.145 94.435 126.215 96.665 125.625 101.115V101.555V101.545Z" fill="white"></path></g><defs><clipPath id="clip0_3006_187"><rect width="72.76" height="34.78" fill="white" transform="translate(69.7847 88.8154)"></rect></clipPath></defs></svg>