<svg xmlns="http://www.w3.org/2000/svg" width="186" height="41" viewBox="0 0 186 41" fill="none"><g opacity="0.75"><path d="M15.7529 31.3645C7.06511 31.3645 0 24.333 0 15.6836C0 7.03418 7.06511 0.000331388 15.7529 0.000331388C24.4408 0.000331388 31.5059 7.03418 31.5059 15.6836C31.5059 24.333 24.4408 31.3668 15.7529 31.3668V31.3645ZM15.7529 1.94685C8.1415 1.94685 1.95749 8.10349 1.95749 15.6813C1.95749 23.259 8.1415 29.4157 15.7529 29.4157C23.3644 29.4157 29.5484 23.2405 29.5484 15.6813C29.5484 8.12201 23.3458 1.94916 15.7529 1.94916V1.94685Z" fill="#2D2D2D"></path><path d="M25.8752 16.4102C25.3498 16.424 24.8244 16.4403 24.299 16.4541C23.7527 16.468 23.2063 16.4819 22.66 16.4958C22.4717 16.5004 22.2811 16.5074 22.0928 16.512C21.658 16.5236 21.2256 16.5328 20.7909 16.5444C20.7513 16.5444 20.742 16.5328 20.742 16.4958C20.7211 15.9449 20.7072 15.3964 20.7141 14.8455C20.7211 14.2368 20.7444 13.6304 20.8048 13.024C20.8467 12.5912 20.9071 12.163 21.0094 11.7394C21.0861 11.4154 21.1838 11.0983 21.3535 10.8067C21.4302 10.6748 21.4302 10.6794 21.572 10.7164C21.9254 10.8067 22.2834 10.8437 22.6437 10.7673C22.8902 10.7164 23.111 10.61 23.2528 10.3947C23.483 10.0429 23.6504 9.661 23.7597 9.25596C23.7782 9.18189 23.7759 9.18189 23.6969 9.18189C23.1087 9.19809 22.5205 9.2143 21.9347 9.2305C21.858 9.2305 21.8533 9.22587 21.8742 9.14949C21.8812 9.12634 21.8905 9.1032 21.8975 9.08005C21.9579 8.90646 22.016 8.73287 22.0579 8.55234C22.1114 8.31857 22.1555 8.08249 22.1137 7.83947C22.0904 7.70522 22.0416 7.57561 21.9114 7.51543C21.6789 7.40896 21.4348 7.36036 21.1791 7.41359C21.0512 7.44137 20.935 7.49692 20.8327 7.57561C20.5933 7.75383 20.3794 7.95056 20.2469 8.23062C20.1097 8.52457 19.9493 8.80694 19.8028 9.09625C19.7796 9.14023 19.7563 9.15875 19.7052 9.15643C19.11 9.1356 18.5125 9.11246 17.9174 9.09625C17.3501 9.08005 16.7829 9.06848 16.2156 9.06154C15.6065 9.05459 14.9974 9.04996 14.3883 9.05228C13.649 9.05691 12.9097 9.06385 12.1705 9.10551C11.7822 9.12634 11.3963 9.15412 11.0127 9.21893C10.936 9.23281 10.9337 9.2305 10.9313 9.15412C10.9313 9.11246 10.9313 9.07079 10.9313 9.02913C10.9244 8.81157 10.9127 8.59632 10.8686 8.38107C10.829 8.19127 10.7756 8.00843 10.6454 7.85567C10.578 7.77697 10.4966 7.70985 10.3896 7.70522C10.1851 7.69365 9.98048 7.7168 9.78984 7.79549C9.38997 7.95982 9.22491 8.18202 9.23188 8.58937C9.23653 8.78842 9.26211 8.98516 9.29698 9.17958C9.31325 9.26984 9.29233 9.30225 9.19701 9.31382C8.81342 9.36705 8.43215 9.44112 8.06018 9.55453C7.85327 9.61702 7.64869 9.68646 7.472 9.81376C7.39063 9.87162 7.33019 9.94569 7.30694 10.0452C7.24882 10.2929 7.2186 10.5405 7.24882 10.7951C7.28602 11.0983 7.5092 11.2534 7.80445 11.1816C8.32056 11.052 8.83667 10.9201 9.35278 10.7882C9.42484 10.7697 9.46437 10.7974 9.46902 10.8715C9.48529 11.1354 9.50389 11.3992 9.51784 11.6631C9.53411 11.9431 9.54574 12.2255 9.55968 12.5056C9.58293 13.0425 9.60851 13.5795 9.63175 14.1165C9.64338 14.4266 9.65268 14.7368 9.66198 15.0469C9.67593 15.5769 9.69452 16.1046 9.6736 16.6347C9.66895 16.7597 9.66895 16.762 9.55039 16.7805C9.10867 16.8499 8.66463 16.917 8.22292 16.9865C7.91604 17.0351 7.60684 17.0721 7.30229 17.1346C6.75596 17.248 6.30262 17.5142 5.95157 17.9493C5.88648 18.0303 5.83301 18.1206 5.81906 18.2248C5.77954 18.5349 6.05154 18.8728 6.36539 18.9099C6.49558 18.9237 6.62112 18.9122 6.74666 18.8728C7.05586 18.7779 7.36506 18.6853 7.67891 18.609C8.16247 18.4932 8.65301 18.4076 9.14122 18.3127C9.28071 18.2849 9.4202 18.2641 9.55736 18.241C9.60153 18.234 9.6271 18.241 9.62478 18.2942C9.62245 18.3613 9.63175 18.4307 9.63175 18.4979C9.6364 18.933 9.61548 19.3658 9.54574 19.7963C9.49924 20.0787 9.43647 20.3564 9.31093 20.6157C9.17144 20.9003 8.97848 21.1225 8.65068 21.1989C8.48562 21.2383 8.31591 21.236 8.14852 21.2128C7.70216 21.148 7.31391 20.9374 6.92799 20.7106C6.89777 20.9513 6.85593 21.1897 6.87452 21.4373C6.91172 21.9002 7.14885 22.2219 7.59987 22.3469C8.28336 22.5367 8.94826 22.4673 9.58758 22.1664C9.95025 21.9951 10.2525 21.7567 10.4385 21.3887C10.6314 21.0068 10.7802 20.6133 10.829 20.1875C10.8732 19.794 10.8802 19.4005 10.8918 19.0047C10.9034 18.6784 10.9104 18.3521 10.9151 18.0257C10.9151 17.9864 10.9337 17.9678 10.9662 17.9586C10.9894 17.9516 11.015 17.9447 11.0383 17.9424C11.4521 17.9007 11.8636 17.8567 12.2774 17.8197C12.7098 17.7827 13.1422 17.7526 13.577 17.7271C14.1372 17.6924 14.6975 17.667 15.2578 17.6577C16.0971 17.6438 16.9363 17.6484 17.7733 17.7294C18.1708 17.7665 18.5637 17.8197 18.9543 17.9053C19.0194 17.9192 19.0542 17.9493 19.0612 18.0211C19.0891 18.3011 19.1007 18.5812 19.1193 18.8612C19.1449 19.2107 19.1635 19.5625 19.1867 19.9144C19.2146 20.3356 19.2472 20.7545 19.2681 21.1758C19.2867 21.56 19.3169 21.9419 19.3681 22.3238C19.4378 22.8399 19.6029 23.3213 19.8656 23.7727C20.0725 24.1268 20.3584 24.3467 20.7723 24.4045C21.1303 24.4555 21.4418 24.3282 21.6324 24.0226C21.7998 23.7542 21.8696 23.4556 21.8882 23.1454C21.9044 22.8654 21.8789 22.583 21.851 22.3029C21.8277 22.0831 21.8045 21.8632 21.7464 21.6503C21.5557 20.9652 21.3628 20.2824 21.1861 19.595C21.0768 19.1737 20.9675 18.7525 20.8978 18.322C20.8722 18.1646 20.9048 18.1299 21.0536 18.1715C21.4069 18.271 21.7696 18.3034 22.1323 18.3521C22.4508 18.3937 22.7716 18.4192 23.0948 18.4354C23.4481 18.4539 23.8015 18.44 24.1502 18.3845C24.5268 18.3243 24.8314 18.1275 25.1011 17.866C25.2801 17.6947 25.4126 17.491 25.5358 17.2781C25.6846 17.0212 25.8311 16.7597 25.9287 16.4773C25.9543 16.4032 25.952 16.4009 25.8752 16.4032V16.4102ZM19.3286 10.6609C19.3169 10.8946 19.3076 11.1284 19.2983 11.3622C19.2774 12.0079 19.2542 12.6514 19.2356 13.2971C19.2146 14.0077 19.1984 14.7182 19.1821 15.4311C19.1728 15.769 19.1681 16.1093 19.1612 16.4472C19.1612 16.4865 19.1565 16.4981 19.11 16.4912C18.9264 16.4657 18.7427 16.4565 18.5567 16.4518C17.7361 16.424 16.9154 16.4403 16.0947 16.4518C15.6065 16.4588 15.1183 16.4727 14.6301 16.4865C13.9536 16.5051 13.2771 16.5282 12.6005 16.549C12.1658 16.5629 11.7334 16.5814 11.2986 16.5953C11.2126 16.5976 11.1289 16.6 11.0429 16.6069C11.0011 16.6092 10.9894 16.5976 10.9894 16.556C10.9894 16.3569 10.9825 16.1602 10.9801 15.9611C10.9732 15.3131 10.9685 14.6673 10.9639 14.0193C10.9639 13.8896 10.9639 13.7577 10.9639 13.6281H10.9522C10.9522 13.0772 10.9522 12.5287 10.9522 11.9778C10.9522 11.5612 10.9476 11.1469 10.9429 10.7303C10.9429 10.6771 10.9569 10.6562 11.0104 10.6493C11.4335 10.5822 11.8589 10.5243 12.2867 10.4803C12.6773 10.441 13.0678 10.4109 13.4607 10.3878C14.3837 10.3322 15.309 10.3183 16.2319 10.3322C16.7899 10.3392 17.3478 10.36 17.9058 10.3947C18.3359 10.4202 18.7683 10.4456 19.196 10.5058C19.3565 10.5266 19.3355 10.4919 19.3262 10.6632L19.3286 10.6609Z" fill="#2D2D2D"></path><path d="M25.8752 16.4102C25.3498 16.424 24.8244 16.4403 24.299 16.4541C23.7527 16.468 23.2063 16.4819 22.66 16.4958C22.4717 16.5004 22.2811 16.5074 22.0928 16.512C21.658 16.5236 21.2256 16.5328 20.7909 16.5444C20.7513 16.5444 20.742 16.5328 20.742 16.4958C20.7211 15.9449 20.7072 15.3964 20.7141 14.8455C20.7211 14.2368 20.7444 13.6304 20.8048 13.024C20.8467 12.5912 20.9071 12.163 21.0094 11.7394C21.0861 11.4154 21.1838 11.0983 21.3535 10.8067C21.4302 10.6748 21.4302 10.6794 21.572 10.7164C21.9254 10.8067 22.2834 10.8437 22.6437 10.7673C22.8902 10.7164 23.111 10.61 23.2528 10.3947C23.483 10.0429 23.6504 9.661 23.7597 9.25596C23.7782 9.18189 23.7759 9.18189 23.6969 9.18189C23.1087 9.19809 22.5205 9.2143 21.9347 9.2305C21.858 9.2305 21.8533 9.22587 21.8742 9.14949C21.8812 9.12634 21.8905 9.1032 21.8975 9.08005C21.9579 8.90646 22.016 8.73287 22.0579 8.55234C22.1114 8.31857 22.1555 8.08249 22.1137 7.83947C22.0904 7.70522 22.0416 7.57561 21.9114 7.51543C21.6789 7.40896 21.4348 7.36036 21.1791 7.41359C21.0512 7.44137 20.935 7.49692 20.8327 7.57561C20.5933 7.75383 20.3794 7.95056 20.2469 8.23062C20.1097 8.52457 19.9493 8.80694 19.8028 9.09625C19.7796 9.14023 19.7563 9.15875 19.7052 9.15643C19.11 9.1356 18.5125 9.11246 17.9174 9.09625C17.3501 9.08005 16.7829 9.06848 16.2156 9.06154C15.6065 9.05459 14.9974 9.04996 14.3883 9.05228C13.649 9.05691 12.9097 9.06385 12.1705 9.10551C11.7822 9.12634 11.3963 9.15412 11.0127 9.21893C10.936 9.23281 10.9337 9.2305 10.9313 9.15412C10.9313 9.11246 10.9313 9.07079 10.9313 9.02913C10.9244 8.81157 10.9127 8.59632 10.8686 8.38107C10.829 8.19127 10.7756 8.00843 10.6454 7.85567C10.578 7.77697 10.4966 7.70985 10.3896 7.70522C10.1851 7.69365 9.98048 7.7168 9.78984 7.79549C9.38997 7.95982 9.22491 8.18202 9.23188 8.58937C9.23653 8.78842 9.26211 8.98516 9.29698 9.17958C9.31325 9.26984 9.29233 9.30225 9.19701 9.31382C8.81342 9.36705 8.43215 9.44112 8.06018 9.55453C7.85327 9.61702 7.64869 9.68646 7.472 9.81376C7.39063 9.87162 7.33019 9.94569 7.30694 10.0452C7.24882 10.2929 7.2186 10.5405 7.24882 10.7951C7.28602 11.0983 7.5092 11.2534 7.80445 11.1816C8.32056 11.052 8.83667 10.9201 9.35278 10.7882C9.42484 10.7697 9.46437 10.7974 9.46902 10.8715C9.48529 11.1354 9.50389 11.3992 9.51784 11.6631C9.53411 11.9431 9.54574 12.2255 9.55968 12.5056C9.58293 13.0425 9.60851 13.5795 9.63175 14.1165C9.64338 14.4266 9.65268 14.7368 9.66198 15.0469C9.67593 15.5769 9.69452 16.1046 9.6736 16.6347C9.66895 16.7597 9.66895 16.762 9.55039 16.7805C9.10867 16.8499 8.66463 16.917 8.22292 16.9865C7.91604 17.0351 7.60684 17.0721 7.30229 17.1346C6.75596 17.248 6.30262 17.5142 5.95157 17.9493C5.88648 18.0303 5.83301 18.1206 5.81906 18.2248C5.77954 18.5349 6.05154 18.8728 6.36539 18.9099C6.49558 18.9237 6.62112 18.9122 6.74666 18.8728C7.05586 18.7779 7.36506 18.6853 7.67891 18.609C8.16247 18.4932 8.65301 18.4076 9.14122 18.3127C9.28071 18.2849 9.4202 18.2641 9.55736 18.241C9.60153 18.234 9.6271 18.241 9.62478 18.2942C9.62245 18.3613 9.63175 18.4307 9.63175 18.4979C9.6364 18.933 9.61548 19.3658 9.54574 19.7963C9.49924 20.0787 9.43647 20.3564 9.31093 20.6157C9.17144 20.9003 8.97848 21.1225 8.65068 21.1989C8.48562 21.2383 8.31591 21.236 8.14852 21.2128C7.70216 21.148 7.31391 20.9374 6.92799 20.7106C6.89777 20.9513 6.85593 21.1897 6.87452 21.4373C6.91172 21.9002 7.14885 22.2219 7.59987 22.3469C8.28336 22.5367 8.94826 22.4673 9.58758 22.1664C9.95025 21.9951 10.2525 21.7567 10.4385 21.3887C10.6314 21.0068 10.7802 20.6133 10.829 20.1875C10.8732 19.794 10.8802 19.4005 10.8918 19.0047C10.9034 18.6784 10.9104 18.3521 10.9151 18.0257C10.9151 17.9864 10.9337 17.9678 10.9662 17.9586C10.9894 17.9516 11.015 17.9447 11.0383 17.9424C11.4521 17.9007 11.8636 17.8567 12.2774 17.8197C12.7098 17.7827 13.1422 17.7526 13.577 17.7271C14.1372 17.6924 14.6975 17.667 15.2578 17.6577C16.0971 17.6438 16.9363 17.6484 17.7733 17.7294C18.1708 17.7665 18.5637 17.8197 18.9543 17.9053C19.0194 17.9192 19.0542 17.9493 19.0612 18.0211C19.0891 18.3011 19.1007 18.5812 19.1193 18.8612C19.1449 19.2107 19.1635 19.5625 19.1867 19.9144C19.2146 20.3356 19.2472 20.7545 19.2681 21.1758C19.2867 21.56 19.3169 21.9419 19.3681 22.3238C19.4378 22.8399 19.6029 23.3213 19.8656 23.7727C20.0725 24.1268 20.3584 24.3467 20.7723 24.4045C21.1303 24.4555 21.4418 24.3282 21.6324 24.0226C21.7998 23.7542 21.8696 23.4556 21.8882 23.1454C21.9044 22.8654 21.8789 22.583 21.851 22.3029C21.8277 22.0831 21.8045 21.8632 21.7464 21.6503C21.5557 20.9652 21.3628 20.2824 21.1861 19.595C21.0768 19.1737 20.9675 18.7525 20.8978 18.322C20.8722 18.1646 20.9048 18.1299 21.0536 18.1715C21.4069 18.271 21.7696 18.3034 22.1323 18.3521C22.4508 18.3937 22.7716 18.4192 23.0948 18.4354C23.4481 18.4539 23.8015 18.44 24.1502 18.3845C24.5268 18.3243 24.8314 18.1275 25.1011 17.866C25.2801 17.6947 25.4126 17.491 25.5358 17.2781C25.6846 17.0212 25.8311 16.7597 25.9287 16.4773C25.9543 16.4032 25.952 16.4009 25.8752 16.4032V16.4102ZM19.3286 10.6609C19.3169 10.8946 19.3076 11.1284 19.2983 11.3622C19.2774 12.0079 19.2542 12.6514 19.2356 13.2971C19.2146 14.0077 19.1984 14.7182 19.1821 15.4311C19.1728 15.769 19.1681 16.1093 19.1612 16.4472C19.1612 16.4865 19.1565 16.4981 19.11 16.4912C18.9264 16.4657 18.7427 16.4565 18.5567 16.4518C17.7361 16.424 16.9154 16.4403 16.0947 16.4518C15.6065 16.4588 15.1183 16.4727 14.6301 16.4865C13.9536 16.5051 13.2771 16.5282 12.6005 16.549C12.1658 16.5629 11.7334 16.5814 11.2986 16.5953C11.2126 16.5976 11.1289 16.6 11.0429 16.6069C11.0011 16.6092 10.9894 16.5976 10.9894 16.556C10.9894 16.3569 10.9825 16.1602 10.9801 15.9611C10.9732 15.3131 10.9685 14.6673 10.9639 14.0193C10.9639 13.8896 10.9639 13.7577 10.9639 13.6281H10.9522C10.9522 13.0772 10.9522 12.5287 10.9522 11.9778C10.9522 11.5612 10.9476 11.1469 10.9429 10.7303C10.9429 10.6771 10.9569 10.6562 11.0104 10.6493C11.4335 10.5822 11.8589 10.5243 12.2867 10.4803C12.6773 10.441 13.0678 10.4109 13.4607 10.3878C14.3837 10.3322 15.309 10.3183 16.2319 10.3322C16.7899 10.3392 17.3478 10.36 17.9058 10.3947C18.3359 10.4202 18.7683 10.4456 19.196 10.5058C19.3565 10.5266 19.3355 10.4919 19.3262 10.6632L19.3286 10.6609Z" fill="#2D2D2D"></path><path d="M116.196 18.5371V18.0927C116.196 11.6167 120.062 8.32312 126.121 8.32312C126.595 8.32312 127.032 8.33469 127.439 8.35552C129.701 8.47356 131.473 10.3344 131.473 12.5911C131.473 13.179 130.908 13.6141 130.343 13.4475C129.501 13.2021 128.608 13.0586 127.274 13.0586C124.598 13.0586 122.778 14.4265 122.778 17.646V18.2386C122.778 21.8284 124.152 23.3444 127.348 23.3444C128.571 23.3444 129.617 23.1361 130.454 22.9C131.024 22.738 131.587 23.1662 131.587 23.7541C131.587 25.902 129.975 27.7073 127.832 27.9665C127.234 28.0383 126.577 28.0799 125.863 28.0799C119.544 28.0799 116.199 24.7864 116.199 18.5325L116.196 18.5371Z" fill="#2D2D2D"></path><path d="M134.037 18.5001V18.0557C134.037 11.5426 138.238 8.32312 143.813 8.32312C150.169 8.32312 153.589 11.6537 153.589 17.8705V18.3149C153.589 24.865 149.35 28.0846 143.813 28.0846C137.419 28.0846 134.037 24.6058 134.037 18.5001ZM147.084 18.6112V17.9446C147.084 13.4313 145.707 12.6166 143.775 12.6166C141.695 12.6166 140.504 13.8757 140.504 17.7594V18.4631C140.504 22.8676 141.881 23.7541 143.85 23.7541C145.819 23.7541 147.084 22.569 147.084 18.6112Z" fill="#2D2D2D"></path><path d="M158.305 8.65641H161.837C162.76 8.65641 163.508 9.40169 163.508 10.3206H163.694C165.292 9.06145 167.151 8.32312 169.641 8.32312C171.834 8.32312 173.359 8.95267 174.214 10.4687H174.363C176.258 9.06145 178.415 8.32312 180.719 8.32312C183.99 8.32312 185.959 9.69101 185.959 13.466V26.3787C185.959 27.1148 185.359 27.7119 184.62 27.7119H180.979C180.24 27.7119 179.64 27.1148 179.64 26.3787V15.2412C179.64 13.7623 179.045 13.2068 177.522 13.2068C176.592 13.2068 175.774 13.466 174.846 13.8363C174.846 14.0215 174.884 14.1696 174.884 14.2807V26.3811C174.884 27.1171 174.284 27.7142 173.545 27.7142H169.904C169.165 27.7142 168.565 27.1171 168.565 26.3811V15.3084C168.565 14.1534 167.628 13.2137 166.47 13.2068C165.533 13.2021 164.52 13.5007 163.771 13.8363V26.3787C163.771 27.1148 163.171 27.7119 162.432 27.7119H158.754C158.015 27.7119 157.415 27.1148 157.415 26.3787V9.5475C157.415 9.05682 157.815 8.65873 158.308 8.65873L158.305 8.65641Z" fill="#2D2D2D"></path><path d="M74.5402 26.7584H74.3542C73.2011 27.6472 71.7899 28.1286 69.5232 28.1286C65.5827 28.1286 61.8304 25.6497 61.8304 18.8774V18.433C61.8304 10.809 65.9942 8.4042 72.4967 8.4042C75.512 8.4042 77.7972 8.75601 79.5618 9.27215C80.315 9.49203 80.8242 10.191 80.8242 10.9733V35.9887C80.8242 36.5002 80.408 36.9146 79.8942 36.9146C76.9394 36.9146 74.5425 34.5283 74.5425 31.5865V26.7607L74.5402 26.7584ZM74.5402 22.6501V13.0657C73.9822 12.9175 73.0523 12.6583 72.0131 12.6583C69.7092 12.6583 68.3329 13.8063 68.3329 17.8752V18.4678C68.3329 22.539 69.672 23.4255 71.7899 23.4255C73.0918 23.4255 73.945 23.0181 74.5402 22.6478V22.6501Z" fill="#2D2D2D"></path><path d="M84.6857 22.6153V10.0729C84.6857 9.3369 85.2855 8.73975 86.0248 8.73975H89.6282C90.3675 8.73975 90.9673 9.3369 90.9673 10.0729V21.2845C90.9673 22.8028 91.6369 23.356 93.3084 23.356C94.4243 23.356 95.3891 23.0227 96.2075 22.6894V10.0729C96.2075 9.3369 96.8073 8.73975 97.5466 8.73975H101.15C101.889 8.73975 102.489 9.3369 102.489 10.0729V26.9088C102.489 27.3995 102.089 27.7976 101.596 27.7976H98.6346C97.6233 27.7976 96.7445 27.1102 96.5027 26.1334H96.3167C94.6057 27.4296 92.9341 28.1309 90.5186 28.1309C86.8757 28.1309 84.6833 26.5037 84.6833 22.6177L84.6857 22.6153Z" fill="#2D2D2D"></path><path fill-rule="evenodd" clip-rule="evenodd" d="M57.2296 26.395C56.5299 26.8001 55.9649 26.9875 55.3489 27.1912C53.3658 27.8485 51.7198 27.8925 50.662 27.911C50.1645 27.918 48.7417 27.9272 46.94 27.5963C46.0635 27.4342 45.1848 27.2699 44.0921 26.8232C43.2807 26.4922 42.3996 26.0988 41.4534 25.2678C40.7118 24.6221 40.1353 23.8467 39.7772 22.9279C39.2797 21.6734 39.1751 20.3749 39.382 19.0394C39.5215 18.1646 39.8191 17.3637 40.3143 16.637C40.8746 15.806 41.6278 15.1742 42.4554 14.6187C42.7065 14.4497 42.9622 14.2831 43.218 14.1188C43.4016 14.0007 43.5876 13.8804 43.769 13.76C43.927 13.6559 43.9224 13.6397 43.762 13.5378C43.6109 13.4406 43.4574 13.348 43.304 13.2531C42.7274 12.899 42.1486 12.5449 41.6557 12.0704C41.114 11.5473 40.7165 10.9317 40.477 10.2072C40.2097 9.40638 40.1167 8.58704 40.1608 7.75381C40.2143 6.61043 40.4886 5.55964 41.035 4.62688C41.1675 4.40469 41.5069 3.85615 42.1509 3.23354C44.4617 1.00465 47.7583 0.604234 48.944 0.460733C49.6786 0.372781 51.1386 0.250111 52.9403 0.518597C53.6215 0.618121 54.5166 0.761622 55.6232 1.19907C56.3741 1.49533 57.4668 1.94203 58.5176 2.96737C58.7152 3.15947 59.6033 4.04825 60.0915 5.35827C60.1961 5.63833 60.4286 6.33732 60.224 7.0826C60.1473 7.37191 60.0566 7.45292 60.0124 7.48995C59.6474 7.7839 58.9267 7.47144 58.4502 7.26313C58.3665 7.2261 58.2897 7.19369 58.2223 7.16592C57.7969 6.99696 57.3714 6.83494 56.9437 6.67293C56.4113 6.46925 55.865 6.29566 55.3163 6.14521C54.6235 5.95542 53.9214 5.83044 53.2147 5.72165C52.2569 5.57121 51.2897 5.56427 50.3319 5.64528C49.5089 5.71471 48.6929 5.8883 47.9699 6.34658C47.4375 6.6845 47.0818 7.12889 46.947 7.77233C46.8238 8.36253 46.7959 8.9319 47.0214 9.49665C47.2492 10.0637 47.6793 10.4317 48.2117 10.7048C48.5953 10.9016 49.0928 11.1515 50.225 11.2904C50.7736 11.3598 51.5687 11.4177 54.3748 11.383H54.3957C55.0164 11.376 55.407 11.3714 55.8278 11.6214C56.5926 12.0797 56.7833 12.9962 56.8321 13.274C57.0181 14.3525 56.5182 15.5723 55.6767 15.9658C55.3442 16.1231 55.0861 16.1347 54.4445 16.1393C53.2309 16.1463 51.4036 16.1741 50.0924 16.2898C48.7069 16.4148 48.2024 16.6393 47.8769 16.7828C47.8583 16.7897 47.842 16.799 47.8258 16.8059C47.1888 17.086 46.6936 17.5142 46.4588 18.1738C46.2356 18.8057 46.2123 19.463 46.4169 20.1111C46.6959 20.9929 47.3678 21.5021 48.1559 21.8909C48.5511 22.083 48.9626 22.2335 49.3927 22.3307C49.7832 22.4187 50.1854 22.4927 50.583 22.5298C50.6527 22.5367 50.7201 22.5436 50.7899 22.5506H50.8015C51.3037 22.5992 51.8035 22.6478 52.3103 22.6154C53.045 22.5645 53.7796 22.4997 54.5096 22.3839C55.0048 22.3076 55.486 22.1941 55.9696 22.0715C56.4996 21.9372 57.025 21.7706 57.5388 21.5854C57.8225 21.4836 58.0921 21.3655 58.3618 21.2452C58.8082 21.0485 59.2522 20.854 59.7404 20.7406C59.9101 20.7013 60.0334 20.6781 60.1589 20.7453C60.6308 20.9906 60.4913 22.259 60.2705 23.0135C59.7009 24.9785 57.862 26.0386 57.2482 26.395L57.2413 26.3996L57.2296 26.395Z" fill="#2D2D2D"></path><path fill-rule="evenodd" clip-rule="evenodd" d="M112.265 11.1631C112.265 8.77913 111.935 8.82079 109.557 8.82079C107.485 8.82079 107.125 8.82079 107.125 11.1631C107.125 11.8204 107.125 24.1175 107.125 25.453C107.125 27.837 107.455 27.7953 109.833 27.7953C111.905 27.7953 112.265 27.7953 112.265 25.453C112.265 24.71 112.265 12.4453 112.265 11.1631Z" fill="#2D2D2D"></path><path fill-rule="evenodd" clip-rule="evenodd" d="M109.719 0.000118279C107.994 -0.0137689 106.692 1.19673 106.681 2.83079C106.667 4.54585 107.971 5.81421 109.728 5.78875C111.447 5.76329 112.697 4.54585 112.707 2.88633C112.718 1.24765 111.44 0.01632 109.719 0.00243281V0.000118279Z" fill="#2D2D2D"></path><path d="M122.411 34.9829C122.204 34.5866 121.915 34.2894 121.546 34.0913C121.177 33.8855 120.75 33.7827 120.266 33.7827C119.735 33.7827 119.262 33.9008 118.847 34.137C118.432 34.3732 118.105 34.7085 117.867 35.1429C117.636 35.5772 117.521 36.0802 117.521 36.6517C117.521 37.2232 117.636 37.73 117.867 38.172C118.105 38.6063 118.432 38.9416 118.847 39.1779C119.262 39.4141 119.735 39.5322 120.266 39.5322C120.981 39.5322 121.562 39.3341 122.008 38.9378C122.454 38.5416 122.727 38.0043 122.827 37.3261H119.816V36.2859H124.234V37.3033C124.149 37.9205 123.926 38.4882 123.565 39.0064C123.211 39.5246 122.746 39.9399 122.169 40.2523C121.6 40.5571 120.966 40.7095 120.266 40.7095C119.512 40.7095 118.824 40.5381 118.201 40.1952C117.578 39.8446 117.082 39.3607 116.713 38.7435C116.352 38.1262 116.171 37.429 116.171 36.6517C116.171 35.8744 116.352 35.1772 116.713 34.5599C117.082 33.9427 117.578 33.4626 118.201 33.1197C118.832 32.7692 119.52 32.5939 120.266 32.5939C121.119 32.5939 121.877 32.8034 122.538 33.2226C123.207 33.6341 123.692 34.2208 123.992 34.9829H122.411Z" fill="#2D2D2D"></path><path d="M137.193 40.641L135.347 37.4633H134.344V40.641H133.029V32.6968H135.797C136.412 32.6968 136.932 32.8034 137.355 33.0168C137.785 33.2302 138.104 33.5159 138.312 33.8741C138.527 34.2323 138.635 34.6323 138.635 35.0743C138.635 35.5925 138.481 36.0649 138.174 36.4917C137.874 36.9108 137.408 37.1966 136.778 37.349L138.762 40.641H137.193ZM134.344 36.4231H135.797C136.289 36.4231 136.659 36.3012 136.905 36.0573C137.158 35.8135 137.285 35.4858 137.285 35.0743C137.285 34.6628 137.162 34.3428 136.916 34.1141C136.67 33.8779 136.297 33.7598 135.797 33.7598H134.344V36.4231Z" fill="#2D2D2D"></path><path d="M151.472 40.721C150.726 40.721 150.037 40.5495 149.407 40.2066C148.784 39.8561 148.288 39.3722 147.919 38.7549C147.557 38.1301 147.377 37.429 147.377 36.6517C147.377 35.8744 147.557 35.1772 147.919 34.5599C148.288 33.9427 148.784 33.4626 149.407 33.1197C150.037 32.7692 150.726 32.5939 151.472 32.5939C152.225 32.5939 152.914 32.7692 153.536 33.1197C154.167 33.4626 154.663 33.9427 155.024 34.5599C155.386 35.1772 155.567 35.8744 155.567 36.6517C155.567 37.429 155.386 38.1301 155.024 38.7549C154.663 39.3722 154.167 39.8561 153.536 40.2066C152.914 40.5495 152.225 40.721 151.472 40.721ZM151.472 39.5894C152.002 39.5894 152.475 39.4712 152.89 39.235C153.306 38.9912 153.629 38.6482 153.859 38.2063C154.098 37.7567 154.217 37.2385 154.217 36.6517C154.217 36.0649 154.098 35.5506 153.859 35.1086C153.629 34.6666 153.306 34.3275 152.89 34.0913C152.475 33.8551 152.002 33.7369 151.472 33.7369C150.941 33.7369 150.468 33.8551 150.053 34.0913C149.638 34.3275 149.311 34.6666 149.072 35.1086C148.842 35.5506 148.726 36.0649 148.726 36.6517C148.726 37.2385 148.842 37.7567 149.072 38.2063C149.311 38.6482 149.638 38.9912 150.053 39.235C150.468 39.4712 150.941 39.5894 151.472 39.5894Z" fill="#2D2D2D"></path><path d="M165.662 32.6968V37.7605C165.662 38.3625 165.82 38.8159 166.135 39.1207C166.458 39.4255 166.904 39.5779 167.473 39.5779C168.05 39.5779 168.496 39.4255 168.811 39.1207C169.134 38.8159 169.296 38.3625 169.296 37.7605V32.6968H170.611V37.7376C170.611 38.3853 170.468 38.934 170.184 39.3836C169.899 39.8332 169.519 40.1685 169.042 40.3895C168.565 40.6105 168.038 40.721 167.461 40.721C166.885 40.721 166.358 40.6105 165.881 40.3895C165.412 40.1685 165.039 39.8332 164.762 39.3836C164.485 38.934 164.347 38.3853 164.347 37.7376V32.6968H165.662Z" fill="#2D2D2D"></path><path d="M185.427 35.0629C185.427 35.4668 185.331 35.8478 185.138 36.2059C184.946 36.5641 184.638 36.8575 184.215 37.0861C183.793 37.3071 183.25 37.4176 182.589 37.4176H181.136V40.641H179.821V32.6968H182.589C183.204 32.6968 183.723 32.8034 184.146 33.0168C184.577 33.2226 184.896 33.5045 185.104 33.8627C185.319 34.2208 185.427 34.6209 185.427 35.0629ZM182.589 36.3545C183.089 36.3545 183.462 36.244 183.708 36.023C183.954 35.7944 184.077 35.4744 184.077 35.0629C184.077 34.1942 183.581 33.7598 182.589 33.7598H181.136V36.3545H182.589Z" fill="#2D2D2D"></path></g></svg>