<svg xmlns="http://www.w3.org/2000/svg" width="212" height="212" viewBox="0 0 212 212" fill="none"><path d="M211.76 0H0V211.76H211.76V0Z" fill="#36363C"></path><g clip-path="url(#clip0_3006_171)"><path d="M67.7598 84.4697V114.56H67.2598V84.4697H67.7598Z" fill="white"></path><path d="M88.5299 114.56C88.3299 114.56 88.2399 114.45 88.2399 114.23L88.1199 110.91C87.5399 111.52 86.9499 112.08 86.3699 112.57C85.7799 113.06 85.1599 113.48 84.5099 113.82C83.8599 114.16 83.1499 114.43 82.3999 114.61C81.6499 114.8 80.8099 114.89 79.8899 114.89C79.2799 114.89 78.6599 114.8 78.0399 114.61C77.4199 114.42 76.8599 114.12 76.3599 113.71C75.8599 113.3 75.4499 112.77 75.1399 112.12C74.8299 111.47 74.6699 110.68 74.6699 109.75C74.6699 108.82 74.9399 108 75.4699 107.27C76.0099 106.54 76.8299 105.92 77.9399 105.4C79.0499 104.89 80.4399 104.48 82.1299 104.18C83.8199 103.88 85.8099 103.7 88.1299 103.65V101.02C88.1299 99.95 88.0099 98.99 87.7699 98.14C87.5299 97.29 87.1899 96.57 86.7299 95.99C86.2699 95.41 85.6899 94.96 84.9999 94.64C84.3099 94.32 83.4999 94.17 82.5799 94.17C81.8599 94.17 81.1999 94.25 80.6199 94.4C80.0399 94.55 79.5099 94.74 79.0499 94.96C78.5899 95.18 78.1899 95.43 77.8499 95.69C77.5099 95.95 77.2099 96.2 76.9599 96.42C76.7099 96.64 76.5099 96.83 76.3499 96.98C76.1899 97.13 76.0899 97.21 76.0199 97.21C75.9599 97.21 75.8999 97.17 75.8099 97.09L75.7299 97.01C76.7299 95.95 77.7699 95.14 78.8399 94.59C79.9099 94.03 81.1599 93.75 82.5799 93.75C83.6199 93.75 84.5299 93.92 85.2899 94.25C86.0499 94.58 86.6799 95.06 87.1799 95.69C87.6799 96.32 88.0499 97.08 88.2899 97.98C88.5299 98.88 88.6399 99.89 88.6399 101.02V114.56H88.5599H88.5299ZM79.8799 114.47C80.8399 114.47 81.7099 114.36 82.4899 114.14C83.2699 113.92 83.9899 113.62 84.6399 113.24C85.2899 112.86 85.8999 112.43 86.4699 111.93C87.0399 111.43 87.5799 110.92 88.1099 110.37V104.06C83.7199 104.2 80.4699 104.75 78.3399 105.7C76.2099 106.65 75.1499 108 75.1499 109.74C75.1499 110.56 75.2899 111.27 75.5599 111.86C75.8299 112.45 76.1899 112.94 76.6299 113.32C77.0699 113.7 77.5699 113.99 78.1299 114.18C78.6899 114.37 79.2799 114.46 79.8799 114.46V114.47Z" fill="white"></path><path d="M106.29 95.8797C106.23 95.9597 106.16 95.9997 106.08 95.9997C105.97 95.9997 105.8 95.9097 105.59 95.7197C105.37 95.5297 105.06 95.3197 104.65 95.0897C104.24 94.8597 103.72 94.6497 103.09 94.4497C102.46 94.2497 101.69 94.1597 100.77 94.1597C99.9098 94.1597 99.1198 94.2897 98.3998 94.5597C97.6798 94.8197 97.0698 95.1797 96.5498 95.6097C96.0298 96.0497 95.6298 96.5497 95.3498 97.1197C95.0698 97.6897 94.9198 98.2897 94.9198 98.9197C94.9198 99.6597 95.0898 100.27 95.4398 100.77C95.7898 101.27 96.2398 101.68 96.8098 102.02C97.3698 102.36 98.0198 102.65 98.7398 102.89C99.4598 103.13 100.2 103.36 100.95 103.59C101.7 103.82 102.44 104.06 103.16 104.32C103.88 104.58 104.53 104.9 105.09 105.29C105.65 105.68 106.11 106.16 106.46 106.72C106.81 107.28 106.98 107.98 106.98 108.82C106.98 109.66 106.83 110.44 106.53 111.18C106.23 111.92 105.8 112.56 105.22 113.1C104.65 113.64 103.95 114.07 103.12 114.39C102.29 114.71 101.35 114.87 100.29 114.87C99.5498 114.87 98.8898 114.81 98.3198 114.69C97.7398 114.57 97.1998 114.41 96.7098 114.2C96.2198 113.99 95.7598 113.73 95.3298 113.43C94.8998 113.13 94.4798 112.78 94.0698 112.41L94.1998 112.28C94.1998 112.28 94.2798 112.21 94.2998 112.19C94.3298 112.17 94.3798 112.16 94.4498 112.16C94.5598 112.16 94.7398 112.28 94.9898 112.52C95.2398 112.76 95.5898 113.02 96.0398 113.31C96.4898 113.6 97.0598 113.87 97.7498 114.1C98.4398 114.34 99.2898 114.45 100.29 114.45C101.29 114.45 102.18 114.3 102.95 114.01C103.72 113.72 104.37 113.32 104.9 112.81C105.43 112.3 105.83 111.71 106.1 111.03C106.37 110.35 106.51 109.63 106.51 108.85C106.51 108.07 106.34 107.4 105.99 106.88C105.64 106.36 105.19 105.92 104.62 105.55C104.06 105.19 103.41 104.88 102.69 104.64C101.97 104.4 101.23 104.16 100.48 103.94C99.7298 103.72 98.9898 103.48 98.2698 103.23C97.5498 102.98 96.8998 102.67 96.3398 102.3C95.7798 101.93 95.3198 101.47 94.9698 100.93C94.6198 100.39 94.4498 99.7097 94.4498 98.8997C94.4498 98.2197 94.5998 97.5697 94.9098 96.9497C95.2198 96.3297 95.6498 95.7797 96.2098 95.2997C96.7698 94.8197 97.4298 94.4397 98.2098 94.1497C98.9798 93.8597 99.8398 93.7197 100.77 93.7197C101.93 93.7197 102.94 93.8797 103.82 94.1897C104.7 94.4997 105.55 95.0197 106.37 95.7297L106.29 95.8597V95.8797Z" fill="white"></path><path d="M124.14 95.8797C124.08 95.9597 124.01 95.9997 123.93 95.9997C123.82 95.9997 123.65 95.9097 123.44 95.7197C123.22 95.5297 122.91 95.3197 122.5 95.0897C122.09 94.8597 121.57 94.6497 120.94 94.4497C120.31 94.2497 119.54 94.1597 118.62 94.1597C117.76 94.1597 116.97 94.2897 116.25 94.5597C115.53 94.8197 114.92 95.1797 114.4 95.6097C113.88 96.0497 113.48 96.5497 113.2 97.1197C112.92 97.6897 112.77 98.2897 112.77 98.9197C112.77 99.6597 112.94 100.27 113.29 100.77C113.64 101.27 114.09 101.68 114.66 102.02C115.22 102.36 115.87 102.65 116.59 102.89C117.31 103.13 118.05 103.36 118.8 103.59C119.55 103.82 120.29 104.06 121.01 104.32C121.73 104.58 122.38 104.9 122.94 105.29C123.5 105.68 123.96 106.16 124.31 106.72C124.66 107.28 124.83 107.98 124.83 108.82C124.83 109.66 124.68 110.44 124.38 111.18C124.08 111.92 123.65 112.56 123.07 113.1C122.5 113.64 121.8 114.07 120.97 114.39C120.14 114.71 119.2 114.87 118.14 114.87C117.4 114.87 116.74 114.81 116.17 114.69C115.59 114.57 115.05 114.41 114.56 114.2C114.07 113.99 113.61 113.73 113.18 113.43C112.75 113.13 112.33 112.78 111.92 112.41L112.05 112.28C112.05 112.28 112.13 112.21 112.15 112.19C112.18 112.17 112.23 112.16 112.3 112.16C112.41 112.16 112.59 112.28 112.84 112.52C113.09 112.76 113.44 113.02 113.89 113.31C114.34 113.6 114.91 113.87 115.6 114.1C116.29 114.34 117.14 114.45 118.14 114.45C119.14 114.45 120.03 114.3 120.8 114.01C121.57 113.72 122.22 113.32 122.75 112.81C123.28 112.3 123.68 111.71 123.95 111.03C124.22 110.35 124.36 109.63 124.36 108.85C124.36 108.07 124.19 107.4 123.84 106.88C123.49 106.36 123.04 105.92 122.47 105.55C121.91 105.19 121.26 104.88 120.54 104.64C119.82 104.4 119.08 104.16 118.33 103.94C117.58 103.72 116.84 103.48 116.12 103.23C115.4 102.98 114.75 102.67 114.19 102.3C113.63 101.93 113.17 101.47 112.82 100.93C112.47 100.39 112.3 99.7097 112.3 98.8997C112.3 98.2197 112.45 97.5697 112.76 96.9497C113.07 96.3297 113.5 95.7797 114.06 95.2997C114.62 94.8197 115.28 94.4397 116.06 94.1497C116.83 93.8597 117.69 93.7197 118.62 93.7197C119.78 93.7197 120.79 93.8797 121.67 94.1897C122.55 94.4997 123.4 95.0197 124.22 95.7297L124.14 95.8597V95.8797Z" fill="white"></path><path d="M138.47 93.7497C139.54 93.7497 140.55 93.9397 141.48 94.3297C142.41 94.7097 143.23 95.2797 143.91 96.0297C144.6 96.7797 145.14 97.7097 145.53 98.7997C145.92 99.8897 146.11 101.15 146.11 102.57C146.11 102.64 146.09 102.69 146.04 102.73C145.99 102.77 145.93 102.78 145.86 102.78H130.06C130.03 102.98 130.02 103.16 130.02 103.34V103.9C130.02 105.6 130.22 107.1 130.63 108.4C131.03 109.7 131.61 110.8 132.35 111.68C133.09 112.56 133.99 113.24 135.05 113.7C136.1 114.16 137.27 114.39 138.55 114.39C139.71 114.39 140.7 114.26 141.53 114.01C142.36 113.76 143.05 113.48 143.6 113.17C144.15 112.86 144.57 112.59 144.85 112.33C145.14 112.08 145.32 111.95 145.4 111.95C145.46 111.95 145.51 111.98 145.57 112.03L145.65 112.11C145.41 112.4 145.06 112.71 144.59 113.02C144.12 113.33 143.57 113.62 142.94 113.89C142.31 114.16 141.61 114.37 140.86 114.54C140.11 114.71 139.33 114.79 138.54 114.79C137.13 114.79 135.87 114.54 134.76 114.05C133.65 113.56 132.7 112.84 131.93 111.91C131.16 110.98 130.56 109.83 130.14 108.48C129.72 107.13 129.51 105.6 129.51 103.88C129.51 102.38 129.71 101 130.12 99.7497C130.52 98.4997 131.11 97.4297 131.87 96.5397C132.64 95.6497 133.57 94.9597 134.68 94.4597C135.79 93.9597 137.04 93.7197 138.45 93.7197L138.47 93.7497ZM138.47 94.1697C137.24 94.1697 136.14 94.3697 135.16 94.7697C134.18 95.1697 133.33 95.7197 132.62 96.4397C131.91 97.1597 131.34 98.0197 130.92 99.0397C130.5 100.06 130.22 101.18 130.09 102.4H145.66C145.66 101.08 145.48 99.8997 145.12 98.8797C144.76 97.8597 144.25 96.9997 143.61 96.2997C142.96 95.5997 142.2 95.0697 141.32 94.7097C140.44 94.3497 139.49 94.1697 138.48 94.1697H138.47Z" fill="white"></path><path d="M162.87 95.8797C162.81 95.9597 162.74 95.9997 162.66 95.9997C162.55 95.9997 162.38 95.9097 162.17 95.7197C161.95 95.5297 161.64 95.3197 161.23 95.0897C160.82 94.8597 160.3 94.6497 159.67 94.4497C159.04 94.2497 158.27 94.1597 157.35 94.1597C156.49 94.1597 155.7 94.2897 154.98 94.5597C154.26 94.8197 153.65 95.1797 153.13 95.6097C152.61 96.0497 152.21 96.5497 151.93 97.1197C151.65 97.6897 151.5 98.2897 151.5 98.9197C151.5 99.6597 151.67 100.27 152.02 100.77C152.37 101.27 152.82 101.68 153.39 102.02C153.95 102.36 154.6 102.65 155.32 102.89C156.04 103.13 156.78 103.36 157.53 103.59C158.28 103.82 159.02 104.06 159.74 104.32C160.46 104.58 161.11 104.9 161.67 105.29C162.23 105.68 162.69 106.16 163.04 106.72C163.39 107.28 163.56 107.98 163.56 108.82C163.56 109.66 163.41 110.44 163.11 111.18C162.81 111.92 162.38 112.56 161.8 113.1C161.23 113.64 160.53 114.07 159.7 114.39C158.87 114.71 157.93 114.87 156.87 114.87C156.13 114.87 155.47 114.81 154.9 114.69C154.32 114.57 153.78 114.41 153.29 114.2C152.8 113.99 152.34 113.73 151.91 113.43C151.48 113.13 151.06 112.78 150.65 112.41L150.78 112.28C150.78 112.28 150.86 112.21 150.88 112.19C150.91 112.17 150.96 112.16 151.03 112.16C151.14 112.16 151.32 112.28 151.57 112.52C151.82 112.76 152.17 113.02 152.62 113.31C153.07 113.6 153.64 113.87 154.33 114.1C155.02 114.34 155.87 114.45 156.87 114.45C157.87 114.45 158.76 114.3 159.53 114.01C160.3 113.72 160.95 113.32 161.48 112.81C162.01 112.3 162.41 111.71 162.68 111.03C162.95 110.35 163.09 109.63 163.09 108.85C163.09 108.07 162.92 107.4 162.57 106.88C162.22 106.36 161.77 105.92 161.2 105.55C160.64 105.19 159.99 104.88 159.27 104.64C158.55 104.4 157.81 104.16 157.06 103.94C156.31 103.72 155.57 103.48 154.85 103.23C154.13 102.98 153.48 102.67 152.92 102.3C152.36 101.93 151.9 101.47 151.55 100.93C151.2 100.39 151.03 99.7097 151.03 98.8997C151.03 98.2197 151.18 97.5697 151.49 96.9497C151.8 96.3297 152.23 95.7797 152.79 95.2997C153.35 94.8197 154.01 94.4397 154.79 94.1497C155.56 93.8597 156.42 93.7197 157.35 93.7197C158.51 93.7197 159.52 93.8797 160.4 94.1897C161.28 94.4997 162.13 95.0197 162.95 95.7297L162.87 95.8597V95.8797Z" fill="white"></path><path d="M55.56 106.69C59.205 106.69 62.16 103.735 62.16 100.09C62.16 96.4452 59.205 93.4902 55.56 93.4902C51.9149 93.4902 48.96 96.4452 48.96 100.09C48.96 103.735 51.9149 106.69 55.56 106.69Z" stroke="white" stroke-width="0.42" stroke-miterlimit="10"></path><path d="M55.56 125.08C59.205 125.08 62.16 122.125 62.16 118.48C62.16 114.835 59.205 111.88 55.56 111.88C51.9149 111.88 48.96 114.835 48.96 118.48C48.96 122.125 51.9149 125.08 55.56 125.08Z" stroke="white" stroke-width="0.42" stroke-miterlimit="10"></path><path d="M54.6897 111.9C54.6897 111.9 52.4797 108.92 54.6897 106.71" stroke="white" stroke-width="0.42" stroke-miterlimit="10"></path><path d="M53.7501 93.7098C53.7501 93.7098 50.6401 92.7598 51.0101 90.7598" stroke="white" stroke-width="0.42" stroke-miterlimit="10"></path><path d="M53.7501 124.95C53.7501 124.95 50.6401 125.9 51.0101 127.9" stroke="white" stroke-width="0.42" stroke-miterlimit="10"></path></g><defs><clipPath id="clip0_3006_171"><rect width="114.83" height="43.47" fill="white" transform="translate(48.75 84.4697)"></rect></clipPath></defs></svg>