<svg xmlns="http://www.w3.org/2000/svg" width="212" height="212" viewBox="0 0 212 212" fill="none"><path d="M211.76 0H0V211.76H211.76V0Z" fill="#36363C"></path><g clip-path="url(#clip0_3006_159)"><path d="M59.4749 99.4554C59.4749 98.8354 59.6849 98.3054 60.1049 97.8754C60.5249 97.4454 61.0749 97.2354 61.7649 97.2354C62.4549 97.2354 63.0049 97.4454 63.4249 97.8754C63.8449 98.3054 64.0549 98.8254 64.0549 99.4554C64.0549 100.085 63.8449 100.605 63.4249 101.035C63.0049 101.465 62.4549 101.675 61.7649 101.675C61.0749 101.675 60.5249 101.465 60.1049 101.035C59.6849 100.605 59.4749 100.085 59.4749 99.4554Z" fill="white"></path><path d="M74.0949 107.165C74.0949 106.655 73.9549 106.285 73.6649 106.045C73.3749 105.805 72.9849 105.685 72.4949 105.685C72.1649 105.685 71.8449 105.725 71.5249 105.805C71.2049 105.885 70.9249 106.015 70.7049 106.175V114.715C70.5449 114.765 70.2849 114.815 69.9249 114.865C69.5749 114.915 69.2049 114.935 68.8249 114.935C68.4449 114.935 68.1349 114.915 67.8549 114.865C67.5749 114.815 67.3249 114.715 67.1249 114.565C66.9249 114.415 66.7749 114.215 66.6649 113.965C66.5549 113.715 66.5049 113.375 66.5049 112.965V105.585C66.5049 105.145 66.5949 104.785 66.7849 104.505C66.9749 104.225 67.2349 103.975 67.5549 103.745C68.1149 103.355 68.8149 103.035 69.6549 102.785C70.4949 102.535 71.4349 102.415 72.4749 102.415C74.3249 102.415 75.7549 102.825 76.7549 103.635C77.7549 104.445 78.2549 105.575 78.2549 107.015V114.715C78.0949 114.765 77.8349 114.815 77.4749 114.865C77.1249 114.915 76.7549 114.935 76.3749 114.935C75.9949 114.935 75.6849 114.915 75.4049 114.865C75.1249 114.815 74.8749 114.715 74.6749 114.565C74.4749 114.415 74.3249 114.215 74.2149 113.965C74.1049 113.715 74.0549 113.375 74.0549 112.965V107.155L74.0949 107.165Z" fill="white"></path><path d="M88.5449 114.425C88.3149 114.605 87.9749 114.755 87.5349 114.865C87.0949 114.975 86.5949 115.035 86.0349 115.035C85.3949 115.035 84.8449 114.955 84.3749 114.785C83.9049 114.625 83.5849 114.355 83.4049 113.995C83.2549 113.715 83.0849 113.325 82.8749 112.825C82.6649 112.325 82.4549 111.765 82.2249 111.155C81.9949 110.535 81.7549 109.875 81.5149 109.175C81.2649 108.465 81.0349 107.775 80.8149 107.085C80.5949 106.395 80.3949 105.735 80.2149 105.095C80.0349 104.455 79.8849 103.885 79.7749 103.395C80.0049 103.165 80.3149 102.965 80.6949 102.795C81.0849 102.625 81.5049 102.535 81.9649 102.535C82.5349 102.535 83.0149 102.655 83.3849 102.895C83.7549 103.135 84.0249 103.585 84.2049 104.235L85.1649 108.005C85.3449 108.745 85.5149 109.415 85.6849 110.015C85.8449 110.615 85.9749 111.075 86.0549 111.405H86.1749C86.4849 110.195 86.8149 108.845 87.1549 107.365C87.4949 105.885 87.8149 104.435 88.0949 103.005C88.3749 102.855 88.6849 102.745 89.0449 102.665C89.3949 102.585 89.7349 102.545 90.0649 102.545C90.6349 102.545 91.1249 102.665 91.5149 102.915C91.9049 103.165 92.1049 103.585 92.1049 104.195C92.1049 104.455 92.0449 104.835 91.9249 105.335C91.8049 105.835 91.6449 106.405 91.4549 107.035C91.2649 107.665 91.0449 108.335 90.7949 109.045C90.5449 109.755 90.2849 110.445 90.0249 111.115C89.7649 111.785 89.5049 112.415 89.2449 112.995C88.9949 113.575 88.7649 114.055 88.5649 114.435L88.5449 114.425Z" fill="white"></path><path d="M93.855 99.4554C93.855 98.8354 94.065 98.3054 94.485 97.8754C94.905 97.4454 95.455 97.2354 96.145 97.2354C96.835 97.2354 97.385 97.4454 97.805 97.8754C98.225 98.3054 98.435 98.8254 98.435 99.4554C98.435 100.085 98.225 100.605 97.805 101.035C97.385 101.465 96.835 101.675 96.145 101.675C95.455 101.675 94.905 101.465 94.485 101.035C94.065 100.605 93.855 100.085 93.855 99.4554Z" fill="white"></path><path d="M110.985 111.175C110.985 112.425 110.515 113.395 109.585 114.105C108.645 114.815 107.275 115.165 105.455 115.165C104.765 115.165 104.125 115.115 103.535 115.015C102.945 114.915 102.435 114.765 102.025 114.555C101.605 114.345 101.275 114.095 101.045 113.775C100.805 113.465 100.685 113.095 100.685 112.665C100.685 112.275 100.765 111.935 100.935 111.665C101.095 111.395 101.295 111.165 101.525 110.985C102.005 111.245 102.545 111.485 103.165 111.685C103.785 111.895 104.485 111.995 105.295 111.995C105.805 111.995 106.195 111.925 106.465 111.775C106.735 111.625 106.875 111.435 106.875 111.185C106.875 110.955 106.775 110.775 106.575 110.645C106.375 110.515 106.045 110.405 105.595 110.325L104.855 110.175C103.425 109.895 102.365 109.455 101.665 108.855C100.965 108.255 100.615 107.395 100.615 106.285C100.615 105.675 100.745 105.125 101.005 104.635C101.265 104.145 101.635 103.735 102.115 103.405C102.595 103.075 103.165 102.825 103.825 102.645C104.485 102.465 105.225 102.375 106.025 102.375C106.635 102.375 107.205 102.425 107.735 102.515C108.265 102.605 108.735 102.745 109.125 102.925C109.515 103.105 109.835 103.335 110.065 103.625C110.295 103.915 110.405 104.255 110.405 104.645C110.405 105.035 110.335 105.345 110.195 105.615C110.055 105.885 109.875 106.115 109.665 106.295C109.535 106.215 109.335 106.125 109.075 106.035C108.815 105.945 108.525 105.865 108.215 105.785C107.905 105.715 107.585 105.645 107.265 105.605C106.945 105.555 106.655 105.535 106.395 105.535C105.855 105.535 105.435 105.595 105.145 105.715C104.845 105.835 104.705 106.035 104.705 106.295C104.705 106.475 104.785 106.625 104.955 106.735C105.115 106.855 105.435 106.955 105.895 107.055L106.655 107.225C108.235 107.585 109.355 108.085 110.015 108.715C110.675 109.345 111.015 110.165 111.015 111.165L110.985 111.175Z" fill="white"></path><path d="M112.905 99.4554C112.905 98.8354 113.115 98.3054 113.535 97.8754C113.955 97.4454 114.505 97.2354 115.195 97.2354C115.885 97.2354 116.435 97.4454 116.855 97.8754C117.275 98.3054 117.485 98.8254 117.485 99.4554C117.485 100.085 117.275 100.605 116.855 101.035C116.435 101.465 115.885 101.675 115.195 101.675C114.505 101.675 113.955 101.465 113.535 101.035C113.115 100.605 112.905 100.085 112.905 99.4554Z" fill="white"></path><path d="M119.995 98.7256C120.155 98.6756 120.425 98.6256 120.785 98.5656C121.145 98.5056 121.515 98.4756 121.895 98.4756C122.275 98.4756 122.585 98.4956 122.865 98.5456C123.155 98.5956 123.395 98.6956 123.595 98.8456C123.795 98.9956 123.935 99.1956 124.035 99.4456C124.135 99.6956 124.185 100.036 124.185 100.446V102.856C124.595 102.696 124.985 102.576 125.355 102.516C125.725 102.456 126.135 102.416 126.575 102.416C127.365 102.416 128.105 102.556 128.815 102.836C129.525 103.116 130.145 103.526 130.685 104.056C131.225 104.586 131.655 105.246 131.965 106.036C132.275 106.826 132.435 107.736 132.435 108.766C132.435 109.796 132.275 110.766 131.955 111.556C131.635 112.356 131.185 113.016 130.615 113.536C130.045 114.066 129.335 114.456 128.515 114.726C127.685 114.996 126.775 115.136 125.775 115.136C124.695 115.136 123.775 115.006 123.015 114.756C122.265 114.506 121.625 114.186 121.095 113.806C120.375 113.296 120.015 112.636 120.015 111.836V98.7256H119.995ZM125.755 111.836C126.505 111.836 127.095 111.576 127.515 111.056C127.935 110.536 128.145 109.776 128.145 108.756C128.145 107.736 127.935 106.946 127.505 106.446C127.075 105.936 126.505 105.686 125.785 105.686C125.455 105.686 125.175 105.716 124.935 105.786C124.695 105.856 124.435 105.946 124.155 106.086V111.456C124.335 111.566 124.555 111.666 124.805 111.736C125.055 111.806 125.375 111.846 125.755 111.846V111.836Z" fill="white"></path><path d="M138.725 114.715C138.545 114.745 138.275 114.795 137.925 114.855C137.575 114.915 137.215 114.945 136.855 114.945C136.495 114.945 136.165 114.925 135.885 114.875C135.605 114.825 135.355 114.725 135.155 114.575C134.955 114.425 134.805 114.225 134.695 113.975C134.585 113.725 134.535 113.385 134.535 112.975V98.6948C134.715 98.6648 134.985 98.6148 135.335 98.5548C135.685 98.4948 136.045 98.4648 136.405 98.4648C136.765 98.4648 137.095 98.4848 137.375 98.5348C137.665 98.5848 137.905 98.6848 138.105 98.8348C138.305 98.9848 138.455 99.1848 138.565 99.4348C138.675 99.6848 138.725 100.025 138.725 100.435V114.705V114.715Z" fill="white"></path><path d="M147.685 115.135C146.715 115.135 145.815 114.995 144.995 114.725C144.165 114.455 143.445 114.045 142.825 113.505C142.205 112.965 141.725 112.285 141.375 111.465C141.025 110.645 140.845 109.685 140.845 108.585C140.845 107.485 141.025 106.575 141.375 105.795C141.725 105.015 142.195 104.375 142.765 103.875C143.335 103.375 143.995 103.005 144.735 102.765C145.475 102.525 146.225 102.405 146.995 102.405C147.865 102.405 148.655 102.535 149.375 102.795C150.085 103.055 150.705 103.415 151.225 103.875C151.745 104.335 152.145 104.885 152.435 105.525C152.725 106.165 152.865 106.865 152.865 107.615C152.865 108.175 152.705 108.595 152.395 108.895C152.085 109.195 151.645 109.375 151.095 109.465L145.015 110.375C145.195 110.915 145.565 111.325 146.125 111.595C146.685 111.865 147.325 112.005 148.045 112.005C148.715 112.005 149.355 111.915 149.955 111.745C150.555 111.575 151.045 111.375 151.415 111.145C151.675 111.305 151.895 111.535 152.075 111.835C152.255 112.135 152.345 112.445 152.345 112.775C152.345 113.515 152.005 114.065 151.315 114.425C150.785 114.705 150.195 114.895 149.545 114.995C148.885 115.095 148.275 115.145 147.695 115.145L147.685 115.135ZM146.995 105.465C146.605 105.465 146.265 105.535 145.975 105.665C145.685 105.795 145.455 105.965 145.275 106.165C145.095 106.375 144.955 106.605 144.865 106.855C144.775 107.105 144.725 107.365 144.705 107.635L148.915 106.945C148.865 106.615 148.685 106.285 148.375 105.965C148.065 105.635 147.605 105.475 146.995 105.475V105.465Z" fill="white"></path></g><defs><clipPath id="clip0_3006_159"><rect width="93.38" height="17.92" fill="white" transform="translate(59.4749 97.2451)"></rect></clipPath></defs></svg>