<svg xmlns="http://www.w3.org/2000/svg" width="212" height="212" viewBox="0 0 212 212" fill="none"><path d="M211.76 0H0V211.76H211.76V0Z" fill="#36363C"></path><path d="M93.2895 115.357C93.0153 115.357 92.7771 115.596 92.7771 115.87C92.7771 116.144 93.0225 116.375 93.2968 116.368C93.5638 116.368 93.7875 116.137 93.7875 115.87C93.7875 115.603 93.5566 115.357 93.2823 115.357H93.2895Z" fill="white"></path><path d="M73.3335 104.359C73.4634 104.251 73.651 104.171 73.716 104.034C73.7737 103.897 73.7593 103.681 73.6871 103.536C73.5789 103.298 73.3768 103.284 73.1602 103.428C73.1097 103.464 73.0664 103.5 73.0159 103.529C72.8571 103.63 72.7128 103.724 72.8066 103.955C72.8932 104.171 73.052 104.301 73.3335 104.352V104.359Z" fill="white"></path><path d="M110.69 88.3135L114.804 115.992H107.45L107.06 111.02H104.483L104.05 115.992H96.6091L100.283 88.3135H110.683H110.69ZM106.872 106.112C106.512 102.979 106.143 99.1036 105.775 94.4844C105.039 99.782 104.584 103.658 104.397 106.112H106.872Z" fill="white"></path><path d="M128.937 88.3139V93.8497L123.574 110.45H128.937V115.986H115.671V111.966L121.207 93.8424H116.32V88.3066H128.937V88.3139Z" fill="white"></path><path d="M142.837 88.3139V93.8497L137.475 110.45H142.837V115.986H129.572V111.966L135.108 93.8424H130.221V88.3066H142.837V88.3139Z" fill="white"></path><path d="M102.947 83.8178C102.478 83.7311 102.016 83.6445 101.546 83.5651C101.474 83.5507 101.388 83.5507 101.33 83.5796C100.839 83.8322 100.348 84.0848 99.8359 84.3591L99.2874 84.5179C98.4141 85.0664 97.5119 85.5355 96.8335 86.315C96.3932 86.8274 96.2055 87.4554 96.0395 88.0905C95.6209 89.7144 95.2095 91.3456 94.7837 92.9984C94.3723 92.9551 93.9609 93.0128 93.665 93.352C93.5134 93.5325 93.3763 93.7707 93.333 94.0016C93.2175 94.6151 93.5206 95.0698 94.2135 95.3874C93.9898 96.3329 93.7588 97.2856 93.5279 98.2311C93.3618 98.2455 93.2103 98.2527 93.0587 98.2744C92.5535 98.3682 92.1782 98.7868 92.106 99.2992C92.0411 99.7828 92.3081 100.31 92.7628 100.512C92.9288 100.584 92.9505 100.656 92.9071 100.829C92.6762 101.768 92.4597 102.706 92.2359 103.637C91.442 103.586 90.9584 104.034 90.843 104.626C90.7275 105.218 91.009 105.687 91.6657 106.019C91.4348 107.008 91.2038 107.996 90.9729 108.985C90.049 108.985 89.5582 109.274 89.4283 109.902C89.2912 110.58 89.5943 111.049 90.4099 111.389C90.1934 112.312 89.9769 113.243 89.7531 114.189C89.3489 114.102 88.9808 114.16 88.6633 114.405C88.4323 114.586 88.288 114.824 88.2302 115.106C88.1003 115.755 88.4395 116.268 89.2118 116.563C88.952 117.458 88.9448 118.447 88.2374 119.183C87.6167 119.826 86.8806 120.165 85.9856 119.941C85.2711 119.754 84.7947 119.227 84.5926 118.541C84.3977 117.891 84.275 117.206 84.2173 116.527C84.073 114.838 84.008 113.135 83.8636 111.446C83.6976 109.418 83.3873 107.412 82.6006 105.513C82.0665 104.214 81.3087 103.06 80.1827 102.186C80.1539 102.165 80.125 102.136 80.0745 102.092C80.4065 101.854 80.7313 101.623 81.0633 101.378C80.7674 100.959 80.4859 100.562 80.19 100.144C76.5884 102.684 72.9941 105.218 69.3782 107.773C69.6741 108.191 69.9556 108.595 70.2515 109.014C70.6268 108.754 70.9877 108.502 71.3558 108.242C72.1208 108.769 72.7632 109.418 73.3478 110.118C74.7335 111.771 75.7584 113.626 76.4441 115.676C76.805 116.773 76.9132 117.906 76.9998 119.053C77.1875 121.378 77.7865 123.572 79.1651 125.499C80.1394 126.856 81.4241 127.758 83.0914 128.075C84.0297 128.256 84.9751 128.205 85.9134 128.176C87.061 128.133 88.1869 127.917 89.2551 127.462C91.4997 126.502 92.8494 124.784 93.5134 122.475C93.7516 121.659 93.8021 120.822 93.8887 119.985C94.0042 118.931 94.1413 117.884 94.2785 116.83C94.4661 115.438 94.6682 114.037 94.8703 112.644C95.0796 111.15 95.2961 109.656 95.5054 108.162C95.7147 106.676 95.9241 105.189 96.1334 103.702C96.3282 102.309 96.5303 100.916 96.7252 99.5158C96.9201 98.1444 97.1005 96.7731 97.3026 95.4018C97.6202 93.2221 97.9522 91.0497 98.2842 88.87C98.2842 88.8411 98.2986 88.8123 98.3058 88.7762C98.378 88.2132 98.645 87.8018 99.1647 87.5348C99.5544 87.3327 99.9153 87.0584 100.305 86.8058L100.803 86.5676C102.016 85.752 103.206 84.9509 104.441 84.1137C103.907 84.0126 103.43 83.9188 102.954 83.8322L102.947 83.8178ZM75.3254 106.322C75.2749 106.445 75.1016 106.517 74.9789 106.611C74.7191 106.56 74.5748 106.452 74.4954 106.25C74.416 106.04 74.5459 105.954 74.6902 105.86C74.7335 105.831 74.7768 105.795 74.8274 105.766C75.0222 105.629 75.2027 105.651 75.3037 105.86C75.3615 105.99 75.3831 106.185 75.3254 106.315V106.322ZM76.1121 105.463C76.0471 105.506 75.9389 105.492 75.8523 105.506C75.8956 105.427 75.91 105.326 75.9749 105.275C76.675 104.77 77.3824 104.272 78.0897 103.774C78.5732 103.435 79.0568 103.088 79.5765 102.72C79.9229 103.067 80.2838 103.392 80.5941 103.76C81.4314 104.756 81.9221 105.932 82.2758 107.166C82.8604 109.202 83.0192 111.295 83.1636 113.395C83.2502 114.716 83.3368 116.037 83.4523 117.357C83.51 118 83.6399 118.642 83.9575 119.212C84.4555 120.1 85.1556 120.75 86.2165 120.815C87.6456 120.901 88.6777 120.215 89.3706 118.996C89.5149 118.743 89.5799 118.447 89.6954 118.173C89.717 118.122 89.8036 118.094 89.8542 118.057C89.8758 118.115 89.9047 118.173 89.9119 118.231C89.9119 118.274 89.8975 118.325 89.883 118.368C89.6737 119.09 89.2912 119.71 88.721 120.194C87.9199 120.872 86.996 121.212 85.9495 121.024C84.7225 120.8 83.9575 119.999 83.5533 118.866C83.344 118.288 83.2357 117.661 83.178 117.047C83.0481 115.683 82.9759 114.312 82.8893 112.94C82.7955 111.461 82.6583 109.988 82.3624 108.538C82.0882 107.188 81.6912 105.882 80.9694 104.698C80.5869 104.07 80.1178 103.507 79.5332 103.052C79.4466 103.11 79.3744 103.161 79.295 103.218C78.234 103.969 77.173 104.72 76.1049 105.47L76.1121 105.463ZM93.0371 119.934C92.9505 120.627 92.9144 121.334 92.7484 122.013C92.1854 124.315 90.8357 125.968 88.5767 126.798C87.4074 127.231 86.1877 127.354 84.8957 127.332C84.7153 127.332 84.4844 127.332 84.2462 127.332C83.0769 127.31 82.0088 126.978 81.0705 126.257C80.0745 125.491 79.4105 124.474 78.9052 123.341C78.2412 121.847 77.9092 120.266 77.8082 118.642C77.8082 118.577 77.8731 118.505 77.9092 118.44C77.9525 118.498 78.0247 118.555 78.0391 118.62C78.133 119.292 78.1835 119.97 78.3134 120.634C78.6021 122.15 79.1218 123.572 80.0312 124.835C80.8756 125.997 81.9655 126.798 83.4162 127.014C84.6937 127.202 85.9784 127.151 87.2559 126.921C90.5687 126.314 92.3803 123.932 92.7267 120.894C92.8205 120.078 92.8855 119.263 92.9721 118.454C92.9793 118.375 93.0659 118.303 93.1165 118.231C93.1453 118.317 93.2031 118.404 93.1958 118.483C93.1525 118.974 93.102 119.458 93.0443 119.948L93.0371 119.934ZM93.0587 117.487C92.8133 117.487 92.5896 117.278 92.5896 117.033C92.5896 116.787 92.8061 116.571 93.0515 116.571C93.2969 116.571 93.5134 116.794 93.5062 117.04C93.5062 117.278 93.2969 117.487 93.0587 117.487Z" fill="white"></path></svg>