<svg xmlns="http://www.w3.org/2000/svg" width="212" height="212" viewBox="0 0 212 212" fill="none"><path d="M211.76 0H0V211.76H211.76V0Z" fill="#36363C"></path><g clip-path="url(#clip0_3006_150)"><path d="M141.715 106.6C141.565 107.53 141.495 108.49 141.255 109.39C140.655 111.64 139.225 113.12 136.935 113.7C135.485 114.07 134.015 114.08 132.565 113.72C130.275 113.16 128.935 111.63 128.375 109.4C127.925 107.61 127.905 105.79 128.315 103.99C128.985 101.05 131.025 99.3401 134.045 99.2601C134.965 99.2301 135.905 99.2801 136.795 99.4601C139.565 100.03 141.335 102.23 141.575 105.24C141.605 105.69 141.615 106.14 141.635 106.59C141.665 106.59 141.685 106.6 141.715 106.61V106.6ZM130.855 106.65C131.045 107.61 131.205 108.95 131.585 110.23C131.935 111.39 132.855 112.15 134.075 112.21C135.055 112.26 136.055 112.07 137.025 111.89C137.715 111.76 138.115 111.25 138.265 110.54C138.735 108.32 138.895 106.09 138.355 103.86C137.945 102.16 136.855 101.08 135.315 100.97C134.485 100.91 133.625 101.07 132.805 101.21C131.885 101.37 131.375 102 131.255 102.91C131.105 104.02 131.015 105.14 130.865 106.65H130.855Z" fill="white"></path><path d="M84.5649 113.81C85.5549 111.21 86.4849 108.74 87.4249 106.27C88.2049 104.22 89.0049 102.18 89.7649 100.12C89.9049 99.7303 90.0749 99.5003 90.5249 99.4503C91.2349 99.3703 91.9449 99.2103 92.7249 99.0703C94.4049 103.97 96.0749 108.84 97.7749 113.8C96.8149 113.8 95.9449 113.83 95.0749 113.78C94.8949 113.77 94.6549 113.48 94.5849 113.27C94.1449 112.03 93.7249 110.77 93.3349 109.51C93.2149 109.12 93.0449 108.95 92.6049 108.96C91.2349 109 89.8549 108.98 88.4849 109.03C88.2749 109.03 87.9649 109.28 87.8849 109.49C87.4449 110.63 87.0149 111.78 86.6949 112.95C86.4949 113.67 86.1249 113.92 85.4249 113.81C85.1849 113.77 84.9349 113.81 84.5649 113.81ZM88.5549 107.45H92.6749C92.0049 105.45 91.3549 103.51 90.6449 101.38C89.9149 103.5 89.2549 105.43 88.5549 107.45Z" fill="white"></path><path d="M104.085 113.77H101.335V99.5498C103.505 99.4398 105.695 99.0598 107.845 99.7298C109.575 100.27 110.415 101.57 110.455 103.35C110.495 105.2 109.885 106.78 108.145 107.64C107.425 108 106.595 108.16 105.795 108.31C104.685 108.51 104.675 108.46 104.615 107.25C104.925 107.16 105.255 107.07 105.575 106.97C106.705 106.63 107.315 105.84 107.475 104.7C107.535 104.28 107.545 103.85 107.535 103.43C107.475 101.61 106.405 100.72 104.585 100.92C104.055 100.98 104.095 101.29 104.095 101.65C104.095 105.37 104.095 109.1 104.095 112.82C104.095 113.12 104.095 113.41 104.095 113.76L104.085 113.77Z" fill="white"></path><path d="M149.785 107.22C151.075 106.96 152.255 106.54 152.515 105.1C152.665 104.3 152.695 103.45 152.575 102.65C152.375 101.35 150.795 100.51 149.545 100.98C149.375 101.04 149.255 101.45 149.255 101.7C149.235 105.4 149.245 109.1 149.245 112.8V113.76H146.505V99.5402C148.485 99.5402 150.455 99.4002 152.395 99.5802C154.145 99.7402 155.305 101.07 155.535 102.65C155.855 104.88 155.065 106.79 153.325 107.63C152.575 107.99 151.725 108.17 150.895 108.31C149.835 108.5 149.785 108.41 149.785 107.21V107.22Z" fill="white"></path><path d="M124.645 99.4395C124.585 99.8995 124.525 100.309 124.455 100.849H120.435V113.749H117.615V100.899H113.425C113.455 100.359 113.485 99.9195 113.515 99.4395H124.645Z" fill="white"></path><path d="M56.7249 99.1199C57.1249 98.8599 57.4349 98.6499 57.7949 98.4199C59.0049 100.28 60.1849 102.1 61.3649 103.92C63.1049 106.6 64.8549 109.27 66.5849 111.96C66.8549 112.38 67.1549 112.56 67.6749 112.55C71.9749 112.53 76.2649 112.54 80.5649 112.54H81.4849V113.78H64.0549V112.59C64.4649 112.56 64.8749 112.53 65.4049 112.49C62.4949 107.99 59.6349 103.59 56.7249 99.1199Z" fill="white"></path></g><defs><clipPath id="clip0_3006_150"><rect width="98.88" height="15.57" fill="white" transform="translate(56.7249 98.4199)"></rect></clipPath></defs></svg>