<svg xmlns="http://www.w3.org/2000/svg" width="79" height="80" viewBox="0 0 79 80" fill="none"><path d="M74.9981 0H55.9887C45.7267 0 39.312 10.9069 44.4443 19.6309L66.7678 57.5893C67.3197 58.529 66.9918 59.7278 66.0346 60.2722C65.72 60.4502 65.3761 60.5366 65.0375 60.5366C64.347 60.5366 63.6751 60.1858 63.3045 59.555L31.3616 5.23754C29.4554 1.99712 25.9361 0.00262001 22.1262 0.00262001H3.99919C1.79164 0.00262001 0 1.76155 0 3.92881V76.0738C0 78.2411 1.79164 80 3.99919 80H22.9127C33.1746 80 39.5893 69.0931 34.457 60.3691L23.6405 41.9762C23.0887 41.0365 23.4166 39.8377 24.3737 39.2933C25.3282 38.7515 26.552 39.0734 27.1065 40.0131L47.5424 74.7651C49.4487 78.0055 52.9679 80 56.7778 80H75.0008C77.2084 80 79 78.2411 79 76.0738V3.92881C79 1.76155 77.2084 0.00262001 75.0008 0.00262001L74.9981 0Z" fill="black"></path></svg>