<svg xmlns="http://www.w3.org/2000/svg" width="212" height="212" viewBox="0 0 212 212" fill="none"><path d="M211.76 0H0V211.76H211.76V0Z" fill="#36363C"></path><g clip-path="url(#clip0_3006_139)"><path d="M63.3301 93.2793H71.4701L78.3601 104.039L85.2501 93.2793H93.5901V120.949H84.6301V105.919L78.1701 116.859H76.2701L69.6001 105.919V120.949H63.3301V93.2793Z" fill="white"></path><path d="M148.38 120.11C147.15 120.51 145.83 120.85 144.41 121.12C142.99 121.39 141.51 121.52 139.97 121.52C138.29 121.52 136.68 121.3 135.16 120.85C133.63 120.41 132.29 119.71 131.13 118.78C129.97 117.84 129.05 116.65 128.36 115.21C127.68 113.77 127.33 112.05 127.33 110.05C127.33 108.91 127.51 107.86 127.86 106.89C128.21 105.92 128.69 105.03 129.3 104.24C129.91 103.44 130.62 102.74 131.43 102.13C132.25 101.52 133.12 101 134.05 100.58C134.98 100.16 135.95 99.8496 136.94 99.6296C137.93 99.4096 138.9 99.3096 139.86 99.3096C141.36 99.3096 142.68 99.4796 143.83 99.8096C144.98 100.14 145.93 100.59 146.7 101.15C147.46 101.71 148.04 102.36 148.43 103.11C148.82 103.85 149.02 104.64 149.02 105.48C149.02 106.5 148.85 107.37 148.5 108.08C148.15 108.8 147.69 109.4 147.11 109.89C146.53 110.38 145.86 110.76 145.09 111.04C144.33 111.32 143.52 111.54 142.67 111.69C141.82 111.84 140.96 111.93 140.08 111.97C139.2 112.01 138.36 112.03 137.57 112.03C137.3 112.03 137.03 112.03 136.78 112.03C136.53 112.03 136.27 112.03 136.03 112.03C136.13 112.77 136.34 113.4 136.65 113.91C136.96 114.42 137.34 114.83 137.8 115.15C138.26 115.47 138.8 115.7 139.4 115.83C140.01 115.97 140.66 116.04 141.35 116.04C141.87 116.04 142.43 116 143.02 115.92C143.61 115.84 144.21 115.73 144.82 115.6C145.43 115.46 146.03 115.31 146.64 115.13C147.25 114.95 147.83 114.77 148.39 114.57V120.13L148.38 120.11ZM135.83 108.99C136.14 108.98 136.54 108.96 137.03 108.93C137.52 108.9 138.04 108.86 138.59 108.79C139.14 108.72 139.69 108.63 140.23 108.52C140.78 108.4 141.27 108.25 141.72 108.07C142.16 107.89 142.52 107.66 142.8 107.39C143.07 107.12 143.21 106.78 143.21 106.39C143.21 105.72 142.95 105.19 142.42 104.79C141.89 104.39 141.16 104.19 140.22 104.19C139.79 104.19 139.33 104.25 138.83 104.38C138.33 104.5 137.87 104.74 137.44 105.09C137.01 105.44 136.64 105.93 136.34 106.56C136.04 107.19 135.87 108 135.83 108.99Z" fill="white"></path><path d="M126.43 120.949H117.98V105.258C118.182 105.179 118.401 105.112 118.64 105.06C119.54 104.86 120.48 104.8 121.4 104.79C123.37 104.764 125.54 103.383 126.43 101.582V120.949ZM126.43 101.237C126.297 101.425 126.164 101.613 126.021 101.79C124.691 103.46 123.02 104.369 120.82 104.189C120.09 104.129 119.35 104.169 118.62 104.229C118.395 104.249 118.182 104.281 117.98 104.321V90.8896H126.43V101.237Z" fill="white"></path><path d="M104.91 99.3193C105.91 99.3193 106.9 99.3798 107.87 99.5098C108.84 99.6298 109.76 99.8399 110.63 100.13C111.5 100.42 112.3 100.799 113.04 101.279C113.78 101.759 114.41 102.359 114.94 103.069C115.419 103.71 115.797 104.457 116.087 105.302C115.603 105.814 115.281 106.512 115.101 107.409C114.991 107.969 114.9 108.519 114.771 109.069C114.571 109.929 114 110.399 113.12 110.439C112.83 110.459 112.54 110.45 112.25 110.42C111.26 110.32 110.32 110.48 109.46 111.01C108.7 111.47 107.88 111.6 107 111.52C106.49 111.47 105.93 111.4 105.45 111.54C103.22 112.21 101.72 113.74 100.92 115.88C100.45 117.12 101.151 117.97 102.48 118C104.08 118.04 105.52 117.499 106.86 116.659C107.95 115.979 108.46 114.94 108.83 113.75C109.29 112.26 110.491 111.519 112.061 111.529C112.74 111.539 113.42 111.499 114.08 111.369C115.07 111.179 115.68 110.539 115.86 109.529C115.95 109.019 116.03 108.499 116.09 107.979C116.149 107.476 116.263 107.037 116.44 106.661C116.566 107.354 116.63 108.108 116.63 108.93V120.97H108.57V117.47C108.26 118.11 107.82 118.68 107.26 119.18C106.7 119.68 106.07 120.11 105.36 120.46C104.66 120.81 103.91 121.08 103.11 121.26C102.31 121.44 101.53 121.529 100.74 121.529V121.52C99.9102 121.52 99.1098 121.4 98.3398 121.17C97.5801 120.94 96.9004 120.58 96.3105 120.09C95.7206 119.61 95.2601 119 94.9102 118.26C94.5602 117.52 94.3896 116.649 94.3896 115.649C94.3897 114.649 94.5504 113.85 94.8604 113.14C95.1703 112.43 95.5901 111.82 96.1201 111.31C96.6501 110.8 97.2705 110.38 97.9805 110.05C98.6904 109.72 99.4403 109.46 100.24 109.27C101.04 109.08 101.85 108.95 102.7 108.88C103.55 108.81 104.36 108.77 105.16 108.77C105.71 108.77 106.24 108.78 106.75 108.81C107.26 108.84 107.73 108.869 108.18 108.909C108.15 108.089 108 107.409 107.71 106.869C107.42 106.329 107.04 105.899 106.58 105.579C106.11 105.259 105.56 105.039 104.94 104.899C104.31 104.769 103.65 104.699 102.96 104.699C102.32 104.699 101.67 104.739 100.99 104.829C100.32 104.919 99.6604 105.02 99.0205 105.14C98.3806 105.26 97.7704 105.4 97.1904 105.54C96.6105 105.68 96.1003 105.81 95.6504 105.93V100.449C96.2903 100.309 96.9801 100.169 97.71 100.029C98.4498 99.8893 99.2099 99.7699 100.01 99.6699C100.81 99.5699 101.62 99.4799 102.45 99.4199C103.28 99.3499 104.1 99.3193 104.91 99.3193Z" fill="white"></path></g><defs><clipPath id="clip0_3006_139"><rect width="85.67" height="30.63" fill="white" transform="translate(63.3301 90.8896)"></rect></clipPath></defs></svg>