<svg xmlns="http://www.w3.org/2000/svg" width="212" height="212" viewBox="0 0 212 212" fill="none"><path d="M211.76 0H0V211.76H211.76V0Z" fill="#36363C"></path><path d="M91.8619 113.747C91.8619 114.467 91.6713 114.954 91.3007 115.198C90.9302 115.441 90.4855 115.568 89.9561 115.568C89.4267 115.568 88.982 115.441 88.6114 115.198C88.2408 114.954 88.0502 114.478 88.0502 113.779C86.462 114.975 84.6303 115.568 82.5551 115.568C79.9822 115.568 77.7905 114.658 75.9799 112.847C74.1694 111.036 73.2588 108.845 73.2588 106.272C73.2588 103.699 74.1694 101.507 75.9799 99.6967C77.7905 97.8862 79.9822 96.9756 82.5551 96.9756C85.1279 96.9756 87.3197 97.8862 89.1302 99.6967C90.9407 101.507 91.8195 103.646 91.8513 106.177V113.736L91.8619 113.747ZM86.4832 102.365C85.4032 101.285 84.1009 100.745 82.5762 100.745C81.0516 100.745 79.7492 101.285 78.6798 102.354C77.6105 103.424 77.0705 104.726 77.0705 106.251C77.0705 107.775 77.6105 109.078 78.6798 110.158C79.7492 111.238 81.0516 111.778 82.5762 111.778C84.1009 111.778 85.4032 111.238 86.4832 110.158C87.4044 109.236 87.9338 108.157 88.0714 106.918V106.208C88.0714 106.092 88.0714 105.986 88.0926 105.87C88.0185 104.504 87.4891 103.328 86.4938 102.354L86.4832 102.365Z" fill="white"></path><path d="M112.424 115.568C111.905 115.568 111.45 115.377 111.079 115.006C110.709 114.636 110.518 114.096 110.518 113.408V106.218C110.518 106.102 110.518 105.996 110.539 105.88C110.465 104.514 109.925 103.339 108.94 102.364C107.86 101.284 106.558 100.744 105.033 100.744H104.959C103.435 100.744 102.132 101.284 101.052 102.364C100.057 103.349 99.5277 104.514 99.4536 105.88C99.4642 105.996 99.4748 106.102 99.4748 106.218V113.408C99.4748 114.107 99.2842 114.636 98.9136 115.006C98.543 115.377 98.0983 115.568 97.5689 115.568C97.0395 115.568 96.6054 115.377 96.2242 115.006C95.8431 114.636 95.6631 114.085 95.6631 113.365V106.176C95.6843 103.646 96.5948 101.486 98.3842 99.6962C100.068 98.0127 102.228 97.0916 104.843 96.9434H105.139C107.755 97.0916 109.915 98.0127 111.598 99.6962C111.905 100.003 112.191 100.321 112.434 100.649C112.678 100.332 112.964 100.014 113.271 99.6962C114.954 98.0127 117.114 97.0916 119.73 96.9434H120.026C122.641 97.0916 124.801 98.0127 126.485 99.6962C128.274 101.486 129.174 103.646 129.206 106.176V113.365C129.206 114.085 129.015 114.636 128.645 115.006C128.274 115.377 127.829 115.568 127.3 115.568C126.771 115.568 126.326 115.377 125.955 115.006C125.585 114.636 125.394 114.096 125.394 113.408V106.218C125.394 106.102 125.394 105.996 125.415 105.88C125.341 104.514 124.801 103.339 123.817 102.364C122.737 101.284 121.434 100.744 119.91 100.744H119.835C118.311 100.744 117.008 101.284 115.929 102.364C114.933 103.349 114.404 104.514 114.33 105.88C114.34 105.996 114.351 106.102 114.351 106.218V113.408C114.351 114.107 114.16 114.636 113.79 115.006C113.419 115.377 112.974 115.568 112.445 115.568H112.403H112.424Z" fill="white"></path><path d="M149.725 115.568C149.206 115.568 148.751 115.377 148.38 115.006C148.009 114.636 147.819 114.096 147.819 113.408V106.218C147.819 106.102 147.819 105.996 147.84 105.88C147.766 104.514 147.226 103.339 146.241 102.364C145.161 101.284 143.859 100.744 142.334 100.744H142.26C140.735 100.744 139.433 101.284 138.353 102.364C137.358 103.349 136.828 104.514 136.754 105.88C136.765 105.996 136.776 106.102 136.776 106.218V113.408C136.776 114.107 136.585 114.636 136.214 115.006C135.844 115.377 135.399 115.568 134.87 115.568C134.34 115.568 133.906 115.377 133.525 115.006C133.144 114.636 132.964 114.085 132.964 113.365V106.176C132.985 103.646 133.896 101.486 135.685 99.6962C137.368 98.0127 139.528 97.0916 142.144 96.9434H142.44C145.055 97.0916 147.215 98.0127 148.899 99.6962C149.206 100.003 149.492 100.321 149.735 100.649C149.979 100.332 150.265 100.014 150.572 99.6962C152.255 98.0127 154.415 97.0916 157.03 96.9434H157.327C159.942 97.0916 162.102 98.0127 163.786 99.6962C165.575 101.486 166.475 103.646 166.507 106.176V113.365C166.507 114.085 166.316 114.636 165.945 115.006C165.575 115.377 165.13 115.568 164.601 115.568C164.071 115.568 163.627 115.377 163.256 115.006C162.886 114.636 162.695 114.096 162.695 113.408V106.218C162.695 106.102 162.695 105.996 162.716 105.88C162.642 104.514 162.102 103.339 161.117 102.364C160.037 101.284 158.735 100.744 157.21 100.744H157.136C155.612 100.744 154.309 101.284 153.229 102.364C152.234 103.349 151.705 104.514 151.631 105.88C151.641 105.996 151.652 106.102 151.652 106.218V113.408C151.652 114.107 151.461 114.636 151.091 115.006C150.72 115.377 150.275 115.568 149.746 115.568H149.703H149.725Z" fill="white"></path><path d="M188.859 113.747C188.859 114.467 188.668 114.954 188.298 115.198C187.927 115.441 187.483 115.568 186.953 115.568C186.424 115.568 185.979 115.441 185.608 115.198C185.238 114.954 185.047 114.478 185.047 113.779C183.459 114.975 181.627 115.568 179.552 115.568C176.979 115.568 174.788 114.658 172.977 112.847C171.166 111.036 170.256 108.845 170.256 106.272C170.256 103.699 171.166 101.507 172.977 99.6967C174.788 97.8862 176.979 96.9756 179.552 96.9756C182.125 96.9756 184.317 97.8862 186.127 99.6967C187.938 101.507 188.817 103.646 188.848 106.177V113.736L188.859 113.747ZM183.48 102.365C182.4 101.285 181.098 100.745 179.573 100.745C178.049 100.745 176.746 101.285 175.677 102.354C174.608 103.424 174.068 104.726 174.068 106.251C174.068 107.775 174.608 109.078 175.677 110.158C176.746 111.238 178.049 111.778 179.573 111.778C181.098 111.778 182.4 111.238 183.48 110.158C184.401 109.236 184.931 108.157 185.068 106.918V106.208C185.068 106.092 185.068 105.986 185.09 105.87C185.016 104.504 184.486 103.328 183.491 102.354L183.48 102.365Z" fill="white"></path><path d="M195.889 92.0307C196.26 92.4013 196.45 92.846 196.45 93.3754V113.673C196.45 114.191 196.26 114.636 195.889 115.017C195.519 115.388 195.074 115.578 194.545 115.578C194.015 115.578 193.581 115.388 193.2 115.017C192.819 114.647 192.639 114.202 192.639 113.673V93.3648C192.639 92.846 192.829 92.3907 193.2 92.0201C193.57 91.6496 194.015 91.459 194.545 91.459C195.074 91.459 195.519 91.6496 195.889 92.0201V92.0307Z" fill="white"></path><path d="M70.2731 104.79C69.2248 104.79 68.3672 105.648 68.3672 106.696C68.3672 108.305 67.0649 109.608 65.4555 109.608C63.8461 109.608 62.5862 108.337 62.5438 106.759V104.758C62.5226 101.773 61.6121 99.2208 59.8227 97.1138C58.1392 95.1233 55.9793 94.0327 53.364 93.8633H53.0676C50.4523 94.0433 48.2924 95.1233 46.6089 97.1138C45.8677 97.982 45.296 98.9243 44.8619 99.9514C43.1784 98.2785 41.029 97.3573 38.4138 97.2091H38.1173C35.5021 97.3573 33.3421 98.2785 31.6586 99.962C29.8692 101.751 28.9587 103.922 28.9375 106.452V113.642C28.9375 114.362 29.1281 114.912 29.4987 115.283C29.8692 115.653 30.3139 115.844 30.8433 115.844C31.3727 115.844 31.8174 115.653 32.188 115.283C32.5586 114.912 32.7492 114.372 32.7492 113.684V106.495C32.7492 106.378 32.7492 106.272 32.728 106.156C32.8021 104.79 33.3315 103.615 34.3268 102.641C35.4068 101.561 36.7091 101.021 38.2338 101.021H38.3079C39.8326 101.021 41.1349 101.561 42.2149 102.641C43.2101 103.625 43.7395 104.79 43.8136 106.156C43.8031 106.272 43.7925 106.378 43.7925 106.495V113.684C43.7925 114.383 43.983 114.912 44.3536 115.283C44.7242 115.653 45.1689 115.844 45.6983 115.844C45.7195 115.844 45.7301 115.844 45.7512 115.844C45.7618 115.844 45.783 115.844 45.7936 115.844C46.2489 115.844 46.6406 115.664 46.9795 115.336C47.0006 115.315 47.0218 115.304 47.043 115.283C47.0536 115.272 47.0642 115.262 47.0747 115.24C47.0959 115.219 47.1171 115.198 47.1383 115.177C47.17 115.135 47.1912 115.092 47.223 115.05C47.2547 115.008 47.2865 114.965 47.3077 114.923C47.5618 114.51 47.6994 113.97 47.6994 113.292V104.811C47.6994 104.684 47.6994 104.547 47.6783 104.42C47.7524 102.81 48.2818 101.423 49.277 100.269C50.357 98.9985 51.6593 98.3526 53.184 98.3526H53.2581C54.7828 98.3526 56.0851 98.9879 57.1651 100.269C58.1604 101.423 58.6898 102.81 58.7639 104.42C58.7533 104.547 58.7427 104.684 58.7427 104.811V106.527C58.7427 106.59 58.7215 106.643 58.7215 106.696C58.7215 106.812 58.7321 106.929 58.7427 107.045V107.141C58.9757 110.645 61.8874 113.419 65.4449 113.419C69.0025 113.419 72.1683 110.402 72.1683 106.696C72.1683 105.648 71.3107 104.79 70.2625 104.79H70.2731Z" fill="white"></path></svg>