<svg xmlns="http://www.w3.org/2000/svg" width="212" height="212" viewBox="0 0 212 212" fill="none"><path d="M211.76 0H0V211.76H211.76V0Z" fill="#36363C"></path><path d="M72.8339 118.163L71.0373 100.307L63.0311 118.163H61.66L53.2914 100.307L51.7627 118.163H49.1465L51.4002 94.5918H55.6396L63.4251 111.184L70.8324 94.5918H74.9615L77.4201 118.163H72.8339Z" fill="white"></path><path d="M160.949 117.294L145.252 100.859H145.205C145.236 102.232 145.268 103.495 145.299 104.648C145.315 105.137 145.331 105.627 145.331 106.116C145.331 106.606 145.347 107.063 145.362 107.474C145.362 107.884 145.362 108.263 145.362 108.579V117.167H142.73V93.5967H144.716L160.429 109.953C160.413 108.705 160.398 107.521 160.382 106.416C160.382 105.943 160.382 105.469 160.382 104.979C160.382 104.49 160.366 104.032 160.35 103.59C160.35 103.148 160.35 102.753 160.35 102.39V93.7703H162.982V117.294H160.949Z" fill="white"></path><path d="M96.442 118.162C103.214 118.162 108.703 112.663 108.703 105.879C108.703 99.0958 103.214 93.5967 96.442 93.5967C89.6703 93.5967 84.1807 99.0958 84.1807 105.879C84.1807 112.663 89.6703 118.162 96.442 118.162Z" fill="white"></path><path d="M122.794 93.6123C125.426 95.9489 127.096 99.3432 127.096 103.148C127.096 109.984 121.706 115.557 114.961 115.873C116.962 117.309 119.421 118.162 122.069 118.162C128.846 118.162 134.33 112.652 134.33 105.879C134.33 99.1064 129.224 94.007 122.794 93.6281V93.6123Z" fill="white"></path></svg>