<svg xmlns="http://www.w3.org/2000/svg" width="117" height="50" viewBox="0 0 117 50" fill="none"><g opacity="0.75"><path d="M116.138 17.9841L116.127 17.9309C116.01 15.8922 114.696 14.4343 112.22 13.5991C110.102 12.8815 107.528 12.7335 105.649 12.6234L105.449 12.612C104.943 12.5816 104.506 12.555 104.142 12.5209C99.5476 12.0615 95.9543 10.8466 93.4569 8.91799L93.1329 8.66743H115.297V8.05998H62.7815L62.8143 7.89294C62.8944 7.5019 62.9854 7.12225 63.0873 6.76158L63.1164 6.66287H115.297V6.05543H63.3094L63.3786 5.8656C63.5278 5.46317 63.6916 5.08352 63.8664 4.73045L63.9028 4.65452H115.297V4.04708H64.2414L64.3834 3.83068C64.5763 3.53834 64.7838 3.2574 65.0059 3.00304C65.1224 2.87016 65.2134 2.77525 65.2971 2.68793L65.3372 2.64996H115.3V2.04252H65.9998L66.3929 1.78436C67.547 1.02885 68.9523 0.645406 70.5687 0.645406H115.246V0.0493546L61.8532 0.0455581L61.7767 0.0531511C59.4686 0.144267 57.601 0.998481 56.2212 2.59681C53.1267 6.16932 53.4871 12.126 53.5381 12.7942V19.2179L51.6887 16.4427H50.9861L51.6232 17.3994V17.388L53.5345 20.2658V22.3652L49.5954 16.4427H48.9L53.5345 23.4169V25.6302L47.5021 16.4427H46.8067L53.5345 26.6894V28.8193L45.4087 16.4427H44.7134L53.5345 29.8785V32.0083L43.3154 16.4427H42.5764C42.6638 17.4146 43.0497 22.4677 42.2342 26.6591L42.125 27.2285L41.9757 26.6667C39.5402 17.4412 39.7513 0.55429 39.7549 0.387244V0.0873197L39.187 0.0759301V0.379651C39.1725 1.14655 38.9467 19.2483 41.8373 28.1967C41.983 28.6446 42.1322 29.0661 42.2851 29.4457C42.4562 29.8785 42.6346 30.2733 42.8203 30.6188C42.9696 30.9074 43.1261 31.1731 43.2863 31.4123C43.3992 31.5831 43.5084 31.7312 43.6176 31.8679C43.6868 31.9552 43.7668 32.0463 43.8542 32.1412C43.9198 32.2096 43.978 32.2703 44.0362 32.3235L44.2729 32.5437L43.9562 32.5626C43.6249 32.5854 43.279 32.5057 42.9477 32.3311C42.8458 32.2779 42.7475 32.2172 42.6383 32.1374C42.4781 32.0197 42.3252 31.8831 42.165 31.7122C42.1068 31.6515 42.0485 31.5869 41.9939 31.5148C41.8155 31.306 41.6444 31.0592 41.4769 30.7859C41.3095 30.5049 41.1456 30.1974 40.9891 29.8709C37.4286 22.2513 37.6471 1.27942 37.658 0.39104V0.0873197L37.0937 0.0759301V0.379651C37.0755 1.3022 36.8061 23.1017 40.727 30.6188C40.8762 30.9074 41.0328 31.1731 41.193 31.4123C41.3095 31.5869 41.4187 31.735 41.5243 31.8641C41.5934 31.9514 41.6699 32.0425 41.7609 32.1374C41.8264 32.2058 41.8847 32.2665 41.9429 32.3197L42.1796 32.5399L41.8628 32.5588C41.5352 32.5816 41.1784 32.4981 40.8544 32.3273C40.7452 32.2703 40.6432 32.2058 40.5449 32.1336C40.3848 32.0159 40.2246 31.8717 40.0717 31.7084C40.0061 31.6363 39.9515 31.5755 39.9006 31.5148C35.1897 25.858 35.561 0.637813 35.5683 0.383447V0.0873197L35.004 0.0759301V0.379651C34.9822 1.41989 34.6691 25.9529 39.4346 31.8679C39.5037 31.9552 39.5802 32.0463 39.6676 32.1412C39.7331 32.2096 39.7914 32.2703 39.8496 32.3235L40.0862 32.5437L39.7695 32.5626C39.4382 32.5854 39.0924 32.5057 38.7611 32.3311C38.4953 32.1944 38.2332 31.9856 37.9784 31.7122C33.1619 26.5452 33.4713 0.649203 33.475 0.39104V0.0873197L32.907 0.0759301V0.379651C32.8888 1.45406 32.5758 26.7768 37.5706 32.1374C37.6361 32.2058 37.6944 32.2665 37.7526 32.3197L37.9893 32.5399L37.6725 32.5588C36.8935 32.6044 36.2636 32.1184 35.8814 31.7084C32.0843 27.6348 31.4727 10.7441 31.3853 3.67122V3.65224C31.3926 2.52468 31.3926 1.40471 31.3926 0.3265V0.0265755H30.821V0.0759301H30.8101V0.379651C30.7992 0.850417 30.7882 2.14123 30.8101 3.97494C30.77 10.0911 30.6062 14.981 30.2895 19.366L30.2676 19.6849C30.071 22.4222 29.8708 25.2544 29.3029 27.9916C28.7714 30.5733 27.701 32.4032 26.5798 32.65C26.3832 32.6955 26.1756 32.6917 25.9681 32.6386L25.7424 32.5816L25.9062 32.407C26.7363 31.511 27.3661 30.0683 27.7666 28.1207C28.3381 25.3531 28.5457 22.4943 28.7422 19.7266L28.7641 19.4077C29.2337 12.8815 29.2956 6.10099 29.2956 0.3265V0.0265755H28.724V0.330296C28.724 6.09339 28.6622 12.8588 28.1925 19.366L28.1707 19.7039C27.9741 22.4412 27.7702 25.2733 27.2096 27.9916C26.8091 29.9241 26.1101 31.4541 25.2983 32.1982C25.0361 32.4374 24.7631 32.593 24.4864 32.6538C24.4609 32.6613 24.4355 32.6651 24.4136 32.6689C24.2389 32.6955 24.0605 32.6879 23.8785 32.6424L23.6527 32.5854L23.8129 32.4108C23.8748 32.3424 23.9403 32.2665 24.0241 32.164C24.1988 31.9476 24.359 31.7046 24.5046 31.4541C24.9997 30.596 25.3929 29.4761 25.6732 28.1245C26.2448 25.3569 26.4487 22.4981 26.6489 19.7342L26.6708 19.4153C27.1404 12.8702 27.2059 6.09719 27.2059 0.334093V0.0265755H26.6344V0.330296C26.6344 6.082 26.5725 12.8398 26.1028 19.366L26.0774 19.7039C25.8808 22.4412 25.6769 25.2733 25.1162 27.9916C24.8942 29.0699 24.5702 30.0494 24.1806 30.8238L24.1661 30.8542C24.0095 31.1579 23.8457 31.4313 23.6746 31.6667C23.5253 31.8717 23.3688 32.0501 23.2049 32.1982C22.9392 32.4412 22.6661 32.593 22.3931 32.6538C22.3676 32.6576 22.3421 32.6651 22.3167 32.6689C22.1455 32.6955 21.9672 32.6879 21.7815 32.6424L21.5558 32.5854L21.716 32.4108C21.7888 32.3311 21.8579 32.2513 21.9271 32.1678C22.1019 31.9476 22.262 31.7084 22.4113 31.4541C22.5606 31.1997 22.7026 30.9112 22.8336 30.6074C22.972 30.2885 23.0957 29.9431 23.2122 29.5786C23.3506 29.1382 23.4743 28.6484 23.5836 28.1245C24.1515 25.3796 24.3554 22.5361 24.5556 19.7874L24.5811 19.4153C25.0507 12.8702 25.1162 6.09719 25.1162 0.334093V0.0265755H24.5447V0.330296C24.5447 6.09339 24.4828 12.8588 24.0132 19.366L23.9913 19.6849C23.7947 22.4222 23.5945 25.2544 23.0266 27.9916C22.9865 28.1853 22.9501 28.3409 22.9137 28.489C22.8154 28.9104 22.6916 29.3318 22.5496 29.738C22.404 30.1519 22.2438 30.5277 22.0764 30.8542C21.9198 31.1617 21.756 31.4351 21.5849 31.6667C21.4356 31.8717 21.2791 32.0501 21.1153 32.1982C20.8531 32.4374 20.5801 32.593 20.3034 32.6538C20.2779 32.6576 20.2525 32.6651 20.2306 32.6689C20.0522 32.6955 19.8738 32.6879 19.6918 32.6424L19.4624 32.5854L19.6299 32.4108C19.6918 32.3462 19.7573 32.2703 19.8374 32.1716C20.0049 31.9628 20.1687 31.7236 20.3216 31.4579C20.4745 31.1883 20.6165 30.9036 20.7403 30.6112C20.875 30.2999 20.9988 29.9582 21.1116 29.6014V29.5824C21.2572 29.1344 21.381 28.6446 21.4902 28.1283C21.5084 28.0448 21.523 27.9651 21.5376 27.8815C21.6504 27.3121 21.756 26.7122 21.8543 26.044C22.1601 23.9598 22.313 21.8337 22.4586 19.7836L22.4841 19.4153C22.9537 12.874 23.0193 6.09719 23.0193 0.334093V0.0265755H22.4477V0.330296C22.4477 6.082 22.3858 12.8398 21.9162 19.366L21.8943 19.6849C21.796 21.044 21.7087 22.2665 21.5813 23.5042L21.4793 24.5102L21.3155 23.5118C21.0716 22.0197 20.915 20.4746 20.7731 19.1078C20.6966 18.3599 20.6165 17.5968 20.5255 16.8527C19.5826 8.99772 16.4299 4.83675 13.9506 2.73348C11.2712 0.444191 8.8138 0.0189825 8.70823 0H0V33.2422H0.571568V0.671982L0.739034 0.721336C1.1577 0.839028 1.58364 0.994685 2.01323 1.18451L2.09332 1.21868V33.2422H2.66489V1.48823L2.85784 1.59074C3.28743 1.81853 3.71337 2.08049 4.1284 2.36143L4.18665 2.40319V33.2384H4.75822V2.8208L4.97301 2.99544C5.07859 3.08276 5.17324 3.15869 5.26425 3.23462C5.59555 3.51557 5.9232 3.82688 6.24357 4.15718L6.28361 4.19894V33.2422H6.85518V4.82156L7.09182 5.1101C7.54689 5.66818 7.97283 6.26803 8.35873 6.89446L8.38058 6.92863V33.2422H8.95214V7.90812L9.20334 8.41686C10.4047 10.8466 11.2093 13.7092 11.5952 16.921C11.6716 17.5702 11.7408 18.2156 11.81 18.899L11.8355 19.161C12.2723 23.3903 12.7274 27.7601 15.0901 31.1997C16.0403 32.5816 16.9905 33.284 17.9189 33.284H26.2958C26.4305 33.284 26.5688 33.2688 26.6999 33.2384C27.2168 33.1245 28.9752 32.4108 29.8635 28.1169C30.4315 25.3607 30.639 22.5057 30.8392 19.7456L30.861 19.4039C30.9411 18.2992 31.0831 15.4897 31.1414 14.2938H31.196L31.3489 15.7061C32.0843 24.347 33.5114 30.0266 35.4773 32.1374C36.1144 32.8208 36.8243 33.1701 37.5852 33.1701H46.115L46.3225 33.1549C47.4256 33.0676 48.3794 32.5588 49.1585 31.6439C49.7264 30.9757 50.207 30.0759 50.5856 28.9749L50.673 28.7206L52.6025 31.6591L53.6583 33.2954H54.1024V12.7639C54.0806 12.5095 53.6728 6.43508 56.6326 3.01822C57.4736 2.04632 58.5257 1.36674 59.7598 0.998481L60.6955 0.71754L59.8654 1.25285C59.2975 1.61731 58.7732 2.07669 58.3073 2.612C55.1436 6.26044 55.606 12.5437 55.6242 12.8094V33.303H56.1957V12.7714C56.1957 12.7714 56.0719 11.1807 56.3268 9.18375C56.5598 7.36902 57.1678 4.82536 58.7259 3.02582C59.5669 2.05391 60.619 1.37434 61.8495 1.00607L62.7851 0.725133L61.9551 1.26044C61.3872 1.6249 60.8629 2.08049 60.3969 2.61959C57.2333 6.27183 57.692 12.5513 57.7138 12.817V33.3106H58.2854V12.7752C58.2854 12.7752 58.1616 11.1845 58.4165 9.18755C58.6495 7.37282 59.2574 4.82916 60.8156 3.02961C61.0814 2.7221 61.3726 2.44115 61.6784 2.19438C61.8459 2.05771 62.0243 1.92863 62.2027 1.81473C62.7305 1.46925 63.3167 1.1997 63.9428 1.00987L64.8857 0.725133L64.0521 1.26044C63.6989 1.48443 63.364 1.74639 63.0582 2.03493C62.8652 2.21336 62.6759 2.41078 62.4939 2.61959C62.4102 2.7145 62.3337 2.80942 62.2609 2.90433C59.3448 6.59833 59.7926 12.5664 59.8144 12.817L59.9164 29.9393V33.3106H60.4625L60.386 12.8094V12.779C60.3824 12.7335 60.0547 8.19286 61.7803 4.75702C61.9333 4.44571 62.108 4.14199 62.2937 3.85725C62.4866 3.56112 62.6941 3.28398 62.9162 3.02961C63.0291 2.90053 63.1201 2.80182 63.2075 2.7145C63.5424 2.36902 63.9137 2.0653 64.3033 1.81093C64.8311 1.46545 65.4173 1.1959 66.0434 1.00607L66.9864 0.721336L66.1527 1.25664C65.7995 1.48064 65.4646 1.7426 65.1588 2.03113C64.9658 2.20957 64.7765 2.40699 64.5945 2.61579C64.5108 2.7145 64.4343 2.80562 64.3615 2.90053C64.0957 3.23462 63.8482 3.60668 63.6188 4.00531C63.4623 4.27866 63.313 4.57099 63.1747 4.87851C63.0145 5.22779 62.8689 5.59985 62.7415 5.98329C62.6468 6.26803 62.5558 6.56416 62.4793 6.85649C62.3847 7.20197 62.3009 7.56644 62.2245 7.96507C62.1662 8.2574 62.1189 8.55353 62.0789 8.84206C61.7804 10.9453 61.9041 12.6272 61.9187 12.8132L62.0243 30.5543V33.303L78.152 33.2156C78.4978 33.2156 78.9128 33.2118 79.3788 33.208C84.8724 33.1815 97.7382 33.1245 102.744 32.4677C105.591 32.0957 108.015 31.6249 109.952 31.0668C113.993 29.9013 116.017 28.3675 116.141 26.3819L116.149 26.268V17.9992L116.138 17.9841ZM9.76763 0.933941L9.79311 0.941534C10.7287 1.28322 12.1558 1.959 13.6412 3.23462C17.9516 6.92483 19.4588 12.7145 19.9685 16.9248C20.0559 17.6614 20.1323 18.3827 20.2088 19.142V19.1686C20.449 21.4655 20.693 23.8421 21.2609 26.0744L21.2682 26.101V26.1314C21.1662 26.7768 21.057 27.3994 20.9332 27.9878C20.9005 28.1473 20.8641 28.3106 20.8204 28.489L20.7257 28.88L20.5692 28.508C19.3605 25.6378 19.0183 22.3121 18.6834 19.0964V19.0623C18.6069 18.3713 18.5268 17.593 18.4395 16.8451C17.4929 8.99013 14.3438 4.82916 11.8646 2.72589C11.1802 2.14503 10.4448 1.6287 9.6839 1.1959L9.66205 1.18451L9.76763 0.930144V0.933941ZM7.67795 0.933941L7.70343 0.941534C7.91822 1.02126 8.10753 1.09719 8.30048 1.18071L9.13781 1.58694C9.98242 2.03493 10.7906 2.58922 11.5479 3.23462C15.8619 6.92483 17.3691 12.7145 17.8752 16.9248C17.9589 17.612 18.0317 18.3143 18.1009 18.9939L18.1191 19.1648C18.4904 22.7563 18.8727 26.473 20.4454 29.6203L20.4709 29.6735L20.4527 29.7304C20.3143 30.1329 20.1542 30.5087 19.983 30.8504L19.8848 31.0402L19.7573 30.8694C19.7573 30.8694 19.7391 30.8466 19.7319 30.8314C17.4638 27.5323 17.0196 23.246 16.59 19.0964L16.5646 18.8572C16.4954 18.1929 16.4226 17.5019 16.3425 16.8451C15.3959 8.99013 12.2469 4.82916 9.76763 2.72589C9.53099 2.52468 9.27979 2.32346 9.00311 2.11465C8.73007 1.91344 8.44975 1.71982 8.1767 1.54518C7.99832 1.43128 7.80901 1.31739 7.59421 1.1959L7.57237 1.18451L7.68159 0.930144L7.67795 0.933941ZM18.1373 32.6613C18.0718 32.6727 18.0026 32.6765 17.9371 32.6765C17.0124 32.6765 16.1313 31.6781 15.5561 30.8428C13.2808 27.5323 12.8366 23.2422 12.407 19.0964V19.0737C12.3342 18.3789 12.2505 17.5892 12.1631 16.8451C11.6898 12.9195 10.6195 9.53303 8.97399 6.78436C8.70823 6.34396 8.4279 5.91875 8.14394 5.52012C7.75076 4.97722 7.33209 4.4609 6.89887 3.99013C6.63675 3.70539 6.35642 3.42445 6.06882 3.1549C5.91227 3.01063 5.75209 2.86636 5.58826 2.72969C5.35163 2.52847 5.10043 2.32726 4.82375 2.12225C4.5507 1.92103 4.27402 1.72741 3.99734 1.55277C3.78619 1.41989 3.59324 1.3022 3.40757 1.1997L3.38572 1.18831L3.4913 0.933941L3.51678 0.941534C3.7243 1.01746 3.92453 1.09719 4.12112 1.18071C4.40508 1.306 4.68904 1.44267 4.96573 1.59074C5.39895 1.82232 5.82854 2.08049 6.23628 2.36143C6.51661 2.55505 6.80057 2.76765 7.08089 2.99165C7.19739 3.08656 7.28841 3.15869 7.37214 3.23083C7.71435 3.52316 8.042 3.83447 8.35145 4.15338C8.64634 4.4571 8.9303 4.77601 9.19606 5.10251C12.1813 8.75095 13.2917 13.5421 13.6994 16.921C13.7905 17.6613 13.8669 18.4169 13.9397 19.1458V19.1572C14.3802 23.3865 14.8317 27.7563 17.198 31.1959C17.5402 31.6932 17.8824 32.1033 18.2174 32.4146L18.4249 32.612L18.1482 32.6576L18.1373 32.6613ZM19.0183 32.1944L18.9382 32.2665L18.8545 32.1982C18.4613 31.8907 18.0536 31.4351 17.6494 30.8428C15.3741 27.5361 14.9299 23.2498 14.5004 19.104C14.4276 18.4017 14.3475 17.6082 14.2528 16.8451C13.5975 11.3971 11.8282 7.0691 8.98855 3.98633C8.72643 3.6978 8.44611 3.41686 8.1585 3.1511C8.00196 3.00683 7.84177 2.86257 7.67795 2.72589C7.41583 2.50569 7.16099 2.30068 6.91343 2.11845C6.64039 1.91724 6.3637 1.72361 6.08338 1.54897C5.89043 1.42369 5.6902 1.306 5.48997 1.1959L5.46813 1.18451L5.5737 0.930144L5.59919 0.937737C5.7885 1.00607 5.99237 1.0896 6.20352 1.17692C6.48384 1.29841 6.76781 1.43888 7.05177 1.58694C7.48136 1.81473 7.91094 2.07669 8.32233 2.35763C8.59901 2.54746 8.88297 2.76006 9.16694 2.98785C9.25431 3.05998 9.34897 3.13971 9.45818 3.23083C13.7686 6.92103 15.2794 12.7107 15.7855 16.921C15.8692 17.612 15.9384 18.2916 16.0294 19.161C16.4663 23.3903 16.9213 27.7601 19.2877 31.1997C19.3496 31.2908 19.4151 31.3819 19.4952 31.4882L19.5571 31.5718L19.4952 31.6591C19.346 31.8679 19.1858 32.0463 19.0256 32.1906L19.0183 32.1944ZM43.2026 30.1215L43.0861 29.8709C42.8676 29.4039 42.6565 28.8724 42.4599 28.2878L42.4453 28.246L42.4562 28.2043C43.4501 24.6925 43.381 20.2164 43.2499 17.8588L43.2244 17.3614L44.8335 19.814V19.8557C44.8736 22.9233 44.6442 27.1488 43.3227 29.8709L43.2026 30.1215ZM44.2765 31.5262L44.1746 31.6211L44.0836 31.5148C43.9052 31.3022 43.7341 31.0554 43.5703 30.7859L43.5266 30.7137L43.5666 30.6416C45.0156 28.0866 45.3687 24.0623 45.4087 21.139L45.416 20.7024L46.8613 22.9043V22.9461C46.6283 26.9134 45.8529 29.7001 44.5496 31.2339C44.4513 31.3478 44.3603 31.4465 44.2729 31.53L44.2765 31.5262ZM45.1466 32.3348L45.092 32.3538L45.041 32.3273C44.9391 32.2741 44.8372 32.2096 44.7316 32.1336L44.6005 32.0349L44.717 31.9172C44.8044 31.8299 44.8918 31.735 44.9792 31.6325C46.2351 30.1519 47.0361 27.612 47.3601 24.085L47.3965 23.7016L48.6889 25.6682L48.6816 25.7213C48.2993 28.2346 47.6186 30.0835 46.6538 31.2225C46.2133 31.7426 45.7073 32.1147 45.1539 32.3273L45.1466 32.3348ZM50.2507 28.1549C49.8721 29.4647 49.3624 30.4973 48.7399 31.2301C48.1064 31.9742 47.3819 32.3956 46.5191 32.5209L46.0167 32.593L46.4208 32.2703C46.6465 32.0919 46.865 31.8793 47.0688 31.6363C47.9826 30.5619 48.6634 28.9028 49.0893 26.7084L49.1512 26.3857L50.2689 28.0866L50.2507 28.1511V28.1549ZM92.2737 8.66363L92.3101 8.6978C94.8694 11.12 98.8376 12.6158 104.102 13.1435C104.506 13.1853 104.994 13.2118 105.558 13.246H105.609C109.086 13.451 114.907 13.7889 115.562 17.5133L115.661 18.079L115.326 17.6234C114.678 16.7464 113.633 16.0592 112.22 15.5809C110.094 14.8633 107.517 14.7115 105.635 14.6014C105.056 14.5672 104.546 14.5368 104.142 14.4951C101.543 14.2369 99.3582 13.7699 97.4615 13.0752C94.8439 12.1109 92.8234 10.7024 91.4619 8.88383L91.2944 8.65983H92.2701L92.2737 8.66363ZM90.6391 8.66363L90.6791 8.72437C93.0382 12.369 97.4287 14.4647 104.106 15.1329C104.513 15.1746 105.008 15.2012 105.613 15.2354C108.893 15.4252 114.386 15.7441 115.446 19.0129C115.497 19.161 115.537 19.3204 115.57 19.4989L115.672 20.0721L115.333 19.609C115.268 19.5178 115.195 19.4305 115.126 19.3508L115.089 19.309C114.437 18.5763 113.473 17.9916 112.228 17.5702C110.105 16.8527 107.524 16.7008 105.642 16.5907C105.07 16.5566 104.564 16.5262 104.149 16.4882C101.346 16.2073 99.0197 15.691 97.0428 14.9089C94.2942 13.8231 92.2519 12.2172 90.9631 10.1329C90.7119 9.72285 90.4935 9.29385 90.3151 8.85725L90.2386 8.66363H90.6464H90.6391ZM90.0857 9.68489C90.2678 10.0152 90.5008 10.429 90.5554 10.5163C92.878 14.2787 97.3122 16.4351 104.106 17.1147C104.513 17.1564 105.012 17.1868 105.584 17.221H105.605C108.54 17.3918 112.978 17.6462 114.805 19.8405C115.005 20.0797 115.169 20.3379 115.293 20.6112C115.351 20.7365 115.402 20.8656 115.446 21.0023C115.497 21.1503 115.537 21.306 115.566 21.4882L115.668 22.0729L115.326 21.5983C115.264 21.511 115.195 21.4237 115.118 21.3402C115.024 21.2301 114.922 21.1238 114.812 21.0213C114.609 20.8276 114.383 20.6492 114.139 20.4822C113.604 20.1177 112.956 19.8064 112.22 19.5596C110.094 18.8383 107.517 18.6902 105.635 18.5839L105.485 18.5763C104.965 18.5459 104.513 18.5194 104.138 18.4814C101.335 18.2005 99.0087 17.6841 97.0319 16.902C94.2833 15.8162 92.2409 14.2103 90.9522 12.1298C90.701 11.7236 90.4935 11.2984 90.3369 10.8694C90.2641 10.672 90.2022 10.4632 90.1403 10.2316C90.1112 10.1253 90.0821 10.0038 90.0493 9.85953C90.042 9.82536 90.0348 9.78739 90.0311 9.74563L90.002 9.5596L90.0784 9.69628L90.0857 9.68489ZM89.161 9.6773C89.161 9.8899 89.172 10.0607 89.1756 10.1253V10.1481C89.263 11.6743 89.7399 13.1777 90.5554 14.4913C92.878 18.2536 97.3122 20.41 104.106 21.0896C104.488 21.1276 104.957 21.1579 105.456 21.1845L105.613 21.1921C107.116 21.2794 109.18 21.3971 111.004 21.8299L111.47 21.94L111.015 22.0957C108.9 22.8284 106.097 23.4244 102.686 23.8724C98.1205 24.4723 93.588 24.5558 90.8794 24.6052L90.1877 24.6165V18.1131C90.1877 16.8793 89.7362 15.8314 88.8479 14.9962C88.0106 14.2103 86.7728 13.6105 85.1637 13.2118L84.9088 13.1473L84.9489 13.1093L89.1574 9.37737V9.6697L89.161 9.6773ZM114.794 24.0053C113.127 25.7024 108.94 27.0311 102.686 27.8512C97.4542 28.5383 92.1499 28.6067 90.235 28.6067C89.8928 28.6067 89.6561 28.6067 89.5506 28.6067H88.8771L89.1283 28.3675C89.2921 28.208 89.4341 28.0486 89.5542 27.8929L89.5724 27.8702C89.587 27.8512 89.6015 27.8322 89.6124 27.817C89.7144 27.6803 89.7945 27.5512 89.86 27.426C89.8782 27.3956 89.8928 27.3614 89.9073 27.3348L89.9328 27.2931L89.9729 27.2513H90.0275C90.1622 27.2513 90.326 27.2475 90.5117 27.2437C92.4812 27.221 97.7127 27.1602 102.733 26.5034C108.296 25.7745 112.031 24.7304 114.15 23.3143L114.23 23.2612L114.303 23.3257C114.485 23.4814 114.652 23.6484 114.802 23.8231L114.885 23.9218L114.794 24.0129V24.0053ZM115.078 24.5406L115.209 24.4115L115.289 24.5824C115.355 24.7191 115.406 24.8481 115.442 24.9734L115.457 25.0266L115.435 25.0759C114.496 27.221 110.083 28.8686 102.682 29.8405C96.515 30.6492 86.8602 30.5998 85.7789 30.5923H85.7462L84.8906 30.596L85.6406 30.3227C86.5289 29.9962 87.3007 29.6393 87.9342 29.2597L87.9633 29.2407H89.5469C90.2423 29.2483 96.5295 29.2976 102.729 28.4852C109.228 27.6348 113.265 26.3478 115.075 24.5482L115.078 24.5406ZM89.3212 21.5262C89.2448 21.4275 89.1683 21.3364 89.0882 21.2528C89.0118 21.1693 88.9317 21.0896 88.8479 21.0099C88.8152 20.9795 88.7751 20.9453 88.7387 20.915C88.5276 20.7251 88.2946 20.5543 88.0324 20.3834C85.6806 18.8838 81.8726 18.6067 79.0912 18.6371H78.7235L80.2853 17.2551H80.3363C83.0449 17.3235 86.6563 17.7601 88.473 19.4647C88.564 19.5482 88.6514 19.6393 88.7351 19.7304C88.9462 19.9658 89.1137 20.2126 89.2448 20.4746C89.3139 20.6112 89.3722 20.7479 89.4231 20.8998C89.4814 21.0706 89.5287 21.2453 89.5578 21.4161L89.6489 21.94L89.3249 21.5262H89.3212ZM89.4413 22.9575L89.4159 23.0106C89.3758 23.0942 89.3358 23.1701 89.2957 23.2346L89.2047 23.3865L89.0882 23.2574C89.0154 23.1777 88.9353 23.0942 88.8479 23.0144C88.8115 22.9803 88.7751 22.9461 88.7387 22.9195C88.5276 22.7297 88.2873 22.5513 88.0324 22.388C87.7703 22.221 87.4791 22.0615 87.166 21.9172C86.8165 21.7578 86.4379 21.6097 86.0338 21.4768C84.3118 20.9188 82.1093 20.6378 79.4881 20.6378C78.5816 20.6378 77.6496 20.672 76.7249 20.7403L76.3208 20.7707L78.0063 19.2787H78.0537C80.9151 19.1686 84.8506 19.3242 87.3335 20.6606C87.6466 20.8276 87.9269 21.0137 88.1708 21.2035C88.2727 21.2832 88.3747 21.3705 88.4766 21.4655C88.5822 21.5642 88.6623 21.6515 88.7387 21.735C88.9499 21.9704 89.1173 22.2134 89.2484 22.4791C89.3176 22.6082 89.3758 22.7487 89.4268 22.9043L89.445 22.9613L89.4413 22.9575ZM88.473 17.4563C88.9208 17.8778 89.2411 18.3599 89.4231 18.8914C89.4778 19.0509 89.5251 19.2255 89.5578 19.4077L89.6452 19.8975L89.0882 19.2445C89.0154 19.1648 88.9353 19.0812 88.8516 19.0053C87.4208 17.6614 84.8761 16.8793 81.2901 16.6781L80.9552 16.6591L82.4041 15.3721H82.4587C85.2802 15.6606 87.3007 16.3591 88.4693 17.4563H88.473ZM83.0194 14.8254L84.3446 13.6484L84.4065 13.6598C86.2267 14.0281 87.5956 14.6317 88.4693 15.4518C89.0664 16.0099 89.4195 16.6477 89.5542 17.407L89.6489 17.9461L89.3176 17.5209C89.1756 17.3386 89.0154 17.164 88.8443 17.0008C87.7084 15.9339 85.8481 15.2164 83.3143 14.8633L83.0158 14.8216L83.0194 14.8254ZM113.491 22.9954C111.347 24.2369 107.713 25.2012 102.686 25.8618C97.9384 26.4844 93.1584 26.5566 90.8612 26.5945C90.6537 26.5945 90.468 26.6021 90.3042 26.6021H90.1476L90.1695 26.4427C90.184 26.3364 90.1913 26.2339 90.1913 26.1276V25.2506L90.8721 25.2392C93.5952 25.1898 98.1496 25.1063 102.737 24.5027C106.916 23.956 110.149 23.2005 112.351 22.2665L112.399 22.2475L112.446 22.2665C112.847 22.4184 113.189 22.5778 113.491 22.7525L113.702 22.874L113.491 22.9954ZM62.5485 24.6317L62.4757 12.7525C62.4757 12.7525 62.3337 10.9529 62.6614 8.78132L62.6796 8.66363H80.0451L75.2941 12.8778V13.6636L80.9333 8.66363H82.335L82.2767 8.71298L75.2941 14.9013V15.6606L83.1905 8.65983H84.5666L75.2941 16.8717V17.6879L76.3754 16.7274H76.3535L76.4118 16.6781L85.4513 8.66363H86.8238L86.7655 8.71298L75.2941 18.8838V19.6811L76.3681 18.732H76.3572L76.4154 18.6826L87.7157 8.66363H89.0882L89.03 8.71298L75.2978 20.8846V21.4655H75.4798C76.0077 21.3971 80.7841 20.8732 84.6686 21.7236L85.171 21.8337L84.6795 21.9932C82.3969 22.7297 79.3679 23.3333 75.6764 23.7851C69.9024 24.4875 64.671 24.6317 62.6905 24.6583H62.5558V24.6317H62.5485ZM62.5522 25.2695H62.6832C64.671 25.2392 69.9207 25.0987 75.7273 24.3888C79.8703 23.8838 83.1759 23.1929 85.5532 22.3386C85.7098 22.2817 85.8736 22.221 86.0593 22.1488L86.103 22.1298L86.1466 22.145C86.5762 22.2969 86.973 22.4677 87.3225 22.6613L87.5519 22.7828L87.3262 22.9043C85.0181 24.1572 81.0972 25.1253 75.6691 25.7897C69.8879 26.4958 64.6673 26.6363 62.6941 26.6629H62.5594L62.5522 25.2695ZM62.5631 27.2741H62.6941C64.6928 27.2437 69.9571 27.0957 75.7273 26.3933C79.8739 25.8884 83.1796 25.1974 85.5532 24.3432C86.518 23.9939 87.348 23.6105 88.0142 23.1967L88.0907 23.1473L88.1635 23.2042C88.2764 23.2954 88.3783 23.3827 88.4693 23.4662C88.5713 23.5611 88.655 23.6522 88.7314 23.7358L88.8224 23.8383L88.7242 23.9332C86.933 25.6378 82.4187 26.9704 75.6691 27.7904C69.9134 28.4928 64.6855 28.6371 62.7051 28.6674H62.5704L62.5631 27.2741ZM62.5776 29.2749H62.7087C64.7001 29.2445 69.9498 29.0964 75.731 28.3941C79.8776 27.8891 83.1832 27.1982 85.5569 26.344C87.0968 25.7897 88.2654 25.1481 89.0409 24.4419L89.1647 24.328L89.2448 24.4799C89.2448 24.4799 89.2593 24.5102 89.2666 24.5292C89.3249 24.6431 89.3795 24.7722 89.4231 24.9051L89.4413 24.9582L89.4159 25.0114C89.3685 25.1139 89.3139 25.2126 89.252 25.3075C87.9669 27.3197 83.2706 28.8724 75.6691 29.7988C69.8988 30.5011 64.6892 30.6454 62.716 30.6758H62.5813L62.574 29.2825L62.5776 29.2749ZM62.625 32.6272H62.5958L62.5886 31.2756H62.7196C64.7074 31.2452 69.9571 31.101 75.7273 30.3948C79.8739 29.8899 83.1796 29.1989 85.5532 28.3447C87.1005 27.7866 88.2764 27.1412 89.0555 26.4237C89.0737 26.4085 89.0919 26.3895 89.1064 26.3743C89.2047 26.2794 89.2994 26.1845 89.3831 26.0858L89.627 25.8087L89.6161 26.1845C89.6161 26.2946 89.6015 26.4009 89.5833 26.4996C89.5324 26.773 89.4231 27.0463 89.2557 27.3045C87.9706 29.3166 83.2742 30.8694 75.6727 31.7957C71.3077 32.3273 67.2448 32.5399 64.6018 32.6234H62.625V32.6272ZM115.624 26.2832C115.501 28.7775 110.906 30.7441 102.686 31.8223C97.2904 32.5285 81.1882 32.5588 75.8985 32.5664C75.4397 32.5664 75.0575 32.5664 74.7626 32.5664V32.5095L76.5647 32.2931C78.8255 31.997 80.846 31.6363 82.5643 31.2225H85.7535L85.7862 31.2187C86.8711 31.2263 96.555 31.2756 102.737 30.4632C109.643 29.5596 113.782 28.1587 115.391 26.1845L115.646 25.8732L115.624 26.2832ZM115.329 23.5839C115.257 23.4852 115.187 23.4017 115.122 23.3257C115.035 23.2232 114.936 23.1207 114.816 23.003C114.616 22.8132 114.397 22.6348 114.143 22.4639C113.913 22.3083 113.658 22.1564 113.389 22.0235C113.069 21.8603 112.701 21.7084 112.3 21.568L112.268 21.5566C112.268 21.5566 112.242 21.549 112.231 21.5452C110.112 20.8276 107.542 20.6758 105.667 20.5657L105.493 20.5543C104.994 20.5239 104.524 20.4973 104.146 20.4594C101.342 20.1784 99.016 19.6621 97.0392 18.88C94.2942 17.7942 92.2482 16.1883 90.9595 14.104C90.4243 13.2384 90.1076 12.2627 89.8418 11.3402L89.7763 11.1048L89.8928 11.3174C90.0566 11.6135 90.4935 12.3994 90.5554 12.5019C92.878 16.2642 97.3122 18.4244 104.106 19.104C104.517 19.1458 105.034 19.1762 105.58 19.2065H105.631C108.037 19.3508 111.332 19.5444 113.487 20.7631C113.797 20.9377 114.07 21.1276 114.303 21.325C114.492 21.4844 114.656 21.6477 114.802 21.8223C115.002 22.0615 115.166 22.3235 115.289 22.593C115.355 22.7335 115.406 22.8588 115.442 22.9841L115.73 24.1306L115.329 23.5801V23.5839Z" fill="#2D2D2D"></path><path d="M7.05541 47.4825V41.7991H8.45339V49.2137H6.92435L1.36521 43.4962V49.2137H0V41.7991H1.50719L7.06633 47.4825H7.05541Z" fill="#2D2D2D"></path><path d="M15.2683 41.6854C15.9819 41.6854 16.6299 41.7765 17.216 41.9588C17.8022 42.141 18.3009 42.3992 18.7159 42.7332C19.131 43.0673 19.4513 43.4698 19.6807 43.9405C19.91 44.4113 20.0229 44.9276 20.0229 45.4895C20.0229 45.8008 19.9865 46.0969 19.9137 46.3817C19.8409 46.6664 19.7353 46.936 19.597 47.1865C19.4586 47.4371 19.2875 47.6649 19.0873 47.8737C18.887 48.0825 18.6613 48.2723 18.4174 48.4394C17.9951 48.7279 17.5182 48.9481 16.9867 49.1C16.4551 49.2518 15.8799 49.3278 15.261 49.3278C14.4674 49.3278 13.7757 49.2253 13.1859 49.0203C12.5961 48.8152 12.101 48.5419 11.7078 48.1964C11.311 47.8509 11.0125 47.4485 10.8196 46.9891C10.623 46.5297 10.5247 46.0476 10.5247 45.5351C10.5247 45.3528 10.5356 45.1782 10.5611 45.0074C10.5866 44.8365 10.6266 44.6695 10.6848 44.5024C10.7431 44.3354 10.8123 44.1683 10.8887 44.0089C10.9652 43.8456 11.0562 43.69 11.1618 43.5419C11.2673 43.3938 11.3838 43.2534 11.5113 43.1167C11.6387 42.98 11.7807 42.8509 11.9445 42.7294C12.3522 42.4105 12.8328 42.16 13.3861 41.9701C13.9395 41.7841 14.5657 41.6892 15.2647 41.6892L15.2683 41.6854ZM15.2574 42.9041C14.8132 42.9041 14.4055 42.9572 14.0414 43.0635C13.6738 43.1698 13.3425 43.3179 13.0512 43.5077C12.942 43.5761 12.8401 43.6558 12.7418 43.7469C12.6435 43.838 12.5525 43.9329 12.476 44.0316C12.3959 44.1304 12.3231 44.2367 12.2649 44.3506C12.203 44.4644 12.152 44.5821 12.112 44.7074C12.0719 44.8327 12.0391 44.9618 12.0137 45.1023C11.9882 45.2389 11.9773 45.3794 11.9773 45.5237C11.9773 45.9109 12.061 46.2678 12.2212 46.5943C12.385 46.9208 12.6107 47.1979 12.9056 47.4257C13.1968 47.6535 13.5427 47.832 13.9504 47.961C14.3545 48.0901 14.795 48.1547 15.2792 48.1547C15.5268 48.1547 15.7598 48.1433 15.9855 48.1167C16.2076 48.0901 16.4151 48.0446 16.6117 47.9838C16.8083 47.9231 16.9903 47.8509 17.1541 47.7674C17.318 47.6839 17.4709 47.589 17.6165 47.4827C17.7694 47.3688 17.9041 47.2397 18.0242 47.0954C18.1444 46.9512 18.2463 46.7955 18.3337 46.6209C18.421 46.45 18.4829 46.2716 18.523 46.0932C18.563 45.9109 18.5849 45.7173 18.5849 45.5123C18.5849 45.1174 18.5084 44.7606 18.3555 44.4379C18.2026 44.1152 17.9842 43.838 17.7002 43.614C17.4163 43.3862 17.0668 43.2116 16.659 43.0901C16.2476 42.9686 15.7816 42.9079 15.2647 42.9079L15.2574 42.9041Z" fill="#2D2D2D"></path><path d="M30.2897 44.9237C30.1914 45.1705 30.053 45.3944 29.8819 45.5957C29.7072 45.7969 29.496 45.9715 29.2485 46.1196C29.0009 46.2676 28.7242 46.3739 28.4184 46.4309L30.5481 49.2099H28.9536L26.9112 46.5106H23.4709V49.2099H22.1057V41.7954H27.8068C28.1854 41.7954 28.5313 41.8447 28.848 41.9434C29.1647 42.0421 29.4414 42.194 29.6781 42.3914C29.9147 42.5926 30.1004 42.8394 30.2351 43.1317C30.3698 43.4241 30.4389 43.7657 30.4389 44.1606C30.4389 44.4187 30.388 44.6731 30.2897 44.9199V44.9237ZM23.4818 42.9381V45.3982H27.6757C27.8942 45.3982 28.0871 45.3679 28.2582 45.3109C28.4293 45.254 28.5713 45.1742 28.6915 45.0717C28.808 44.9692 28.899 44.8402 28.9645 44.6769C29.03 44.5174 29.0628 44.3428 29.0628 44.153C29.0628 43.9632 29.03 43.7923 28.9718 43.6405C28.9099 43.4886 28.8189 43.3595 28.706 43.2608C28.5895 43.1583 28.4475 43.0786 28.2801 43.0216C28.1126 42.9647 27.9124 42.9343 27.6794 42.9343H23.4855L23.4818 42.9381Z" fill="#2D2D2D"></path><path d="M36.3146 49.2137H34.9166V42.9381H31.5091V41.7991H39.6567V42.9381H36.3146V49.2137Z" fill="#2D2D2D"></path><path d="M48.383 45.8766H42.4744V49.2137H41.0873V41.7991H42.4744V44.7149H48.383V41.7991H49.8028V49.2137H48.383V45.8766Z" fill="#2D2D2D"></path><path d="M54.565 49.2137C54.5577 49.191 54.5031 49.0695 54.4011 48.8531C54.2992 48.6367 54.1718 48.3557 54.0152 48.0102C53.8587 47.6648 53.684 47.2737 53.491 46.8371C53.298 46.4005 53.0978 45.9563 52.883 45.5045C52.6719 45.0528 52.468 44.6086 52.2751 44.172C52.0821 43.7354 51.9074 43.3443 51.7508 42.9988C51.5943 42.6534 51.4632 42.3724 51.3649 42.156C51.263 41.9396 51.212 41.8219 51.212 41.7954H52.752C52.752 41.7954 52.7884 41.9093 52.8648 42.0915C52.9413 42.2737 53.0359 42.5015 53.1524 42.7824C53.2689 43.0596 53.4036 43.3747 53.5565 43.7316C53.7094 44.0884 53.8623 44.4529 54.0152 44.825C54.1681 45.197 54.3174 45.5615 54.4703 45.9184C54.6196 46.2752 54.7506 46.5941 54.8671 46.8675C54.9836 47.1446 55.0783 47.3724 55.1547 47.5585C55.2312 47.7407 55.2749 47.8356 55.2822 47.8432C55.2894 47.8356 55.3295 47.7407 55.4023 47.5585C55.4751 47.3762 55.5661 47.1484 55.6826 46.8675C55.7955 46.5903 55.9229 46.2714 56.0649 45.9108C56.2069 45.5501 56.3525 45.1856 56.5054 44.8174C56.6583 44.4491 56.8076 44.0884 56.9495 43.7316C57.0915 43.3747 57.2153 43.0558 57.3245 42.7824C57.4337 42.5053 57.5247 42.2775 57.5976 42.0915C57.6704 41.9093 57.7141 41.8105 57.7286 41.7954H59.2467L61.7806 47.8432C61.7806 47.8432 61.8279 47.7331 61.9007 47.5585C61.9735 47.3838 62.0645 47.156 62.1774 46.8751C62.2902 46.5941 62.414 46.2752 62.556 45.9184C62.6943 45.5615 62.8363 45.197 62.9892 44.825C63.1385 44.4529 63.2841 44.0884 63.4261 43.7316C63.5681 43.3747 63.6955 43.0558 63.8084 42.7824C63.9212 42.5053 64.0122 42.2775 64.0887 42.0915C64.1615 41.9093 64.1979 41.8105 64.1979 41.7954H65.7269L62.5269 49.2099H61.0525C61.0525 49.2099 61.0051 49.096 60.9287 48.9138C60.8522 48.7316 60.7539 48.5 60.6411 48.2152C60.5246 47.9305 60.3899 47.6078 60.237 47.2471C60.0841 46.8865 59.9275 46.5182 59.7746 46.1386C59.6181 45.7589 59.4652 45.3869 59.3123 45.0262C59.1594 44.6655 59.0247 44.3466 58.9045 44.0657C58.7844 43.7847 58.6861 43.5493 58.6096 43.3633C58.5332 43.1773 58.4968 43.0824 58.4968 43.0748H58.4859L56.0503 49.2137H54.565Z" fill="#2D2D2D"></path><path d="M67.1791 41.7991H74.442V42.9381H68.5661V44.7149H72.9567V45.8766H68.5661V48.0406H74.5622V49.2137H67.1791V41.7991Z" fill="#2D2D2D"></path><path d="M80.0125 49.3278C79.6849 49.3278 79.3426 49.3088 78.9822 49.2708C78.6218 49.2329 78.2614 49.1721 77.901 49.0924C77.5406 49.0127 77.1874 48.9102 76.8416 48.7849C76.4957 48.6596 76.1753 48.5153 75.8768 48.3597C75.8768 48.3521 75.8914 48.3217 75.9205 48.2686C75.9496 48.2154 75.986 48.1471 76.0297 48.0598C76.0734 47.9724 76.1171 47.8813 76.1681 47.7864C76.2154 47.6915 76.2627 47.6004 76.3101 47.5169C76.3574 47.4333 76.3938 47.3612 76.4193 47.3043C76.4447 47.2473 76.4593 47.2207 76.4666 47.2207C76.6996 47.365 76.969 47.4941 77.2712 47.608C77.5733 47.7219 77.8864 47.8206 78.2104 47.9003C78.5344 47.98 78.8584 48.0408 79.1825 48.0825C79.5065 48.1243 79.805 48.1471 80.0853 48.1471C80.5076 48.1471 80.868 48.1243 81.1629 48.0749C81.4578 48.0256 81.6981 47.9535 81.8838 47.8623C82.0694 47.7712 82.2078 47.6611 82.2988 47.5283C82.3898 47.3954 82.4371 47.2549 82.4371 47.103C82.4371 46.8828 82.3461 46.7006 82.1677 46.5563C81.9893 46.4121 81.7563 46.2944 81.4687 46.2071C81.1811 46.1197 80.8535 46.0476 80.4858 45.9945C80.1181 45.9413 79.7431 45.8844 79.3608 45.8236C78.9786 45.7629 78.6036 45.6907 78.2359 45.6072C77.8682 45.5237 77.5406 45.406 77.253 45.2579C76.9653 45.1099 76.736 44.9238 76.5612 44.6999C76.3865 44.4759 76.2991 44.1873 76.2991 43.838C76.2991 43.4888 76.3829 43.1888 76.5576 42.9155C76.7287 42.6421 76.969 42.4144 77.2857 42.2321C77.5988 42.0499 77.9701 41.9132 78.4034 41.8145C78.8366 41.7196 79.3172 41.6702 79.8414 41.6702C80.1691 41.6702 80.4894 41.6854 80.8062 41.712C81.1229 41.7386 81.4432 41.7879 81.7673 41.8601C82.0913 41.9322 82.408 42.0271 82.7174 42.1448C83.0269 42.2625 83.3291 42.4068 83.6276 42.57C83.6276 42.5776 83.613 42.6118 83.5803 42.6649C83.5475 42.7219 83.5147 42.794 83.482 42.8775C83.4492 42.9611 83.4091 43.0484 83.3618 43.1395C83.3145 43.2306 83.2708 43.3179 83.2308 43.4014C83.1907 43.485 83.1434 43.5837 83.0924 43.6976C82.7866 43.5153 82.4699 43.3673 82.1422 43.2572C81.8146 43.1471 81.4979 43.0636 81.192 43.0028C80.8862 42.9421 80.6023 42.9003 80.3401 42.8775C80.078 42.8548 79.8523 42.8434 79.663 42.8434C79.3499 42.8434 79.0696 42.8661 78.822 42.9117C78.5745 42.9573 78.367 43.0218 78.2068 43.1015C78.043 43.1813 77.9192 43.2762 77.8354 43.3863C77.7517 43.4964 77.708 43.6103 77.708 43.7355C77.708 43.9102 77.7954 44.0506 77.9738 44.1607C78.1522 44.2708 78.3852 44.3658 78.6801 44.4379C78.9713 44.5138 79.3026 44.5784 79.6666 44.6315C80.0307 44.6847 80.413 44.7454 80.8025 44.8137C81.192 44.8821 81.5707 44.9694 81.9384 45.0681C82.3061 45.1706 82.6374 45.3073 82.925 45.4743C83.2162 45.6414 83.4492 45.854 83.6239 46.1197C83.7987 46.3817 83.8861 46.6968 83.8861 47.0689C83.8861 47.3726 83.8133 47.6611 83.6676 47.9345C83.522 48.2078 83.2926 48.447 82.9796 48.652C82.6665 48.857 82.2624 49.0203 81.7709 49.1418C81.2794 49.2633 80.6969 49.324 80.0198 49.324L80.0125 49.3278Z" fill="#2D2D2D"></path><path d="M89.8962 49.2137H88.4982V42.9381H85.0906V41.7991H93.2382V42.9381H89.8962V49.2137Z" fill="#2D2D2D"></path><path d="M102.238 41.6513C102.791 41.6513 103.294 41.6969 103.745 41.7804C104.197 41.8677 104.579 41.9968 104.899 42.16C105.216 42.3271 105.46 42.5321 105.631 42.7713C105.802 43.0105 105.886 43.2952 105.886 43.6179C105.886 43.7698 105.857 43.9254 105.795 44.0811C105.733 44.2367 105.642 44.381 105.522 44.5139C105.402 44.6468 105.256 44.7682 105.089 44.8745C104.921 44.9808 104.732 45.072 104.521 45.1479V45.1821C104.812 45.2504 105.06 45.3529 105.263 45.482C105.467 45.6149 105.635 45.7629 105.762 45.9224C105.89 46.0818 105.981 46.2527 106.035 46.4273C106.09 46.602 106.119 46.7842 106.119 46.955C106.119 47.198 106.072 47.4296 105.977 47.646C105.882 47.8624 105.748 48.056 105.573 48.2307C105.398 48.4053 105.187 48.561 104.943 48.6976C104.699 48.8343 104.422 48.9482 104.117 49.0317C103.811 49.119 103.48 49.1874 103.123 49.2367C102.766 49.2861 102.387 49.3089 101.987 49.3089C101.586 49.3089 101.164 49.2861 100.756 49.2367C100.352 49.1874 99.9664 49.1152 99.6024 49.0203C99.2383 48.9254 98.9034 48.8115 98.5939 48.6786C98.2845 48.5458 98.0042 48.3863 97.7602 48.2041C97.7602 48.1965 97.7784 48.1699 97.8148 48.1244C97.8512 48.0788 97.8913 48.0181 97.9423 47.9421C97.9896 47.8662 98.0442 47.7865 98.1097 47.7029C98.1753 47.6194 98.2335 47.5397 98.2845 47.4638C98.3354 47.3878 98.3937 47.3005 98.4592 47.2018C98.6777 47.3385 98.9216 47.4676 99.191 47.5815C99.4604 47.6991 99.7443 47.7979 100.047 47.8776C100.349 47.9573 100.662 48.018 100.986 48.0598C101.31 48.1016 101.627 48.1244 101.94 48.1244C102.224 48.1244 102.489 48.1092 102.741 48.0826C102.992 48.056 103.217 48.0143 103.418 47.9573C103.618 47.9004 103.796 47.8358 103.956 47.7599C104.117 47.684 104.248 47.5928 104.35 47.4903C104.452 47.3878 104.532 47.2739 104.586 47.1524C104.641 47.031 104.67 46.9057 104.67 46.7766C104.67 46.5944 104.637 46.4387 104.572 46.3096C104.506 46.1805 104.404 46.0742 104.266 45.9945C104.128 45.9148 103.953 45.854 103.742 45.8123C103.531 45.7705 103.283 45.7477 102.999 45.7477H100.684V44.7227H102.726C103.017 44.7227 103.268 44.6999 103.476 44.6543C103.683 44.6088 103.855 44.5442 103.989 44.4607C104.124 44.3772 104.226 44.2747 104.288 44.1532C104.353 44.0317 104.386 43.8988 104.386 43.7546C104.386 43.6103 104.335 43.4812 104.233 43.3597C104.131 43.242 103.982 43.1471 103.785 43.0712C103.589 42.9953 103.345 42.9345 103.057 42.889C102.77 42.8434 102.442 42.8206 102.071 42.8206C101.838 42.8206 101.579 42.8358 101.299 42.8662C101.019 42.8966 100.731 42.9459 100.432 43.0105C100.134 43.075 99.8427 43.1509 99.5623 43.2382C99.282 43.3256 99.0381 43.4395 98.8269 43.5723L98.3354 42.5473C98.5903 42.403 98.8706 42.2701 99.1764 42.1524C99.4822 42.0348 99.8062 41.9361 100.148 41.8601C100.491 41.7842 100.84 41.7272 101.193 41.6893C101.546 41.6513 101.892 41.6323 102.234 41.6323L102.238 41.6513Z" fill="#2D2D2D"></path><path d="M116.316 47.437C116.214 47.6875 116.072 47.9115 115.883 48.1165C115.697 48.3177 115.468 48.4962 115.198 48.6442C114.929 48.7961 114.634 48.9214 114.314 49.0201C113.993 49.1188 113.647 49.1947 113.276 49.2479C112.905 49.301 112.519 49.3276 112.118 49.3276C111.696 49.3276 111.288 49.301 110.895 49.2555C110.502 49.2061 110.123 49.134 109.767 49.0429C109.406 48.9518 109.068 48.8379 108.751 48.7012C108.434 48.5645 108.139 48.4013 107.87 48.2114L108.536 47.1181C108.813 47.3307 109.108 47.5053 109.424 47.642C109.741 47.7786 110.054 47.8849 110.371 47.9609C110.684 48.0368 110.993 48.0862 111.299 48.1089C111.605 48.1317 111.889 48.1431 112.151 48.1431C112.34 48.1431 112.544 48.1355 112.763 48.1165C112.981 48.0975 113.196 48.0634 113.407 48.014C113.618 47.9647 113.822 47.9039 114.019 47.8318C114.215 47.7597 114.386 47.6723 114.536 47.5622C114.685 47.4559 114.805 47.3307 114.896 47.1864C114.987 47.0421 115.034 46.8751 115.034 46.6852C115.034 46.4347 114.965 46.2183 114.827 46.036C114.689 45.8538 114.499 45.702 114.259 45.5767C114.019 45.4514 113.742 45.3603 113.425 45.3033C113.109 45.2464 112.766 45.216 112.402 45.216C112.184 45.216 111.94 45.2274 111.678 45.2464C111.412 45.2654 111.139 45.2957 110.862 45.3375C110.586 45.3793 110.313 45.44 110.043 45.5197C109.774 45.5994 109.537 45.702 109.333 45.8196L108.252 45.5007L108.711 41.7991H115.744V42.9153H109.803L109.574 44.6465C109.799 44.5478 110.043 44.4681 110.305 44.4073C110.567 44.3466 110.83 44.2972 111.092 44.2593C111.354 44.2213 111.612 44.1947 111.867 44.1833C112.122 44.172 112.359 44.1682 112.577 44.1682C113.13 44.1682 113.644 44.2175 114.113 44.3238C114.583 44.4263 114.994 44.5782 115.347 44.7832C115.701 44.9882 115.977 45.2426 116.174 45.5539C116.37 45.8614 116.469 46.2183 116.469 46.6169C116.469 46.913 116.418 47.1864 116.316 47.437Z" fill="#2D2D2D"></path></g></svg>