<svg xmlns="http://www.w3.org/2000/svg" width="212" height="212" viewBox="0 0 212 212" fill="none"><path d="M211.76 0H0V211.76H211.76V0Z" fill="#36363C"></path><path d="M62.4696 108.017C62.8047 108.017 63.0993 108.134 63.3329 108.358C63.5665 108.583 63.6883 108.856 63.6883 109.188C63.6883 109.52 63.5665 109.784 63.3329 110.008C63.0993 110.233 62.8149 110.35 62.4696 110.35C62.2969 110.35 62.1547 110.408 62.043 110.516C61.9313 110.623 61.8704 110.77 61.8704 110.926C61.8704 111.082 61.9313 111.228 62.043 111.336C62.1649 111.453 62.3071 111.502 62.4696 111.502C63.6376 111.502 64.643 111.902 65.4657 112.693C66.2884 113.484 66.7048 114.45 66.7048 115.573C66.7048 116.696 66.2884 117.662 65.4657 118.453C64.6329 119.253 63.6376 119.644 62.4696 119.644C61.3016 119.644 60.2961 119.244 59.4735 118.453C58.6406 117.652 58.2344 116.696 58.2344 115.573C58.2344 115.251 58.3563 114.968 58.5899 114.743C58.8235 114.518 59.1078 114.401 59.443 114.401C59.7781 114.401 60.0727 114.518 60.3063 114.743C60.5399 114.968 60.6617 115.241 60.6617 115.573C60.6617 116.051 60.8344 116.471 61.2 116.803C61.5555 117.145 61.9821 117.32 62.4797 117.32C62.9774 117.32 63.4141 117.154 63.7696 116.803C64.1251 116.451 64.2977 116.051 64.2977 115.573C64.2977 115.094 64.1251 114.675 63.7696 114.333C63.4141 113.991 62.9875 113.825 62.4797 113.825C61.6367 113.825 60.9258 113.542 60.3367 112.966C59.7477 112.4 59.4531 111.707 59.4531 110.906C59.4531 110.106 59.7477 109.413 60.3367 108.846C60.9258 108.28 61.6469 107.997 62.4797 107.997L62.4696 108.017Z" fill="white"></path><path d="M71.2525 115.442V118.474C71.2525 118.791 71.1328 119.069 70.8936 119.299C70.6544 119.529 70.3753 119.644 70.0364 119.644C69.6975 119.644 69.4184 119.529 69.1792 119.299C68.9399 119.069 68.8203 118.8 68.8203 118.474V105.992C68.8203 105.675 68.9399 105.397 69.1792 105.167C69.4184 104.936 69.6975 104.821 70.0364 104.821C70.3753 104.821 70.6544 104.936 70.8936 105.167C71.1328 105.397 71.2525 105.675 71.2525 105.992V112.401L76.4058 108.438C76.6151 108.275 76.8643 108.189 77.1534 108.189C77.4823 108.189 77.7714 108.304 78.0006 108.525C78.2299 108.745 78.3495 109.014 78.3495 109.331C78.3495 109.647 78.2299 109.925 78.0006 110.146C77.9309 110.213 77.8511 110.271 77.7714 110.319L73.1364 113.888L77.9408 117.591L77.9209 117.61C77.9209 117.61 77.9807 117.658 78.0006 117.678C78.2299 117.908 78.3495 118.177 78.3495 118.493C78.3495 118.81 78.2299 119.088 78.0006 119.309C77.7714 119.529 77.4923 119.644 77.1534 119.644C76.8743 119.644 76.6351 119.568 76.4257 119.405H76.4158L71.2525 115.442Z" fill="white"></path><path d="M81.5275 107.315C81.2412 107.315 80.9895 107.192 80.7812 106.947C80.5729 106.702 80.4688 106.405 80.4688 106.068C80.4688 105.731 80.5729 105.434 80.7812 105.189C80.9895 104.944 81.2325 104.821 81.5275 104.821C81.8226 104.821 82.0656 104.944 82.2739 105.189C82.4822 105.434 82.5863 105.731 82.5863 106.068C82.5863 106.405 82.4822 106.702 82.2739 106.947C82.0656 107.192 81.8226 107.315 81.5275 107.315ZM81.5275 120.703C81.2412 120.703 80.9895 120.581 80.7812 120.335C80.5729 120.09 80.4688 119.804 80.4688 119.456V109.696C80.4688 109.359 80.5729 109.063 80.7812 108.817C80.9895 108.572 81.2325 108.449 81.5275 108.449C81.8226 108.449 82.0656 108.572 82.2739 108.817C82.4822 109.063 82.5863 109.359 82.5863 109.696V119.456C82.5863 119.794 82.4822 120.09 82.2739 120.335C82.0656 120.581 81.8226 120.703 81.5275 120.703Z" fill="white"></path><path d="M92.2819 103.416C91.9209 101.892 92.1453 100.464 92.965 99.123C93.7945 97.7725 94.9948 96.9043 96.5562 96.5281C98.1176 96.1519 99.5814 96.3737 100.957 97.1937C102.324 98.0137 103.202 99.2002 103.582 100.744C103.963 102.287 103.739 103.734 102.909 105.094C102.08 106.445 100.879 107.313 99.3179 107.689C98.0591 107.998 96.8588 107.911 95.717 107.429L96.81 111.837C96.888 112.146 96.8392 112.445 96.6733 112.725C96.5074 113.005 96.2635 113.178 95.9414 113.255C95.6194 113.333 95.3267 113.284 95.0436 113.12C94.7606 112.947 94.585 112.706 94.5069 112.397L92.2819 103.425V103.416ZM94.5362 102.683C94.5557 102.75 94.5752 102.818 94.5947 102.885L94.7021 103.31C94.9656 104.033 95.4535 104.602 96.1464 105.027C96.9661 105.519 97.8346 105.654 98.7617 105.422C99.6888 105.2 100.401 104.68 100.889 103.879C101.377 103.069 101.514 102.21 101.289 101.294C101.065 100.377 100.538 99.6729 99.7278 99.1906C98.9178 98.7082 98.0493 98.5732 97.1222 98.795C96.1952 99.0169 95.4828 99.5282 94.9851 100.329C94.5264 101.072 94.3801 101.853 94.5362 102.692V102.683Z" fill="white"></path><path d="M106.601 101.664C106.732 100.087 107.428 98.7826 108.657 97.7603C109.908 96.7186 111.369 96.2513 113.023 96.3681C114.676 96.4849 116.047 97.147 117.126 98.3639C118.204 99.5809 118.688 100.983 118.567 102.579C118.446 104.176 117.761 105.5 116.501 106.542C115.241 107.584 113.789 108.051 112.135 107.934C110.795 107.837 109.645 107.379 108.678 106.571L108.325 111.137C108.305 111.458 108.163 111.731 107.901 111.945C107.649 112.159 107.347 112.257 107.014 112.228C106.682 112.208 106.399 112.072 106.177 111.819C105.956 111.565 105.855 111.283 105.885 110.962L106.601 101.664ZM109.051 101.655C109.051 101.723 109.051 101.791 109.051 101.859L109.02 102.297C109.051 103.076 109.333 103.767 109.887 104.381C110.533 105.101 111.349 105.5 112.327 105.568C113.315 105.636 114.172 105.364 114.918 104.741C115.664 104.118 116.067 103.329 116.138 102.385C116.208 101.431 115.926 100.603 115.281 99.8827C114.646 99.1623 113.829 98.7728 112.841 98.7047C111.853 98.6365 110.996 98.9091 110.25 99.5225C109.565 100.097 109.162 100.808 109.051 101.655Z" fill="white"></path><path d="M123.878 107.315C123.592 107.315 123.34 107.192 123.132 106.947C122.923 106.702 122.819 106.405 122.819 106.068C122.819 105.731 122.923 105.434 123.132 105.189C123.34 104.944 123.583 104.821 123.878 104.821C124.173 104.821 124.416 104.944 124.625 105.189C124.833 105.434 124.937 105.731 124.937 106.068C124.937 106.405 124.833 106.702 124.625 106.947C124.416 107.192 124.173 107.315 123.878 107.315ZM123.878 120.703C123.592 120.703 123.34 120.581 123.132 120.335C122.923 120.09 122.819 119.804 122.819 119.456V109.696C122.819 109.359 122.923 109.063 123.132 108.817C123.34 108.572 123.583 108.449 123.878 108.449C124.173 108.449 124.416 108.572 124.625 108.817C124.833 109.063 124.937 109.359 124.937 109.696V119.456C124.937 119.794 124.833 120.09 124.625 120.335C124.416 120.581 124.173 120.703 123.878 120.703Z" fill="white"></path><path d="M134.049 107.997C135.681 108.095 137.022 108.66 138.071 109.724C139.188 110.845 139.751 112.191 139.761 113.772V118.268C139.761 118.717 139.644 119.059 139.411 119.293C139.178 119.527 138.897 119.644 138.576 119.644C138.255 119.644 137.974 119.527 137.741 119.293C137.507 119.059 137.391 118.727 137.391 118.288V113.791C137.391 113.723 137.391 113.655 137.401 113.586C137.352 112.728 137.022 111.996 136.4 111.392C135.73 110.719 134.914 110.377 133.962 110.377H133.913C132.961 110.377 132.155 110.719 131.475 111.392C130.854 112.006 130.523 112.738 130.475 113.586C130.475 113.655 130.484 113.723 130.484 113.791V118.288C130.484 118.727 130.368 119.059 130.135 119.293C129.902 119.527 129.63 119.644 129.299 119.644C128.969 119.644 128.697 119.527 128.464 119.293C128.231 119.059 128.114 118.717 128.114 118.268V113.772C128.134 112.191 128.697 110.836 129.804 109.724C130.854 108.67 132.194 108.095 133.826 107.997H134.011H134.049Z" fill="white"></path><path d="M151.148 118.915C150.151 119.687 148.997 120.083 147.696 120.083C146.083 120.083 144.714 119.494 143.579 118.316C142.445 117.138 141.878 115.706 141.878 114.04C141.878 112.374 142.445 110.942 143.579 109.764C144.714 108.586 146.093 107.997 147.696 107.997C149.3 107.997 150.679 108.586 151.813 109.764C152.948 110.942 153.515 112.364 153.515 114.03H153.525V118.854C153.525 118.915 153.525 118.986 153.515 119.047C153.476 120.652 152.909 122.033 151.813 123.171C150.679 124.349 149.3 124.938 147.696 124.938H147.648C147.325 124.938 147.041 124.816 146.807 124.572C146.572 124.328 146.455 124.034 146.455 123.699C146.455 123.364 146.572 123.069 146.807 122.825C147.041 122.582 147.325 122.46 147.648 122.46C147.706 122.46 147.755 122.46 147.814 122.47C148.713 122.439 149.496 122.084 150.151 121.414C150.816 120.723 151.148 119.89 151.158 118.915H151.148ZM147.696 110.435C146.738 110.435 145.926 110.78 145.242 111.481C144.567 112.181 144.225 113.024 144.225 114.02C144.225 115.015 144.567 115.858 145.242 116.569C145.917 117.28 146.738 117.625 147.696 117.625C148.655 117.625 149.466 117.27 150.141 116.569C150.816 115.868 151.148 115.015 151.148 114.02C151.148 113.024 150.816 112.181 150.141 111.481C149.466 110.78 148.655 110.435 147.696 110.435Z" fill="white"></path><path d="M84.2626 112.232C84.1504 112.232 84.0381 112.189 83.9605 112.103L81.6558 109.798C81.4832 109.625 81.4832 109.358 81.6558 109.185C81.8285 109.013 82.0961 109.013 82.2687 109.185L84.5733 111.49C84.7459 111.662 84.7459 111.93 84.5733 112.103C84.487 112.189 84.3748 112.232 84.2712 112.232H84.2626Z" fill="white"></path><path d="M121.135 112.232C121.022 112.232 120.91 112.189 120.833 112.103C120.66 111.93 120.66 111.662 120.833 111.49L123.137 109.185C123.31 109.013 123.577 109.013 123.75 109.185C123.923 109.358 123.923 109.625 123.75 109.798L121.445 112.103C121.359 112.189 121.247 112.232 121.143 112.232H121.135Z" fill="white"></path><path d="M104.472 117.526C93.646 117.526 84.9639 112.812 84.8367 112.739C84.7192 112.676 84.6703 112.519 84.729 112.383C84.7877 112.248 84.9345 112.206 85.0618 112.268C85.2575 112.373 104.57 122.847 121.396 112.268C121.513 112.195 121.66 112.237 121.728 112.363C121.797 112.488 121.758 112.645 121.64 112.718C115.924 116.314 109.924 117.506 104.462 117.506L104.472 117.526Z" fill="white"></path></svg>