<svg xmlns="http://www.w3.org/2000/svg" width="111" height="44" viewBox="0 0 111 44" fill="none"><g opacity="0.75"><path d="M14.799 42.2118C14.5888 42.0708 14.4838 41.7535 14.4838 41.26V8.75921H19.878C21.209 8.75921 22.3999 9.04121 23.4332 9.60521C24.4665 10.1692 25.3947 11.0152 26.1653 12.1432L26.2004 12.1961H26.5857L24.9044 7.9837H1.61125L0 12.1961H0.332759L0.367786 12.1432C1.17341 11.0329 2.11915 10.1692 3.16997 9.60521C4.22078 9.04121 5.42922 8.75921 6.70772 8.75921H12.1019V41.26C12.0669 41.7535 11.9443 42.0708 11.7692 42.2118C11.559 42.3704 11.1737 42.4233 10.6658 42.4233H10.5607V42.9168H16.0775V42.4233H15.9549C15.3945 42.4409 15.0092 42.3704 14.799 42.2118Z" fill="#2D2D2D"></path><path d="M49.6851 1.95639L48.2314 0L41.8565 6.06305L42.1367 6.43318L49.6851 1.95639Z" fill="#2D2D2D"></path><path d="M41.2444 8.45997H41.367C41.9099 8.45997 42.2777 8.5481 42.5054 8.67147C42.7155 8.81248 42.8206 9.12973 42.8206 9.62323V41.278C42.8206 41.7715 42.7155 42.0711 42.5054 42.2298C42.2952 42.3884 41.8924 42.4413 41.367 42.4413H41.2444V42.9348H46.7612V42.4413H46.6386C46.0956 42.4413 45.7279 42.3708 45.5352 42.2298C45.3251 42.0888 45.22 41.7715 45.2025 41.278V9.64086C45.2375 9.14735 45.3601 8.8301 45.5527 8.6891C45.7629 8.53047 46.1482 8.4776 46.6561 8.4776H46.7787V7.98409H41.2619L41.2444 8.45997Z" fill="#2D2D2D"></path><path d="M35.8331 7.96608H34.975L31.5423 15.5978L31.4898 15.7388L20.1234 41.0837C19.8432 41.6301 19.563 42.0003 19.3178 42.1765C19.0901 42.3704 18.6873 42.4409 18.1619 42.4409H18.0393V42.9344H22.12V42.4409H21.6471C21.4194 42.4409 20.6839 42.4409 20.6839 41.965C20.6839 41.8593 20.7539 41.5949 21.0692 40.8899L28.8627 23.4586H35.2902V41.2776C35.2902 41.7711 35.1851 42.0708 34.975 42.2294C34.7648 42.388 34.362 42.4409 33.8366 42.4409H33.714V42.9344H39.2308V42.4409H39.1082C38.5653 42.4409 38.1975 42.3704 38.0048 42.2294C37.7947 42.0884 37.6896 41.7711 37.6721 41.2776V9.64047C37.7071 9.14696 37.8297 8.82971 38.0223 8.68871C38.2325 8.53008 38.6178 8.47721 39.1257 8.47721H39.2483V7.9837L35.8331 7.96608ZM35.3077 22.6478H29.248L33.4688 13.2889L33.679 12.7601L34.9925 9.83434L35.3077 9.11171V22.6478Z" fill="#2D2D2D"></path><path d="M67.078 9.11171C65.204 8.35383 63.1374 7.96608 60.9482 7.96608H49.0039V8.45958H49.1265C49.6695 8.45958 50.0373 8.54771 50.2649 8.67108C50.4751 8.81209 50.5802 9.12934 50.5802 9.62284V41.2776C50.5802 41.7711 50.4751 42.0708 50.2649 42.2294C50.0548 42.388 49.652 42.4409 49.1265 42.4409H49.0039V42.9344H54.5207V42.4409H54.3981C53.8552 42.4409 53.4874 42.3704 53.2948 42.2294C53.0846 42.0884 52.9795 41.7711 52.962 41.2776V29.0986H59.8624C62.2618 29.0986 64.4334 28.7814 66.3249 28.1469C68.4441 27.389 70.1604 26.12 71.4389 24.3927C72.7174 22.6655 73.3479 20.6386 73.3479 18.3649C73.3479 16.0913 72.7524 14.2054 71.614 12.6367C70.4756 11.0505 68.952 9.8696 67.078 9.11171ZM59.8974 28.3055H52.927V9.62284C52.927 9.27034 52.9971 9.02359 53.1372 8.93546C53.2422 8.84734 53.4699 8.75921 54.1004 8.75921H60.9482C63.0499 8.82971 64.9063 9.30559 66.4125 10.1868C67.9187 11.0681 69.1096 12.2137 69.8802 13.6238C70.6508 15.0338 71.0361 16.5319 71.0361 18.1182C71.0361 20.0569 70.5107 21.8547 69.4774 23.4057C68.4441 24.9567 67.0605 26.1905 65.3617 27.0541C63.6453 27.9178 61.8239 28.3231 59.8974 28.3055Z" fill="#2D2D2D"></path><path d="M109.864 19.2641C108.971 16.8847 107.657 14.7521 105.941 12.9543C104.225 11.1389 102.211 9.74655 99.9512 8.79479C97.692 7.82541 95.3101 7.3319 92.8757 7.3319C90.8091 7.3319 88.7425 7.70203 86.781 8.42466C84.4167 9.32355 82.2975 10.6454 80.5111 12.3727C78.7072 14.1 77.3237 16.1092 76.3604 18.3652C75.3972 20.6213 74.9068 23.0007 74.9068 25.4506C74.9068 27.5656 75.2746 29.663 75.9926 31.637C76.8508 34.0164 78.1468 36.149 79.8631 37.9468C81.5795 39.7622 83.5935 41.1546 85.8528 42.124C88.112 43.0933 90.4939 43.5868 92.9283 43.5868C95.0299 43.5868 97.114 43.2167 99.0756 42.4941C101.44 41.6305 103.559 40.3262 105.345 38.5989C107.149 36.8717 108.533 34.8448 109.496 32.5535C110.459 30.2622 110.95 27.8652 110.95 25.4153C110.967 23.3003 110.6 21.2382 109.864 19.2641ZM93.8915 42.5822C91.6848 42.5822 89.5131 42.1063 87.4465 41.1546C85.3799 40.2028 83.5235 38.8457 81.9122 37.0655C80.301 35.303 79.0575 33.2056 78.2169 30.8615C77.4813 28.8346 77.096 26.6667 77.096 24.3931C77.096 20.9561 78.0067 17.8189 79.7931 15.0341C81.5795 12.2493 84.0314 10.2753 87.0787 9.18254C88.69 8.58329 90.3538 8.30129 92.0176 8.30129C94.1893 8.30129 96.3435 8.79479 98.4101 9.76418C100.477 10.7336 102.333 12.1083 103.944 13.8708C105.556 15.6334 106.817 17.7307 107.692 20.0749C108.428 22.1018 108.813 24.2521 108.813 26.4904C108.813 29.8921 107.902 33.0294 106.116 35.8318C104.33 38.6342 101.878 40.6082 98.8304 41.7186C97.2366 42.3002 95.5728 42.5822 93.8915 42.5822Z" fill="#2D2D2D"></path></g></svg>