<svg xmlns="http://www.w3.org/2000/svg" width="212" height="212" viewBox="0 0 212 212" fill="none"><path d="M211.76 0H0V211.76H211.76V0Z" fill="#36363C"></path><path d="M104.526 115.844C101.815 115.69 99.5858 114.739 97.8385 112.992C95.9885 111.141 95.0506 108.906 95.0249 106.285V98.8463C95.0249 98.1011 95.2176 97.5358 95.603 97.1504C95.9885 96.765 96.451 96.5723 96.9906 96.5723C97.5302 96.5723 97.9927 96.765 98.3781 97.1504C98.7636 97.5358 98.9563 98.0883 98.9563 98.8078V106.247C98.9563 106.362 98.9499 106.478 98.937 106.593C99.0141 108.007 99.5665 109.221 100.594 110.236C101.712 111.353 103.061 111.912 104.641 111.912H104.718C106.299 111.912 107.648 111.353 108.765 110.236C109.793 109.221 110.346 108.007 110.423 106.593C110.41 106.478 110.404 106.362 110.404 106.247V98.8078C110.404 98.0883 110.596 97.5358 110.982 97.1504C111.367 96.765 111.83 96.5723 112.369 96.5723C112.909 96.5723 113.371 96.765 113.757 97.1504C114.142 97.5358 114.335 98.1011 114.335 98.8463V106.285C114.309 108.906 113.371 111.141 111.521 112.992C109.774 114.739 107.545 115.69 104.834 115.844H104.526Z" fill="white"></path><path d="M81.4773 96.6104C84.1368 96.6104 86.4044 97.5482 88.2801 99.424C90.1559 101.3 91.0938 103.567 91.0938 106.227C91.0938 108.886 90.1559 111.154 88.2801 113.03C86.4044 114.905 84.1368 115.843 81.4773 115.843C78.8178 115.843 76.5502 114.905 74.6745 113.03C72.7987 111.154 71.8608 108.886 71.8608 106.227C71.8608 103.567 72.7987 101.3 74.6745 99.424C76.5502 97.5482 78.8178 96.6104 81.4773 96.6104ZM81.4773 100.503C79.897 100.503 78.548 101.062 77.4303 102.18C76.3126 103.285 75.7537 104.627 75.7537 106.208C75.7537 107.788 76.3126 109.137 77.4303 110.255C78.548 111.372 79.897 111.931 81.4773 111.931C83.0576 111.931 84.4001 111.372 85.505 110.255C86.6228 109.137 87.1817 107.788 87.1817 106.208C87.1817 104.627 86.6228 103.285 85.505 102.18C84.4001 101.062 83.0576 100.503 81.4773 100.503Z" fill="white"></path><path d="M56.81 91.2336C56.5916 90.9124 56.4824 90.5463 56.4824 90.1352C56.4824 89.6084 56.6687 89.1587 57.0413 88.7862C57.4267 88.4007 57.8828 88.208 58.4096 88.208C58.9492 88.208 59.4053 88.3943 59.7778 88.7669C59.932 88.9211 60.0541 89.0881 60.144 89.2679L66.1182 97.9979L72.2272 89.056C72.3043 88.9532 72.3878 88.8568 72.4777 88.7669C72.8503 88.3943 73.3 88.208 73.8267 88.208C74.3664 88.208 74.8224 88.4007 75.195 88.7862C75.5676 89.1587 75.7539 89.6084 75.7539 90.1352C75.7539 90.6234 75.5997 91.0409 75.2914 91.3878L68.0453 101.987V113.916C68.0453 114.456 67.859 114.912 67.4864 115.284C67.1139 115.657 66.6578 115.843 66.1182 115.843C65.5914 115.843 65.1353 115.657 64.7499 115.284C64.3773 114.912 64.191 114.456 64.191 113.916V102.006L56.81 91.2336Z" fill="white"></path><path d="M129.207 97.5888C129.5 97.3545 129.851 97.2373 130.261 97.2373C130.672 97.2373 131.023 97.3838 131.316 97.6767C131.609 97.9696 131.755 98.3211 131.755 98.7312V116.16C131.755 116.57 131.609 116.922 131.316 117.215C131.023 117.508 130.672 117.654 130.261 117.654C129.851 117.654 129.5 117.508 129.207 117.215C128.914 116.922 128.768 116.57 128.768 116.16V102.202L128.387 102.568C128.094 102.861 127.742 103.008 127.332 103.008C126.922 103.008 126.571 102.861 126.278 102.568C125.985 102.276 125.838 101.924 125.838 101.514C125.838 101.104 125.985 100.752 126.278 100.459L129.207 97.5888Z" fill="white"></path><path d="M120.243 97.5888C120.536 97.3545 120.888 97.2373 121.298 97.2373C121.708 97.2373 122.059 97.3838 122.352 97.6767C122.645 97.9696 122.792 98.3211 122.792 98.7312V116.16C122.792 116.57 122.645 116.922 122.352 117.215C122.059 117.508 121.708 117.654 121.298 117.654C120.888 117.654 120.536 117.508 120.243 117.215C119.95 116.922 119.804 116.57 119.804 116.16V102.202L119.423 102.568C119.13 102.861 118.779 103.008 118.368 103.008C117.958 103.008 117.607 102.861 117.314 102.568C117.021 102.276 116.875 101.924 116.875 101.514C116.875 101.104 117.021 100.752 117.314 100.459L120.243 97.5888Z" fill="white"></path><path d="M145.642 100.503C144.062 100.503 142.713 101.062 141.595 102.18C140.477 103.285 139.918 104.627 139.918 106.208C139.918 107.788 140.477 109.137 141.595 110.255C142.713 111.372 144.062 111.931 145.642 111.931C147.222 111.931 148.565 111.372 149.67 110.255C150.787 109.137 151.346 107.788 151.346 106.208C151.346 104.627 150.787 103.285 149.67 102.18C148.565 101.062 147.222 100.503 145.642 100.503ZM151.346 113.993C149.702 115.227 147.8 115.843 145.642 115.843C142.982 115.843 140.715 114.905 138.839 113.03C136.963 111.154 136.025 108.886 136.025 106.227C136.025 103.567 136.963 101.3 138.839 99.424C140.715 97.5482 142.982 96.6104 145.642 96.6104C148.301 96.6104 150.569 97.5482 152.445 99.424C154.32 101.3 155.258 103.561 155.258 106.208H155.278V113.878C155.278 113.98 155.271 114.083 155.258 114.186C155.194 116.743 154.256 118.927 152.445 120.738C150.569 122.614 148.301 123.552 145.642 123.552H145.565C145.025 123.552 144.563 123.359 144.177 122.974C143.792 122.588 143.599 122.126 143.599 121.586C143.599 121.047 143.792 120.584 144.177 120.199C144.563 119.813 145.025 119.62 145.565 119.62C145.655 119.62 145.745 119.627 145.835 119.64C147.325 119.588 148.61 119.03 149.689 117.963C150.781 116.858 151.333 115.535 151.346 113.993Z" fill="white"></path></svg>